<svg width="359" height="43" viewBox="0 0 359 43" fill="none" xmlns="http://www.w3.org/2000/svg">
<path d="M1.55317 26.2127L5.5 42H355.5L357.726 25.6756C358.135 22.6734 355.802 20 352.772 20H310.347C308.454 20 306.723 18.9307 305.876 17.2376L298.882 3.26241C298.035 1.56933 296.304 0.500006 294.411 0.500006L220.775 0.5C218.786 0.5 216.986 1.67883 216.191 3.50208L210.309 16.9979C209.514 18.8212 207.714 20 205.725 20H6.40388C3.15103 20 0.764237 23.057 1.55317 26.2127Z" fill="#F1F2F6" stroke="#393C41"/>
<path d="M219.032 14V5.68399H224.108V6.67999H220.196V9.15199H223.676V10.124H220.196V13.004H224.408V14H219.032Z" fill="#393C41"/>
<path d="M281.567 10.03C281.567 8.86999 281.77 7.97666 282.177 7.34999C282.59 6.72332 283.16 6.40999 283.887 6.40999C284.613 6.40999 285.18 6.72332 285.587 7.34999C286 7.97666 286.207 8.86999 286.207 10.03C286.207 11.19 286 12.0833 285.587 12.71C285.18 13.3367 284.613 13.65 283.887 13.65C283.16 13.65 282.59 13.3367 282.177 12.71C281.77 12.0833 281.567 11.19 281.567 10.03ZM285.227 10.03C285.227 9.64999 285.203 9.28999 285.157 8.94999C285.117 8.60999 285.043 8.31332 284.937 8.05999C284.837 7.80666 284.7 7.60666 284.527 7.45999C284.353 7.30666 284.14 7.22999 283.887 7.22999C283.633 7.22999 283.42 7.30666 283.247 7.45999C283.073 7.60666 282.933 7.80666 282.827 8.05999C282.727 8.31332 282.653 8.60999 282.607 8.94999C282.567 9.28999 282.547 9.64999 282.547 10.03C282.547 10.41 282.567 10.77 282.607 11.11C282.653 11.45 282.727 11.7467 282.827 12C282.933 12.2533 283.073 12.4567 283.247 12.61C283.42 12.7567 283.633 12.83 283.887 12.83C284.14 12.83 284.353 12.7567 284.527 12.61C284.7 12.4567 284.837 12.2533 284.937 12C285.043 11.7467 285.117 11.45 285.157 11.11C285.203 10.77 285.227 10.41 285.227 10.03Z" fill="#393C41"/>
<path d="M291.381 8.33999C291.381 8.57999 291.331 8.81332 291.231 9.03999C291.138 9.25999 291.011 9.47999 290.851 9.69999C290.691 9.91332 290.511 10.1267 290.311 10.34C290.111 10.5467 289.911 10.75 289.711 10.95C289.598 11.0633 289.464 11.1967 289.311 11.35C289.164 11.5033 289.024 11.6633 288.891 11.83C288.758 11.9967 288.644 12.1567 288.551 12.31C288.464 12.4633 288.421 12.5967 288.421 12.71H291.611V13.5H287.411C287.404 13.46 287.401 13.42 287.401 13.38C287.401 13.34 287.401 13.3033 287.401 13.27C287.401 12.9567 287.451 12.6667 287.551 12.4C287.658 12.1267 287.794 11.87 287.961 11.63C288.128 11.39 288.314 11.1633 288.521 10.95C288.728 10.7367 288.931 10.53 289.131 10.33C289.298 10.17 289.454 10.0133 289.601 9.85999C289.754 9.69999 289.888 9.54332 290.001 9.38999C290.121 9.22999 290.214 9.06666 290.281 8.89999C290.354 8.73332 290.391 8.55666 290.391 8.36999C290.391 8.16999 290.358 7.99999 290.291 7.85999C290.231 7.71999 290.148 7.60332 290.041 7.50999C289.934 7.41666 289.808 7.34999 289.661 7.30999C289.521 7.26332 289.371 7.23999 289.211 7.23999C289.018 7.23999 288.841 7.26666 288.681 7.31999C288.521 7.37332 288.378 7.43666 288.251 7.50999C288.125 7.57666 288.018 7.64999 287.931 7.72999C287.845 7.80332 287.778 7.85999 287.731 7.89999L287.271 7.23999C287.331 7.17332 287.421 7.09332 287.541 6.99999C287.661 6.89999 287.804 6.80666 287.971 6.71999C288.138 6.63332 288.324 6.55999 288.531 6.49999C288.738 6.43999 288.961 6.40999 289.201 6.40999C289.928 6.40999 290.471 6.57999 290.831 6.91999C291.198 7.25332 291.381 7.72666 291.381 8.33999Z" fill="#393C41"/>
<path d="M292.756 11.1C292.882 10.8067 293.056 10.4667 293.276 10.08C293.496 9.68666 293.742 9.28332 294.016 8.86999C294.296 8.45666 294.592 8.04999 294.906 7.64999C295.226 7.24999 295.546 6.88999 295.866 6.56999H296.756V10.97H297.576V11.73H296.756V13.5H295.856V11.73H292.756V11.1ZM295.856 7.66999C295.656 7.88332 295.452 8.12332 295.246 8.38999C295.046 8.64999 294.849 8.92332 294.656 9.20999C294.462 9.49666 294.279 9.78999 294.106 10.09C293.939 10.39 293.789 10.6833 293.656 10.97H295.856V7.66999Z" fill="#393C41"/>
</svg>
