<svg width="364" height="155" viewBox="0 0 364 155" fill="none" xmlns="http://www.w3.org/2000/svg">
<path d="M1.35803 26.0885L29.1275 150.589C29.6374 152.874 31.6656 154.5 34.0076 154.5H329.992C332.334 154.5 334.363 152.874 334.872 150.589L362.642 26.0885C363.339 22.9649 360.962 20 357.762 20H236.089C234.196 20 232.465 18.9307 231.618 17.2376L224.624 3.26241C223.777 1.56933 222.046 0.500006 220.153 0.500006L143.775 0.5C141.786 0.5 139.986 1.67883 139.191 3.50208L133.309 16.9979C132.514 18.8212 130.714 20 128.725 20H6.23811C3.03775 20 0.661316 22.9649 1.35803 26.0885Z" fill="#F1F2F6" stroke="#393C41"/>
<path d="M148.588 15.5C148.452 15.14 148.324 14.788 148.204 14.444C148.084 14.092 147.96 13.736 147.832 13.376H144.064L143.308 15.5H142.096C142.416 14.62 142.716 13.808 142.996 13.064C143.276 12.312 143.548 11.6 143.812 10.928C144.084 10.256 144.352 9.61599 144.616 9.00799C144.88 8.39199 145.156 7.78399 145.444 7.18399H146.512C146.8 7.78399 147.076 8.39199 147.34 9.00799C147.604 9.61599 147.868 10.256 148.132 10.928C148.404 11.6 148.68 12.312 148.96 13.064C149.24 13.808 149.54 14.62 149.86 15.5H148.588ZM147.496 12.416C147.24 11.72 146.984 11.048 146.728 10.4C146.48 9.74399 146.22 9.11599 145.948 8.51599C145.668 9.11599 145.4 9.74399 145.144 10.4C144.896 11.048 144.648 11.72 144.4 12.416H147.496Z" fill="#393C41"/>
<path d="M204.567 11.53C204.567 10.37 204.77 9.47666 205.177 8.84999C205.59 8.22332 206.16 7.90999 206.887 7.90999C207.613 7.90999 208.18 8.22332 208.587 8.84999C209 9.47666 209.207 10.37 209.207 11.53C209.207 12.69 209 13.5833 208.587 14.21C208.18 14.8367 207.613 15.15 206.887 15.15C206.16 15.15 205.59 14.8367 205.177 14.21C204.77 13.5833 204.567 12.69 204.567 11.53ZM208.227 11.53C208.227 11.15 208.203 10.79 208.157 10.45C208.117 10.11 208.043 9.81332 207.937 9.55999C207.837 9.30666 207.7 9.10666 207.527 8.95999C207.353 8.80666 207.14 8.72999 206.887 8.72999C206.633 8.72999 206.42 8.80666 206.247 8.95999C206.073 9.10666 205.933 9.30666 205.827 9.55999C205.727 9.81332 205.653 10.11 205.607 10.45C205.567 10.79 205.547 11.15 205.547 11.53C205.547 11.91 205.567 12.27 205.607 12.61C205.653 12.95 205.727 13.2467 205.827 13.5C205.933 13.7533 206.073 13.9567 206.247 14.11C206.42 14.2567 206.633 14.33 206.887 14.33C207.14 14.33 207.353 14.2567 207.527 14.11C207.7 13.9567 207.837 13.7533 207.937 13.5C208.043 13.2467 208.117 12.95 208.157 12.61C208.203 12.27 208.227 11.91 208.227 11.53Z" fill="#393C41"/>
<path d="M210.211 11.53C210.211 10.37 210.414 9.47666 210.821 8.84999C211.234 8.22332 211.804 7.90999 212.531 7.90999C213.258 7.90999 213.824 8.22332 214.231 8.84999C214.644 9.47666 214.851 10.37 214.851 11.53C214.851 12.69 214.644 13.5833 214.231 14.21C213.824 14.8367 213.258 15.15 212.531 15.15C211.804 15.15 211.234 14.8367 210.821 14.21C210.414 13.5833 210.211 12.69 210.211 11.53ZM213.871 11.53C213.871 11.15 213.848 10.79 213.801 10.45C213.761 10.11 213.688 9.81332 213.581 9.55999C213.481 9.30666 213.344 9.10666 213.171 8.95999C212.998 8.80666 212.784 8.72999 212.531 8.72999C212.278 8.72999 212.064 8.80666 211.891 8.95999C211.718 9.10666 211.578 9.30666 211.471 9.55999C211.371 9.81332 211.298 10.11 211.251 10.45C211.211 10.79 211.191 11.15 211.191 11.53C211.191 11.91 211.211 12.27 211.251 12.61C211.298 12.95 211.371 13.2467 211.471 13.5C211.578 13.7533 211.718 13.9567 211.891 14.11C212.064 14.2567 212.278 14.33 212.531 14.33C212.784 14.33 212.998 14.2567 213.171 14.11C213.344 13.9567 213.481 13.7533 213.581 13.5C213.688 13.2467 213.761 12.95 213.801 12.61C213.848 12.27 213.871 11.91 213.871 11.53Z" fill="#393C41"/>
<path d="M216.286 9.49999C216.666 9.35332 217.036 9.16666 217.396 8.93999C217.756 8.70666 218.086 8.41666 218.386 8.06999H219.046V15H218.116V9.35999C218.036 9.43332 217.936 9.50999 217.816 9.58999C217.702 9.66999 217.576 9.74666 217.436 9.81999C217.302 9.89332 217.159 9.96332 217.006 10.03C216.859 10.0967 216.716 10.1533 216.576 10.2L216.286 9.49999Z" fill="#393C41"/>
<path d="M147.697 78H216.303C217.891 78 219.076 79.4609 218.749 81.0146L216.012 94.0146C215.768 95.1715 214.748 96 213.565 96H150.435C149.252 96 148.232 95.1715 147.988 94.0146L145.251 81.0146C144.924 79.4609 146.109 78 147.697 78Z" fill="#FBFC7A" stroke="#393C41"/>
<path d="M162.208 90.59C161.988 90.5833 161.795 90.5533 161.628 90.5C161.468 90.4533 161.332 90.38 161.218 90.28C161.112 90.1733 161.028 90.04 160.968 89.88C160.915 89.7133 160.888 89.5067 160.888 89.26V82.86L161.538 82.74V89.24C161.538 89.4 161.552 89.53 161.578 89.63C161.612 89.7233 161.658 89.8 161.718 89.86C161.778 89.9133 161.855 89.9533 161.948 89.98C162.048 90.0067 162.165 90.03 162.298 90.05L162.208 90.59Z" fill="#393C41"/>
<path d="M168.757 87.92C168.757 88.3267 168.697 88.6967 168.577 89.03C168.464 89.3633 168.3 89.6467 168.087 89.88C167.88 90.1133 167.634 90.2967 167.347 90.43C167.06 90.5567 166.744 90.62 166.397 90.62C166.05 90.62 165.734 90.5567 165.447 90.43C165.16 90.2967 164.91 90.1133 164.697 89.88C164.49 89.6467 164.327 89.3633 164.207 89.03C164.094 88.6967 164.037 88.3267 164.037 87.92C164.037 87.5133 164.094 87.1433 164.207 86.81C164.327 86.4767 164.49 86.1933 164.697 85.96C164.91 85.72 165.16 85.5367 165.447 85.41C165.734 85.2767 166.05 85.21 166.397 85.21C166.744 85.21 167.06 85.2767 167.347 85.41C167.634 85.5367 167.88 85.72 168.087 85.96C168.3 86.1933 168.464 86.4767 168.577 86.81C168.697 87.1433 168.757 87.5133 168.757 87.92ZM168.067 87.92C168.067 87.2733 167.917 86.76 167.617 86.38C167.317 85.9933 166.91 85.8 166.397 85.8C165.884 85.8 165.477 85.9933 165.177 86.38C164.877 86.76 164.727 87.2733 164.727 87.92C164.727 88.5667 164.877 89.08 165.177 89.46C165.477 89.84 165.884 90.03 166.397 90.03C166.91 90.03 167.317 89.84 167.617 89.46C167.917 89.08 168.067 88.5667 168.067 87.92Z" fill="#393C41"/>
<path d="M174.437 89.9C174.397 89.9333 174.337 89.9733 174.257 90.02C174.177 90.06 174.077 90.1033 173.957 90.15C173.844 90.1967 173.711 90.2367 173.557 90.27C173.411 90.2967 173.244 90.31 173.057 90.31C172.757 90.31 172.467 90.2633 172.187 90.17C171.907 90.0767 171.661 89.93 171.447 89.73C171.241 89.53 171.074 89.2733 170.947 88.96C170.821 88.64 170.757 88.2533 170.757 87.8C170.757 87.4333 170.814 87.0933 170.927 86.78C171.041 86.4667 171.201 86.1967 171.407 85.97C171.621 85.7367 171.877 85.5567 172.177 85.43C172.484 85.2967 172.827 85.23 173.207 85.23C173.687 85.23 174.071 85.2633 174.357 85.33C174.651 85.39 174.891 85.45 175.077 85.51V90.23C175.077 91.0033 174.877 91.5533 174.477 91.88C174.077 92.2133 173.474 92.38 172.667 92.38C172.334 92.38 172.031 92.3533 171.757 92.3C171.491 92.2533 171.261 92.1967 171.067 92.13L171.197 91.54C171.357 91.6133 171.574 91.6767 171.847 91.73C172.127 91.7833 172.407 91.81 172.687 91.81C173.301 91.81 173.744 91.69 174.017 91.45C174.297 91.2167 174.437 90.8133 174.437 90.24V89.9ZM174.427 85.96C174.314 85.9267 174.167 85.8967 173.987 85.87C173.807 85.8367 173.551 85.82 173.217 85.82C172.937 85.82 172.687 85.87 172.467 85.97C172.254 86.0633 172.071 86.2 171.917 86.38C171.764 86.5533 171.647 86.7633 171.567 87.01C171.487 87.25 171.447 87.5167 171.447 87.81C171.447 88.15 171.494 88.4433 171.587 88.69C171.681 88.93 171.801 89.1267 171.947 89.28C172.101 89.4333 172.274 89.5467 172.467 89.62C172.661 89.6867 172.857 89.72 173.057 89.72C173.351 89.72 173.617 89.6767 173.857 89.59C174.104 89.5033 174.294 89.4033 174.427 89.29V85.96Z" fill="#393C41"/>
<path d="M178.35 85.64C178.463 85.5533 178.643 85.4633 178.89 85.37C179.143 85.27 179.44 85.22 179.78 85.22C180.153 85.22 180.483 85.2867 180.77 85.42C181.063 85.5533 181.31 85.74 181.51 85.98C181.71 86.22 181.86 86.5067 181.96 86.84C182.066 87.1667 182.12 87.5267 182.12 87.92C182.12 88.34 182.056 88.7167 181.93 89.05C181.81 89.3833 181.636 89.6667 181.41 89.9C181.19 90.1333 180.923 90.3133 180.61 90.44C180.303 90.56 179.96 90.62 179.58 90.62C179.12 90.62 178.74 90.59 178.44 90.53C178.14 90.47 177.893 90.4067 177.7 90.34V82.86L178.35 82.74V85.64ZM178.35 89.89C178.45 89.9233 178.596 89.9567 178.79 89.99C178.99 90.0167 179.25 90.03 179.57 90.03C180.13 90.03 180.58 89.85 180.92 89.49C181.26 89.1233 181.43 88.6 181.43 87.92C181.43 87.6333 181.4 87.3633 181.34 87.11C181.28 86.85 181.183 86.6267 181.05 86.44C180.916 86.2467 180.74 86.0933 180.52 85.98C180.306 85.8667 180.04 85.81 179.72 85.81C179.566 85.81 179.42 85.8267 179.28 85.86C179.14 85.8867 179.01 85.9233 178.89 85.97C178.77 86.0167 178.663 86.0667 178.57 86.12C178.483 86.1733 178.41 86.2233 178.35 86.27V89.89Z" fill="#393C41"/>
<path d="M188.84 87.92C188.84 88.3267 188.78 88.6967 188.66 89.03C188.546 89.3633 188.383 89.6467 188.17 89.88C187.963 90.1133 187.716 90.2967 187.43 90.43C187.143 90.5567 186.826 90.62 186.48 90.62C186.133 90.62 185.816 90.5567 185.53 90.43C185.243 90.2967 184.993 90.1133 184.78 89.88C184.573 89.6467 184.41 89.3633 184.29 89.03C184.176 88.6967 184.12 88.3267 184.12 87.92C184.12 87.5133 184.176 87.1433 184.29 86.81C184.41 86.4767 184.573 86.1933 184.78 85.96C184.993 85.72 185.243 85.5367 185.53 85.41C185.816 85.2767 186.133 85.21 186.48 85.21C186.826 85.21 187.143 85.2767 187.43 85.41C187.716 85.5367 187.963 85.72 188.17 85.96C188.383 86.1933 188.546 86.4767 188.66 86.81C188.78 87.1433 188.84 87.5133 188.84 87.92ZM188.15 87.92C188.15 87.2733 188 86.76 187.7 86.38C187.4 85.9933 186.993 85.8 186.48 85.8C185.966 85.8 185.56 85.9933 185.26 86.38C184.96 86.76 184.81 87.2733 184.81 87.92C184.81 88.5667 184.96 89.08 185.26 89.46C185.56 89.84 185.966 90.03 186.48 90.03C186.993 90.03 187.4 89.84 187.7 89.46C188 89.08 188.15 88.5667 188.15 87.92Z" fill="#393C41"/>
<path d="M195.56 87.92C195.56 88.3267 195.5 88.6967 195.38 89.03C195.267 89.3633 195.103 89.6467 194.89 89.88C194.683 90.1133 194.437 90.2967 194.15 90.43C193.863 90.5567 193.547 90.62 193.2 90.62C192.853 90.62 192.537 90.5567 192.25 90.43C191.963 90.2967 191.713 90.1133 191.5 89.88C191.293 89.6467 191.13 89.3633 191.01 89.03C190.897 88.6967 190.84 88.3267 190.84 87.92C190.84 87.5133 190.897 87.1433 191.01 86.81C191.13 86.4767 191.293 86.1933 191.5 85.96C191.713 85.72 191.963 85.5367 192.25 85.41C192.537 85.2767 192.853 85.21 193.2 85.21C193.547 85.21 193.863 85.2767 194.15 85.41C194.437 85.5367 194.683 85.72 194.89 85.96C195.103 86.1933 195.267 86.4767 195.38 86.81C195.5 87.1433 195.56 87.5133 195.56 87.92ZM194.87 87.92C194.87 87.2733 194.72 86.76 194.42 86.38C194.12 85.9933 193.713 85.8 193.2 85.8C192.687 85.8 192.28 85.9933 191.98 86.38C191.68 86.76 191.53 87.2733 191.53 87.92C191.53 88.5667 191.68 89.08 191.98 89.46C192.28 89.84 192.687 90.03 193.2 90.03C193.713 90.03 194.12 89.84 194.42 89.46C194.72 89.08 194.87 88.5667 194.87 87.92Z" fill="#393C41"/>
<path d="M199.25 87.69C199.457 87.83 199.677 88.01 199.91 88.23C200.15 88.45 200.384 88.69 200.61 88.95C200.844 89.2033 201.06 89.4667 201.26 89.74C201.467 90.0067 201.64 90.26 201.78 90.5H201.01C200.85 90.2333 200.667 89.9733 200.46 89.72C200.26 89.46 200.047 89.2167 199.82 88.99C199.6 88.7633 199.377 88.5567 199.15 88.37C198.93 88.1833 198.72 88.0267 198.52 87.9V90.5H197.87V82.86L198.52 82.74V87.66C198.687 87.5 198.874 87.3167 199.08 87.11C199.287 86.9033 199.494 86.6933 199.7 86.48C199.914 86.2667 200.114 86.06 200.3 85.86C200.487 85.66 200.647 85.4833 200.78 85.33H201.56C201.407 85.49 201.234 85.67 201.04 85.87C200.847 86.07 200.644 86.28 200.43 86.5C200.224 86.7133 200.017 86.9233 199.81 87.13C199.604 87.3367 199.417 87.5233 199.25 87.69Z" fill="#393C41"/>
</svg>
