<svg width="354" height="43" viewBox="0 0 354 43" fill="none" xmlns="http://www.w3.org/2000/svg">
<path d="M1.55317 26.2127L5.5 42H350.5L352.726 25.6756C353.135 22.6734 350.802 20 347.772 20L170.589 20C168.696 20 166.965 18.9307 166.118 17.2376L159.124 3.26241C158.277 1.56933 156.546 0.500006 154.653 0.500006L81.0166 0.5C79.0276 0.5 77.2278 1.67883 76.4331 3.50208L70.5503 16.9979C69.7555 18.8212 67.9557 20 65.9668 20L6.40388 20C3.15103 20 0.764237 23.057 1.55317 26.2127Z" fill="#F1F2F6" stroke="#393C41"/>
<path d="M83.0799 8.86C82.7439 9.932 82.4039 10.924 82.0599 11.836C81.7159 12.748 81.3719 13.636 81.0279 14.5H79.8639C79.4399 13.276 79.0639 11.984 78.7359 10.624C78.4159 9.264 78.1159 7.784 77.8359 6.184H79.0599C79.1719 6.808 79.2879 7.432 79.4079 8.056C79.5279 8.68 79.6519 9.288 79.7799 9.88C79.9079 10.464 80.0359 11.024 80.1639 11.56C80.2919 12.096 80.4239 12.592 80.5599 13.048C80.8799 12.208 81.2199 11.288 81.5799 10.288C81.9399 9.28 82.2759 8.24 82.5879 7.168H83.5959C83.9079 8.24 84.2479 9.28 84.6159 10.288C84.9839 11.288 85.3279 12.208 85.6479 13.048C85.7759 12.6 85.9039 12.108 86.0319 11.572C86.1599 11.036 86.2839 10.476 86.4039 9.892C86.5319 9.3 86.6559 8.692 86.7759 8.068C86.8959 7.436 87.0119 6.808 87.1239 6.184H88.3119C88.0239 7.784 87.7159 9.264 87.3879 10.624C87.0679 11.984 86.6999 13.276 86.2839 14.5H85.1199C84.7679 13.636 84.4239 12.748 84.0879 11.836C83.7519 10.924 83.4159 9.932 83.0799 8.86Z" fill="#393C41"/>
<path d="M117.5 14V4H117.7C117.59 4 117.5 4.09 117.5 4.2C117.5 4.31 117.59 4.41 117.7 4.41C117.81 4.41 117.91 4.31 117.91 4.2C117.91 4.09 117.81 4 117.7 4H118.53C118.42 4 118.33 4.09 118.33 4.2C118.33 4.31 118.42 4.41 118.53 4.41C118.64 4.41 118.74 4.31 118.74 4.2C118.74 4.09 118.64 4 118.53 4H119.37C119.26 4 119.17 4.09 119.17 4.2C119.17 4.31 119.26 4.41 119.37 4.41C119.48 4.41 119.58 4.31 119.58 4.2C119.58 4.09 119.48 4 119.37 4H120.21C120.1 4 120.01 4.09 120.01 4.2C120.01 4.31 120.1 4.41 120.21 4.41C120.32 4.41 120.41 4.31 120.41 4.2C120.41 4.09 120.32 4 120.21 4H121.05C120.92 4 120.82 4.09 120.82 4.2C120.82 4.31 120.92 4.41 121.05 4.41C121.15 4.41 121.24 4.31 121.24 4.2C121.24 4.09 121.15 4 121.05 4H121.86C121.75 4 121.65 4.09 121.65 4.2C121.65 4.31 121.75 4.41 121.86 4.41C121.97 4.41 122.08 4.31 122.08 4.2C122.08 4.09 121.97 4 121.86 4H122.7C122.58 4 122.49 4.09 122.49 4.2C122.49 4.31 122.58 4.41 122.7 4.41C122.81 4.41 122.9 4.31 122.9 4.2C122.9 4.09 122.81 4 122.7 4H123.54C123.42 4 123.33 4.09 123.33 4.2C123.33 4.31 123.42 4.41 123.54 4.41C123.65 4.41 123.74 4.31 123.74 4.2C123.74 4.09 123.65 4 123.54 4H124.37C124.25 4 124.16 4.09 124.16 4.2C124.16 4.31 124.25 4.41 124.37 4.41C124.48 4.41 124.57 4.31 124.57 4.2C124.57 4.09 124.48 4 124.37 4H125.21C125.09 4 124.98 4.09 124.98 4.2C124.98 4.31 125.09 4.41 125.21 4.41C125.32 4.41 125.41 4.31 125.41 4.2C125.41 4.09 125.32 4 125.21 4H126.03C125.91 4 125.82 4.09 125.82 4.2C125.82 4.31 125.91 4.41 126.03 4.41C126.16 4.41 126.25 4.31 126.25 4.2C126.25 4.09 126.16 4 126.03 4H126.85C126.75 4 126.66 4.09 126.66 4.2C126.66 4.31 126.75 4.41 126.85 4.41C126.97 4.41 127.08 4.31 127.08 4.2C127.08 4.09 126.97 4 126.85 4H127.5V14H117.5ZM124.78 5.19C124.89 5.19 124.98 5.1 124.98 4.99C124.98 4.88 124.89 4.78 124.78 4.78C124.66 4.78 124.57 4.88 124.57 4.99C124.57 5.1 124.66 5.19 124.78 5.19ZM123.13 5.19C123.24 5.19 123.33 5.1 123.33 4.99C123.33 4.88 123.24 4.78 123.13 4.78C122.99 4.78 122.9 4.88 122.9 4.99C122.9 5.1 122.99 5.19 123.13 5.19ZM123.94 5.19C124.07 5.19 124.16 5.1 124.16 4.99C124.16 4.88 124.07 4.78 123.94 4.78C123.83 4.78 123.74 4.88 123.74 4.99C123.74 5.1 123.83 5.19 123.94 5.19ZM118.13 5.19C118.23 5.19 118.33 5.1 118.33 4.99C118.33 4.88 118.23 4.78 118.13 4.78C118.02 4.78 117.91 4.88 117.91 4.99C117.91 5.1 118.02 5.19 118.13 5.19ZM118.95 5.19C119.07 5.19 119.17 5.1 119.17 4.99C119.17 4.88 119.07 4.78 118.95 4.78C118.83 4.78 118.74 4.88 118.74 4.99C118.74 5.1 118.83 5.19 118.95 5.19ZM119.78 5.19C119.89 5.19 120.01 5.1 120.01 4.99C120.01 4.88 119.89 4.78 119.78 4.78C119.67 4.78 119.58 4.88 119.58 4.99C119.58 5.1 119.67 5.19 119.78 5.19ZM120.62 5.19C120.73 5.19 120.82 5.1 120.82 4.99C120.82 4.88 120.73 4.78 120.62 4.78C120.51 4.78 120.41 4.88 120.41 4.99C120.41 5.1 120.51 5.19 120.62 5.19ZM121.45 5.19C121.56 5.19 121.65 5.1 121.65 4.99C121.65 4.88 121.56 4.78 121.45 4.78C121.34 4.78 121.24 4.88 121.24 4.99C121.24 5.1 121.34 5.19 121.45 5.19ZM122.29 5.19C122.4 5.19 122.49 5.1 122.49 4.99C122.49 4.88 122.4 4.78 122.29 4.78C122.18 4.78 122.08 4.88 122.08 4.99C122.08 5.1 122.18 5.19 122.29 5.19ZM125.61 5.19C125.73 5.19 125.82 5.1 125.82 4.99C125.82 4.88 125.73 4.78 125.61 4.78C125.5 4.78 125.41 4.88 125.41 4.99C125.41 5.1 125.5 5.19 125.61 5.19ZM126.45 5.19C126.57 5.19 126.66 5.1 126.66 4.99C126.66 4.88 126.57 4.78 126.45 4.78C126.34 4.78 126.25 4.88 126.25 4.99C126.25 5.1 126.34 5.19 126.45 5.19ZM127.29 5.19C127.41 5.19 127.5 5.1 127.5 4.99C127.5 4.88 127.41 4.78 127.29 4.78C127.18 4.78 127.09 4.88 127.09 4.99C127.09 5.1 127.18 5.19 127.29 5.19ZM125.21 5.99C125.32 5.99 125.41 5.9 125.41 5.79C125.41 5.68 125.32 5.58 125.21 5.58C125.09 5.58 124.98 5.68 124.98 5.79C124.98 5.9 125.09 5.99 125.21 5.99ZM119.37 5.99C119.48 5.99 119.58 5.9 119.58 5.79C119.58 5.68 119.48 5.58 119.37 5.58C119.26 5.58 119.17 5.68 119.17 5.79C119.17 5.9 119.26 5.99 119.37 5.99ZM122.7 5.99C122.81 5.99 122.9 5.9 122.9 5.79C122.9 5.68 122.81 5.58 122.7 5.58C122.58 5.58 122.49 5.68 122.49 5.79C122.49 5.9 122.58 5.99 122.7 5.99ZM126.03 5.99C126.16 5.99 126.25 5.9 126.25 5.79C126.25 5.68 126.16 5.58 126.03 5.58C125.91 5.58 125.82 5.68 125.82 5.79C125.82 5.9 125.91 5.99 126.03 5.99ZM121.86 5.99C121.97 5.99 122.08 5.9 122.08 5.79C122.08 5.68 121.97 5.58 121.86 5.58C121.75 5.58 121.65 5.68 121.65 5.79C121.65 5.9 121.75 5.99 121.86 5.99ZM120.21 5.99C120.32 5.99 120.41 5.9 120.41 5.79C120.41 5.68 120.32 5.58 120.21 5.58C120.1 5.58 120.01 5.68 120.01 5.79C120.01 5.9 120.1 5.99 120.21 5.99ZM123.54 5.99C123.65 5.99 123.74 5.9 123.74 5.79C123.74 5.68 123.65 5.58 123.54 5.58C123.42 5.58 123.33 5.68 123.33 5.79C123.33 5.9 123.42 5.99 123.54 5.99ZM117.7 5.99C117.81 5.99 117.91 5.9 117.91 5.79C117.91 5.68 117.81 5.58 117.7 5.58C117.59 5.58 117.5 5.68 117.5 5.79C117.5 5.9 117.59 5.99 117.7 5.99ZM124.37 5.99C124.48 5.99 124.57 5.9 124.57 5.79C124.57 5.68 124.48 5.58 124.37 5.58C124.25 5.58 124.16 5.68 124.16 5.79C124.16 5.9 124.25 5.99 124.37 5.99ZM121.05 5.99C121.15 5.99 121.24 5.9 121.24 5.79C121.24 5.68 121.15 5.58 121.05 5.58C120.92 5.58 120.82 5.68 120.82 5.79C120.82 5.9 120.92 5.99 121.05 5.99ZM118.53 5.99C118.64 5.99 118.74 5.9 118.74 5.79C118.74 5.68 118.64 5.58 118.53 5.58C118.42 5.58 118.33 5.68 118.33 5.79C118.33 5.9 118.42 5.99 118.53 5.99ZM126.85 5.99C126.97 5.99 127.08 5.9 127.08 5.79C127.08 5.68 126.97 5.58 126.85 5.58C126.75 5.58 126.66 5.68 126.66 5.79C126.66 5.9 126.75 5.99 126.85 5.99ZM121.45 6.79C121.56 6.79 121.65 6.7 121.65 6.59C121.65 6.46 121.56 6.36 121.45 6.36C121.34 6.36 121.24 6.46 121.24 6.59C121.24 6.7 121.34 6.79 121.45 6.79ZM123.13 6.79C123.24 6.79 123.33 6.7 123.33 6.59C123.33 6.46 123.24 6.36 123.13 6.36C122.99 6.36 122.9 6.46 122.9 6.59C122.9 6.7 122.99 6.79 123.13 6.79ZM119.78 6.79C119.89 6.79 120.01 6.7 120.01 6.59C120.01 6.46 119.89 6.36 119.78 6.36C119.67 6.36 119.58 6.46 119.58 6.59C119.58 6.7 119.67 6.79 119.78 6.79ZM118.13 6.79C118.23 6.79 118.33 6.7 118.33 6.59C118.33 6.46 118.23 6.36 118.13 6.36C118.02 6.36 117.91 6.46 117.91 6.59C117.91 6.7 118.02 6.79 118.13 6.79ZM118.95 6.79C119.07 6.79 119.17 6.7 119.17 6.59C119.17 6.46 119.07 6.36 118.95 6.36C118.83 6.36 118.74 6.46 118.74 6.59C118.74 6.7 118.83 6.79 118.95 6.79ZM125.61 6.79C125.73 6.79 125.82 6.7 125.82 6.59C125.82 6.46 125.73 6.36 125.61 6.36C125.5 6.36 125.41 6.46 125.41 6.59C125.41 6.7 125.5 6.79 125.61 6.79ZM127.29 6.79C127.41 6.79 127.5 6.7 127.5 6.59C127.5 6.46 127.41 6.36 127.29 6.36C127.18 6.36 127.09 6.46 127.09 6.59C127.09 6.7 127.18 6.79 127.29 6.79ZM122.29 6.79C122.4 6.79 122.49 6.7 122.49 6.59C122.49 6.46 122.4 6.36 122.29 6.36C122.18 6.36 122.08 6.46 122.08 6.59C122.08 6.7 122.18 6.79 122.29 6.79ZM126.45 6.79C126.57 6.79 126.66 6.7 126.66 6.59C126.66 6.46 126.57 6.36 126.45 6.36C126.34 6.36 126.25 6.46 126.25 6.59C126.25 6.7 126.34 6.79 126.45 6.79ZM123.94 6.79C124.07 6.79 124.16 6.7 124.16 6.59C124.16 6.46 124.07 6.36 123.94 6.36C123.83 6.36 123.74 6.46 123.74 6.59C123.74 6.7 123.83 6.79 123.94 6.79ZM120.62 6.79C120.73 6.79 120.82 6.7 120.82 6.59C120.82 6.46 120.73 6.36 120.62 6.36C120.51 6.36 120.41 6.46 120.41 6.59C120.41 6.7 120.51 6.79 120.62 6.79ZM124.78 6.79C124.89 6.79 124.98 6.7 124.98 6.59C124.98 6.46 124.89 6.36 124.78 6.36C124.66 6.36 124.57 6.46 124.57 6.59C124.57 6.7 124.66 6.79 124.78 6.79ZM124.37 7.59C124.48 7.59 124.57 7.51 124.57 7.37C124.57 7.26 124.48 7.17 124.37 7.17C124.25 7.17 124.16 7.26 124.16 7.37C124.16 7.51 124.25 7.59 124.37 7.59ZM120.21 7.59C120.32 7.59 120.41 7.51 120.41 7.37C120.41 7.26 120.32 7.17 120.21 7.17C120.1 7.17 120.01 7.26 120.01 7.37C120.01 7.51 120.1 7.59 120.21 7.59ZM125.21 7.59C125.32 7.59 125.41 7.51 125.41 7.37C125.41 7.26 125.32 7.17 125.21 7.17C125.09 7.17 124.98 7.26 124.98 7.37C124.98 7.51 125.09 7.59 125.21 7.59ZM126.85 7.59C126.97 7.59 127.08 7.51 127.08 7.37C127.08 7.26 126.97 7.17 126.85 7.17C126.75 7.17 126.66 7.26 126.66 7.37C126.66 7.51 126.75 7.59 126.85 7.59ZM123.54 7.59C123.65 7.59 123.74 7.51 123.74 7.37C123.74 7.26 123.65 7.17 123.54 7.17C123.42 7.17 123.33 7.26 123.33 7.37C123.33 7.51 123.42 7.59 123.54 7.59ZM119.37 7.59C119.48 7.59 119.58 7.51 119.58 7.37C119.58 7.26 119.48 7.17 119.37 7.17C119.26 7.17 119.17 7.26 119.17 7.37C119.17 7.51 119.26 7.59 119.37 7.59ZM121.86 7.59C121.97 7.59 122.08 7.51 122.08 7.37C122.08 7.26 121.97 7.17 121.86 7.17C121.75 7.17 121.65 7.26 121.65 7.37C121.65 7.51 121.75 7.59 121.86 7.59ZM126.03 7.59C126.16 7.59 126.25 7.51 126.25 7.37C126.25 7.26 126.16 7.17 126.03 7.17C125.91 7.17 125.82 7.26 125.82 7.37C125.82 7.51 125.91 7.59 126.03 7.59ZM122.7 7.59C122.81 7.59 122.9 7.51 122.9 7.37C122.9 7.26 122.81 7.17 122.7 7.17C122.58 7.17 122.49 7.26 122.49 7.37C122.49 7.51 122.58 7.59 122.7 7.59ZM117.7 7.59C117.81 7.59 117.91 7.51 117.91 7.37C117.91 7.26 117.81 7.17 117.7 7.17C117.59 7.17 117.5 7.26 117.5 7.37C117.5 7.51 117.59 7.59 117.7 7.59ZM118.53 7.59C118.64 7.59 118.74 7.51 118.74 7.37C118.74 7.26 118.64 7.17 118.53 7.17C118.42 7.17 118.33 7.26 118.33 7.37C118.33 7.51 118.42 7.59 118.53 7.59ZM121.05 7.59C121.15 7.59 121.24 7.51 121.24 7.37C121.24 7.26 121.15 7.17 121.05 7.17C120.92 7.17 120.82 7.26 120.82 7.37C120.82 7.51 120.92 7.59 121.05 7.59ZM126.45 8.38C126.57 8.38 126.66 8.29 126.66 8.17C126.66 8.06 126.57 7.97 126.45 7.97C126.34 7.97 126.25 8.06 126.25 8.17C126.25 8.29 126.34 8.38 126.45 8.38ZM121.45 8.38C121.56 8.38 121.65 8.29 121.65 8.17C121.65 8.06 121.56 7.97 121.45 7.97C121.34 7.97 121.24 8.06 121.24 8.17C121.24 8.29 121.34 8.38 121.45 8.38ZM122.29 8.38C122.4 8.38 122.49 8.29 122.49 8.17C122.49 8.06 122.4 7.97 122.29 7.97C122.18 7.97 122.08 8.06 122.08 8.17C122.08 8.29 122.18 8.38 122.29 8.38ZM123.94 8.38C124.07 8.38 124.16 8.29 124.16 8.17C124.16 8.06 124.07 7.97 123.94 7.97C123.83 7.97 123.74 8.06 123.74 8.17C123.74 8.29 123.83 8.38 123.94 8.38ZM123.13 8.38C123.24 8.38 123.33 8.29 123.33 8.17C123.33 8.06 123.24 7.97 123.13 7.97C122.99 7.97 122.9 8.06 122.9 8.17C122.9 8.29 122.99 8.38 123.13 8.38ZM120.62 8.38C120.73 8.38 120.82 8.29 120.82 8.17C120.82 8.06 120.73 7.97 120.62 7.97C120.51 7.97 120.41 8.06 120.41 8.17C120.41 8.29 120.51 8.38 120.62 8.38ZM125.61 8.38C125.73 8.38 125.82 8.29 125.82 8.17C125.82 8.06 125.73 7.97 125.61 7.97C125.5 7.97 125.41 8.06 125.41 8.17C125.41 8.29 125.5 8.38 125.61 8.38ZM124.78 8.38C124.89 8.38 124.98 8.29 124.98 8.17C124.98 8.06 124.89 7.97 124.78 7.97C124.66 7.97 124.57 8.06 124.57 8.17C124.57 8.29 124.66 8.38 124.78 8.38ZM127.29 8.38C127.41 8.38 127.5 8.29 127.5 8.17C127.5 8.06 127.41 7.97 127.29 7.97C127.18 7.97 127.09 8.06 127.09 8.17C127.09 8.29 127.18 8.38 127.29 8.38ZM119.78 8.38C119.89 8.38 120.01 8.29 120.01 8.17C120.01 8.06 119.89 7.97 119.78 7.97C119.67 7.97 119.58 8.06 119.58 8.17C119.58 8.29 119.67 8.38 119.78 8.38ZM118.95 8.38C119.07 8.38 119.17 8.29 119.17 8.17C119.17 8.06 119.07 7.97 118.95 7.97C118.83 7.97 118.74 8.06 118.74 8.17C118.74 8.29 118.83 8.38 118.95 8.38ZM118.13 8.38C118.23 8.38 118.33 8.29 118.33 8.17C118.33 8.06 118.23 7.97 118.13 7.97C118.02 7.97 117.91 8.06 117.91 8.17C117.91 8.29 118.02 8.38 118.13 8.38ZM118.53 9.19C118.64 9.19 118.74 9.09 118.74 8.98C118.74 8.87 118.64 8.78 118.53 8.78C118.42 8.78 118.33 8.87 118.33 8.98C118.33 9.09 118.42 9.19 118.53 9.19ZM124.37 9.19C124.48 9.19 124.57 9.09 124.57 8.98C124.57 8.87 124.48 8.78 124.37 8.78C124.25 8.78 124.16 8.87 124.16 8.98C124.16 9.09 124.25 9.19 124.37 9.19ZM119.37 9.19C119.48 9.19 119.58 9.09 119.58 8.98C119.58 8.87 119.48 8.78 119.37 8.78C119.26 8.78 119.17 8.87 119.17 8.98C119.17 9.09 119.26 9.19 119.37 9.19ZM126.03 9.19C126.16 9.19 126.25 9.09 126.25 8.98C126.25 8.87 126.16 8.78 126.03 8.78C125.91 8.78 125.82 8.87 125.82 8.98C125.82 9.09 125.91 9.19 126.03 9.19ZM122.7 9.19C122.81 9.19 122.9 9.09 122.9 8.98C122.9 8.87 122.81 8.78 122.7 8.78C122.58 8.78 122.49 8.87 122.49 8.98C122.49 9.09 122.58 9.19 122.7 9.19ZM120.21 9.19C120.32 9.19 120.41 9.09 120.41 8.98C120.41 8.87 120.32 8.78 120.21 8.78C120.1 8.78 120.01 8.87 120.01 8.98C120.01 9.09 120.1 9.19 120.21 9.19ZM123.54 9.19C123.65 9.19 123.74 9.09 123.74 8.98C123.74 8.87 123.65 8.78 123.54 8.78C123.42 8.78 123.33 8.87 123.33 8.98C123.33 9.09 123.42 9.19 123.54 9.19ZM126.85 9.19C126.97 9.19 127.08 9.09 127.08 8.98C127.08 8.87 126.97 8.78 126.85 8.78C126.75 8.78 126.66 8.87 126.66 8.98C126.66 9.09 126.75 9.19 126.85 9.19ZM121.05 9.19C121.15 9.19 121.24 9.09 121.24 8.98C121.24 8.87 121.15 8.78 121.05 8.78C120.92 8.78 120.82 8.87 120.82 8.98C120.82 9.09 120.92 9.19 121.05 9.19ZM125.21 9.19C125.32 9.19 125.41 9.09 125.41 8.98C125.41 8.87 125.32 8.78 125.21 8.78C125.09 8.78 124.98 8.87 124.98 8.98C124.98 9.09 125.09 9.19 125.21 9.19ZM121.86 9.19C121.97 9.19 122.08 9.09 122.08 8.98C122.08 8.87 121.97 8.78 121.86 8.78C121.75 8.78 121.65 8.87 121.65 8.98C121.65 9.09 121.75 9.19 121.86 9.19ZM117.7 9.19C117.81 9.19 117.91 9.09 117.91 8.98C117.91 8.87 117.81 8.78 117.7 8.78C117.59 8.78 117.5 8.87 117.5 8.98C117.5 9.09 117.59 9.19 117.7 9.19ZM122.29 10C122.4 10 122.49 9.9 122.49 9.79C122.49 9.68 122.4 9.59 122.29 9.59C122.18 9.59 122.08 9.68 122.08 9.79C122.08 9.9 122.18 10 122.29 10ZM118.95 10C119.07 10 119.17 9.9 119.17 9.79C119.17 9.68 119.07 9.59 118.95 9.59C118.83 9.59 118.74 9.68 118.74 9.79C118.74 9.9 118.83 10 118.95 10ZM124.78 10C124.89 10 124.98 9.9 124.98 9.79C124.98 9.68 124.89 9.59 124.78 9.59C124.66 9.59 124.57 9.68 124.57 9.79C124.57 9.9 124.66 10 124.78 10ZM119.78 10C119.89 10 120.01 9.9 120.01 9.79C120.01 9.68 119.89 9.59 119.78 9.59C119.67 9.59 119.58 9.68 119.58 9.79C119.58 9.9 119.67 10 119.78 10ZM127.29 10C127.41 10 127.5 9.9 127.5 9.79C127.5 9.68 127.41 9.59 127.29 9.59C127.18 9.59 127.09 9.68 127.09 9.79C127.09 9.9 127.18 10 127.29 10ZM123.94 10C124.07 10 124.16 9.9 124.16 9.79C124.16 9.68 124.07 9.59 123.94 9.59C123.83 9.59 123.74 9.68 123.74 9.79C123.74 9.9 123.83 10 123.94 10ZM120.62 10C120.73 10 120.82 9.9 120.82 9.79C120.82 9.68 120.73 9.59 120.62 9.59C120.51 9.59 120.41 9.68 120.41 9.79C120.41 9.9 120.51 10 120.62 10ZM118.13 10C118.23 10 118.33 9.9 118.33 9.79C118.33 9.68 118.23 9.59 118.13 9.59C118.02 9.59 117.91 9.68 117.91 9.79C117.91 9.9 118.02 10 118.13 10ZM125.61 10C125.73 10 125.82 9.9 125.82 9.79C125.82 9.68 125.73 9.59 125.61 9.59C125.5 9.59 125.41 9.68 125.41 9.79C125.41 9.9 125.5 10 125.61 10ZM123.13 10C123.24 10 123.33 9.9 123.33 9.79C123.33 9.68 123.24 9.59 123.13 9.59C122.99 9.59 122.9 9.68 122.9 9.79C122.9 9.9 122.99 10 123.13 10ZM121.45 10C121.56 10 121.65 9.9 121.65 9.79C121.65 9.68 121.56 9.59 121.45 9.59C121.34 9.59 121.24 9.68 121.24 9.79C121.24 9.9 121.34 10 121.45 10ZM126.45 10C126.57 10 126.66 9.9 126.66 9.79C126.66 9.68 126.57 9.59 126.45 9.59C126.34 9.59 126.25 9.68 126.25 9.79C126.25 9.9 126.34 10 126.45 10ZM126.03 10.79C126.16 10.79 126.25 10.7 126.25 10.59C126.25 10.46 126.16 10.37 126.03 10.37C125.91 10.37 125.82 10.46 125.82 10.59C125.82 10.7 125.91 10.79 126.03 10.79ZM126.85 10.79C126.97 10.79 127.08 10.7 127.08 10.59C127.08 10.46 126.97 10.37 126.85 10.37C126.75 10.37 126.66 10.46 126.66 10.59C126.66 10.7 126.75 10.79 126.85 10.79ZM119.37 10.79C119.48 10.79 119.58 10.7 119.58 10.59C119.58 10.46 119.48 10.37 119.37 10.37C119.26 10.37 119.17 10.46 119.17 10.59C119.17 10.7 119.26 10.79 119.37 10.79ZM117.7 10.79C117.81 10.79 117.91 10.7 117.91 10.59C117.91 10.46 117.81 10.37 117.7 10.37C117.59 10.37 117.5 10.46 117.5 10.59C117.5 10.7 117.59 10.79 117.7 10.79ZM125.21 10.79C125.32 10.79 125.41 10.7 125.41 10.59C125.41 10.46 125.32 10.37 125.21 10.37C125.09 10.37 124.98 10.46 124.98 10.59C124.98 10.7 125.09 10.79 125.21 10.79ZM120.21 10.79C120.32 10.79 120.41 10.7 120.41 10.59C120.41 10.46 120.32 10.37 120.21 10.37C120.1 10.37 120.01 10.46 120.01 10.59C120.01 10.7 120.1 10.79 120.21 10.79ZM121.05 10.79C121.15 10.79 121.24 10.7 121.24 10.59C121.24 10.46 121.15 10.37 121.05 10.37C120.92 10.37 120.82 10.46 120.82 10.59C120.82 10.7 120.92 10.79 121.05 10.79ZM124.37 10.79C124.48 10.79 124.57 10.7 124.57 10.59C124.57 10.46 124.48 10.37 124.37 10.37C124.25 10.37 124.16 10.46 124.16 10.59C124.16 10.7 124.25 10.79 124.37 10.79ZM121.86 10.79C121.97 10.79 122.08 10.7 122.08 10.59C122.08 10.46 121.97 10.37 121.86 10.37C121.75 10.37 121.65 10.46 121.65 10.59C121.65 10.7 121.75 10.79 121.86 10.79ZM122.7 10.79C122.81 10.79 122.9 10.7 122.9 10.59C122.9 10.46 122.81 10.37 122.7 10.37C122.58 10.37 122.49 10.46 122.49 10.59C122.49 10.7 122.58 10.79 122.7 10.79ZM118.53 10.79C118.64 10.79 118.74 10.7 118.74 10.59C118.74 10.46 118.64 10.37 118.53 10.37C118.42 10.37 118.33 10.46 118.33 10.59C118.33 10.7 118.42 10.79 118.53 10.79ZM123.54 10.79C123.65 10.79 123.74 10.7 123.74 10.59C123.74 10.46 123.65 10.37 123.54 10.37C123.42 10.37 123.33 10.46 123.33 10.59C123.33 10.7 123.42 10.79 123.54 10.79ZM126.45 11.6C126.57 11.6 126.66 11.49 126.66 11.38C126.66 11.26 126.57 11.17 126.45 11.17C126.34 11.17 126.25 11.26 126.25 11.38C126.25 11.49 126.34 11.6 126.45 11.6ZM120.62 11.6C120.73 11.6 120.82 11.49 120.82 11.38C120.82 11.26 120.73 11.17 120.62 11.17C120.51 11.17 120.41 11.26 120.41 11.38C120.41 11.49 120.51 11.6 120.62 11.6ZM121.45 11.6C121.56 11.6 121.65 11.49 121.65 11.38C121.65 11.26 121.56 11.17 121.45 11.17C121.34 11.17 121.24 11.26 121.24 11.38C121.24 11.49 121.34 11.6 121.45 11.6ZM119.78 11.6C119.89 11.6 120.01 11.49 120.01 11.38C120.01 11.26 119.89 11.17 119.78 11.17C119.67 11.17 119.58 11.26 119.58 11.38C119.58 11.49 119.67 11.6 119.78 11.6ZM122.29 11.6C122.4 11.6 122.49 11.49 122.49 11.38C122.49 11.26 122.4 11.17 122.29 11.17C122.18 11.17 122.08 11.26 122.08 11.38C122.08 11.49 122.18 11.6 122.29 11.6ZM123.13 11.6C123.24 11.6 123.33 11.49 123.33 11.38C123.33 11.26 123.24 11.17 123.13 11.17C122.99 11.17 122.9 11.26 122.9 11.38C122.9 11.49 122.99 11.6 123.13 11.6ZM123.94 11.6C124.07 11.6 124.16 11.49 124.16 11.38C124.16 11.26 124.07 11.17 123.94 11.17C123.83 11.17 123.74 11.26 123.74 11.38C123.74 11.49 123.83 11.6 123.94 11.6ZM127.29 11.6C127.41 11.6 127.5 11.49 127.5 11.38C127.5 11.26 127.41 11.17 127.29 11.17C127.18 11.17 127.09 11.26 127.09 11.38C127.09 11.49 127.18 11.6 127.29 11.6ZM124.78 11.6C124.89 11.6 124.98 11.49 124.98 11.38C124.98 11.26 124.89 11.17 124.78 11.17C124.66 11.17 124.57 11.26 124.57 11.38C124.57 11.49 124.66 11.6 124.78 11.6ZM118.95 11.6C119.07 11.6 119.17 11.49 119.17 11.38C119.17 11.26 119.07 11.17 118.95 11.17C118.83 11.17 118.74 11.26 118.74 11.38C118.74 11.49 118.83 11.6 118.95 11.6ZM125.61 11.6C125.73 11.6 125.82 11.49 125.82 11.38C125.82 11.26 125.73 11.17 125.61 11.17C125.5 11.17 125.41 11.26 125.41 11.38C125.41 11.49 125.5 11.6 125.61 11.6ZM118.13 11.6C118.23 11.6 118.33 11.49 118.33 11.38C118.33 11.26 118.23 11.17 118.13 11.17C118.02 11.17 117.91 11.26 117.91 11.38C117.91 11.49 118.02 11.6 118.13 11.6ZM125.21 12.39C125.32 12.39 125.41 12.3 125.41 12.19C125.41 12.07 125.32 11.98 125.21 11.98C125.09 11.98 124.98 12.07 124.98 12.19C124.98 12.3 125.09 12.39 125.21 12.39ZM121.05 12.39C121.15 12.39 121.24 12.3 121.24 12.19C121.24 12.07 121.15 11.98 121.05 11.98C120.92 11.98 120.82 12.07 120.82 12.19C120.82 12.3 120.92 12.39 121.05 12.39ZM126.85 12.39C126.97 12.39 127.08 12.3 127.08 12.19C127.08 12.07 126.97 11.98 126.85 11.98C126.75 11.98 126.66 12.07 126.66 12.19C126.66 12.3 126.75 12.39 126.85 12.39ZM119.37 12.39C119.48 12.39 119.58 12.3 119.58 12.19C119.58 12.07 119.48 11.98 119.37 11.98C119.26 11.98 119.17 12.07 119.17 12.19C119.17 12.3 119.26 12.39 119.37 12.39ZM121.86 12.39C121.97 12.39 122.08 12.3 122.08 12.19C122.08 12.07 121.97 11.98 121.86 11.98C121.75 11.98 121.65 12.07 121.65 12.19C121.65 12.3 121.75 12.39 121.86 12.39ZM126.03 12.39C126.16 12.39 126.25 12.3 126.25 12.19C126.25 12.07 126.16 11.98 126.03 11.98C125.91 11.98 125.82 12.07 125.82 12.19C125.82 12.3 125.91 12.39 126.03 12.39ZM117.7 12.39C117.81 12.39 117.91 12.3 117.91 12.19C117.91 12.07 117.81 11.98 117.7 11.98C117.59 11.98 117.5 12.07 117.5 12.19C117.5 12.3 117.59 12.39 117.7 12.39ZM122.7 12.39C122.81 12.39 122.9 12.3 122.9 12.19C122.9 12.07 122.81 11.98 122.7 11.98C122.58 11.98 122.49 12.07 122.49 12.19C122.49 12.3 122.58 12.39 122.7 12.39ZM123.54 12.39C123.65 12.39 123.74 12.3 123.74 12.19C123.74 12.07 123.65 11.98 123.54 11.98C123.42 11.98 123.33 12.07 123.33 12.19C123.33 12.3 123.42 12.39 123.54 12.39ZM118.53 12.39C118.64 12.39 118.74 12.3 118.74 12.19C118.74 12.07 118.64 11.98 118.53 11.98C118.42 11.98 118.33 12.07 118.33 12.19C118.33 12.3 118.42 12.39 118.53 12.39ZM124.37 12.39C124.48 12.39 124.57 12.3 124.57 12.19C124.57 12.07 124.48 11.98 124.37 11.98C124.25 11.98 124.16 12.07 124.16 12.19C124.16 12.3 124.25 12.39 124.37 12.39ZM120.21 12.39C120.32 12.39 120.41 12.3 120.41 12.19C120.41 12.07 120.32 11.98 120.21 11.98C120.1 11.98 120.01 12.07 120.01 12.19C120.01 12.3 120.1 12.39 120.21 12.39ZM126.45 13.2C126.57 13.2 126.66 13.11 126.66 12.99C126.66 12.88 126.57 12.79 126.45 12.79C126.34 12.79 126.25 12.88 126.25 12.99C126.25 13.11 126.34 13.2 126.45 13.2ZM125.61 13.2C125.73 13.2 125.82 13.11 125.82 12.99C125.82 12.88 125.73 12.79 125.61 12.79C125.5 12.79 125.41 12.88 125.41 12.99C125.41 13.11 125.5 13.2 125.61 13.2ZM124.78 13.2C124.89 13.2 124.98 13.11 124.98 12.99C124.98 12.88 124.89 12.79 124.78 12.79C124.66 12.79 124.57 12.88 124.57 12.99C124.57 13.11 124.66 13.2 124.78 13.2ZM118.13 13.2C118.23 13.2 118.33 13.11 118.33 12.99C118.33 12.88 118.23 12.79 118.13 12.79C118.02 12.79 117.91 12.88 117.91 12.99C117.91 13.11 118.02 13.2 118.13 13.2ZM123.94 13.2C124.07 13.2 124.16 13.11 124.16 12.99C124.16 12.88 124.07 12.79 123.94 12.79C123.83 12.79 123.74 12.88 123.74 12.99C123.74 13.11 123.83 13.2 123.94 13.2ZM123.13 13.2C123.24 13.2 123.33 13.11 123.33 12.99C123.33 12.88 123.24 12.79 123.13 12.79C122.99 12.79 122.9 12.88 122.9 12.99C122.9 13.11 122.99 13.2 123.13 13.2ZM118.95 13.2C119.07 13.2 119.17 13.11 119.17 12.99C119.17 12.88 119.07 12.79 118.95 12.79C118.83 12.79 118.74 12.88 118.74 12.99C118.74 13.11 118.83 13.2 118.95 13.2ZM122.29 13.2C122.4 13.2 122.49 13.11 122.49 12.99C122.49 12.88 122.4 12.79 122.29 12.79C122.18 12.79 122.08 12.88 122.08 12.99C122.08 13.11 122.18 13.2 122.29 13.2ZM127.29 13.2C127.41 13.2 127.5 13.11 127.5 12.99C127.5 12.88 127.41 12.79 127.29 12.79C127.18 12.79 127.09 12.88 127.09 12.99C127.09 13.11 127.18 13.2 127.29 13.2ZM121.45 13.2C121.56 13.2 121.65 13.11 121.65 12.99C121.65 12.88 121.56 12.79 121.45 12.79C121.34 12.79 121.24 12.88 121.24 12.99C121.24 13.11 121.34 13.2 121.45 13.2ZM120.62 13.2C120.73 13.2 120.82 13.11 120.82 12.99C120.82 12.88 120.73 12.79 120.62 12.79C120.51 12.79 120.41 12.88 120.41 12.99C120.41 13.11 120.51 13.2 120.62 13.2ZM119.78 13.2C119.89 13.2 120.01 13.11 120.01 12.99C120.01 12.88 119.89 12.79 119.78 12.79C119.67 12.79 119.58 12.88 119.58 12.99C119.58 13.11 119.67 13.2 119.78 13.2ZM122.7 14C122.81 14 122.9 13.91 122.9 13.79C122.9 13.68 122.81 13.59 122.7 13.59C122.58 13.59 122.49 13.68 122.49 13.79C122.49 13.91 122.58 14 122.7 14ZM117.7 14C117.81 14 117.91 13.91 117.91 13.79C117.91 13.68 117.81 13.59 117.7 13.59C117.59 13.59 117.5 13.68 117.5 13.79C117.5 13.91 117.59 14 117.7 14ZM118.53 14C118.64 14 118.74 13.91 118.74 13.79C118.74 13.68 118.64 13.59 118.53 13.59C118.42 13.59 118.33 13.68 118.33 13.79C118.33 13.91 118.42 14 118.53 14ZM119.37 14C119.48 14 119.58 13.91 119.58 13.79C119.58 13.68 119.48 13.59 119.37 13.59C119.26 13.59 119.17 13.68 119.17 13.79C119.17 13.91 119.26 14 119.37 14ZM120.21 14C120.32 14 120.41 13.91 120.41 13.79C120.41 13.68 120.32 13.59 120.21 13.59C120.1 13.59 120.01 13.68 120.01 13.79C120.01 13.91 120.1 14 120.21 14ZM121.05 14C121.15 14 121.24 13.91 121.24 13.79C121.24 13.68 121.15 13.59 121.05 13.59C120.92 13.59 120.82 13.68 120.82 13.79C120.82 13.91 120.92 14 121.05 14ZM121.86 14C121.97 14 122.08 13.91 122.08 13.79C122.08 13.68 121.97 13.59 121.86 13.59C121.75 13.59 121.65 13.68 121.65 13.79C121.65 13.91 121.75 14 121.86 14ZM123.54 14C123.65 14 123.74 13.91 123.74 13.79C123.74 13.68 123.65 13.59 123.54 13.59C123.42 13.59 123.33 13.68 123.33 13.79C123.33 13.91 123.42 14 123.54 14ZM124.37 14C124.48 14 124.57 13.91 124.57 13.79C124.57 13.68 124.48 13.59 124.37 13.59C124.25 13.59 124.16 13.68 124.16 13.79C124.16 13.91 124.25 14 124.37 14ZM125.21 14C125.32 14 125.41 13.91 125.41 13.79C125.41 13.68 125.32 13.59 125.21 13.59C125.09 13.59 124.98 13.68 124.98 13.79C124.98 13.91 125.09 14 125.21 14ZM126.03 14C126.16 14 126.25 13.91 126.25 13.79C126.25 13.68 126.16 13.59 126.03 13.59C125.91 13.59 125.82 13.68 125.82 13.79C125.82 13.91 125.91 14 126.03 14ZM126.85 14C126.97 14 127.08 13.91 127.08 13.79C127.08 13.68 126.97 13.59 126.85 13.59C126.75 13.59 126.66 13.68 126.66 13.79C126.66 13.91 126.75 14 126.85 14Z" fill="#393C41"/>
<path d="M127.5 14V4H127.7C127.59 4 127.5 4.09 127.5 4.2C127.5 4.31 127.59 4.41 127.7 4.41C127.81 4.41 127.91 4.31 127.91 4.2C127.91 4.09 127.81 4 127.7 4H128.53C128.42 4 128.33 4.09 128.33 4.2C128.33 4.31 128.42 4.41 128.53 4.41C128.64 4.41 128.74 4.31 128.74 4.2C128.74 4.09 128.64 4 128.53 4H129.37C129.26 4 129.17 4.09 129.17 4.2C129.17 4.31 129.26 4.41 129.37 4.41C129.48 4.41 129.58 4.31 129.58 4.2C129.58 4.09 129.48 4 129.37 4H130.21C130.1 4 130.01 4.09 130.01 4.2C130.01 4.31 130.1 4.41 130.21 4.41C130.32 4.41 130.41 4.31 130.41 4.2C130.41 4.09 130.32 4 130.21 4H131.05C130.92 4 130.82 4.09 130.82 4.2C130.82 4.31 130.92 4.41 131.05 4.41C131.15 4.41 131.24 4.31 131.24 4.2C131.24 4.09 131.15 4 131.05 4H131.86C131.75 4 131.65 4.09 131.65 4.2C131.65 4.31 131.75 4.41 131.86 4.41C131.97 4.41 132.08 4.31 132.08 4.2C132.08 4.09 131.97 4 131.86 4H132.7C132.58 4 132.49 4.09 132.49 4.2C132.49 4.31 132.58 4.41 132.7 4.41C132.81 4.41 132.9 4.31 132.9 4.2C132.9 4.09 132.81 4 132.7 4H133.54C133.42 4 133.33 4.09 133.33 4.2C133.33 4.31 133.42 4.41 133.54 4.41C133.65 4.41 133.74 4.31 133.74 4.2C133.74 4.09 133.65 4 133.54 4H134.37C134.25 4 134.16 4.09 134.16 4.2C134.16 4.31 134.25 4.41 134.37 4.41C134.48 4.41 134.57 4.31 134.57 4.2C134.57 4.09 134.48 4 134.37 4H135.21C135.09 4 134.98 4.09 134.98 4.2C134.98 4.31 135.09 4.41 135.21 4.41C135.32 4.41 135.41 4.31 135.41 4.2C135.41 4.09 135.32 4 135.21 4H136.03C135.91 4 135.82 4.09 135.82 4.2C135.82 4.31 135.91 4.41 136.03 4.41C136.16 4.41 136.25 4.31 136.25 4.2C136.25 4.09 136.16 4 136.03 4H136.85C136.75 4 136.66 4.09 136.66 4.2C136.66 4.31 136.75 4.41 136.85 4.41C136.97 4.41 137.08 4.31 137.08 4.2C137.08 4.09 136.97 4 136.85 4H137.5V14H127.5ZM134.78 5.19C134.89 5.19 134.98 5.1 134.98 4.99C134.98 4.88 134.89 4.78 134.78 4.78C134.66 4.78 134.57 4.88 134.57 4.99C134.57 5.1 134.66 5.19 134.78 5.19ZM133.13 5.19C133.24 5.19 133.33 5.1 133.33 4.99C133.33 4.88 133.24 4.78 133.13 4.78C132.99 4.78 132.9 4.88 132.9 4.99C132.9 5.1 132.99 5.19 133.13 5.19ZM133.94 5.19C134.07 5.19 134.16 5.1 134.16 4.99C134.16 4.88 134.07 4.78 133.94 4.78C133.83 4.78 133.74 4.88 133.74 4.99C133.74 5.1 133.83 5.19 133.94 5.19ZM128.13 5.19C128.23 5.19 128.33 5.1 128.33 4.99C128.33 4.88 128.23 4.78 128.13 4.78C128.02 4.78 127.91 4.88 127.91 4.99C127.91 5.1 128.02 5.19 128.13 5.19ZM128.95 5.19C129.07 5.19 129.17 5.1 129.17 4.99C129.17 4.88 129.07 4.78 128.95 4.78C128.83 4.78 128.74 4.88 128.74 4.99C128.74 5.1 128.83 5.19 128.95 5.19ZM129.78 5.19C129.89 5.19 130.01 5.1 130.01 4.99C130.01 4.88 129.89 4.78 129.78 4.78C129.67 4.78 129.58 4.88 129.58 4.99C129.58 5.1 129.67 5.19 129.78 5.19ZM130.62 5.19C130.73 5.19 130.82 5.1 130.82 4.99C130.82 4.88 130.73 4.78 130.62 4.78C130.51 4.78 130.41 4.88 130.41 4.99C130.41 5.1 130.51 5.19 130.62 5.19ZM131.45 5.19C131.56 5.19 131.65 5.1 131.65 4.99C131.65 4.88 131.56 4.78 131.45 4.78C131.34 4.78 131.24 4.88 131.24 4.99C131.24 5.1 131.34 5.19 131.45 5.19ZM132.29 5.19C132.4 5.19 132.49 5.1 132.49 4.99C132.49 4.88 132.4 4.78 132.29 4.78C132.18 4.78 132.08 4.88 132.08 4.99C132.08 5.1 132.18 5.19 132.29 5.19ZM135.61 5.19C135.73 5.19 135.82 5.1 135.82 4.99C135.82 4.88 135.73 4.78 135.61 4.78C135.5 4.78 135.41 4.88 135.41 4.99C135.41 5.1 135.5 5.19 135.61 5.19ZM136.45 5.19C136.57 5.19 136.66 5.1 136.66 4.99C136.66 4.88 136.57 4.78 136.45 4.78C136.34 4.78 136.25 4.88 136.25 4.99C136.25 5.1 136.34 5.19 136.45 5.19ZM137.29 5.19C137.41 5.19 137.5 5.1 137.5 4.99C137.5 4.88 137.41 4.78 137.29 4.78C137.18 4.78 137.09 4.88 137.09 4.99C137.09 5.1 137.18 5.19 137.29 5.19ZM135.21 5.99C135.32 5.99 135.41 5.9 135.41 5.79C135.41 5.68 135.32 5.58 135.21 5.58C135.09 5.58 134.98 5.68 134.98 5.79C134.98 5.9 135.09 5.99 135.21 5.99ZM129.37 5.99C129.48 5.99 129.58 5.9 129.58 5.79C129.58 5.68 129.48 5.58 129.37 5.58C129.26 5.58 129.17 5.68 129.17 5.79C129.17 5.9 129.26 5.99 129.37 5.99ZM132.7 5.99C132.81 5.99 132.9 5.9 132.9 5.79C132.9 5.68 132.81 5.58 132.7 5.58C132.58 5.58 132.49 5.68 132.49 5.79C132.49 5.9 132.58 5.99 132.7 5.99ZM136.03 5.99C136.16 5.99 136.25 5.9 136.25 5.79C136.25 5.68 136.16 5.58 136.03 5.58C135.91 5.58 135.82 5.68 135.82 5.79C135.82 5.9 135.91 5.99 136.03 5.99ZM131.86 5.99C131.97 5.99 132.08 5.9 132.08 5.79C132.08 5.68 131.97 5.58 131.86 5.58C131.75 5.58 131.65 5.68 131.65 5.79C131.65 5.9 131.75 5.99 131.86 5.99ZM130.21 5.99C130.32 5.99 130.41 5.9 130.41 5.79C130.41 5.68 130.32 5.58 130.21 5.58C130.1 5.58 130.01 5.68 130.01 5.79C130.01 5.9 130.1 5.99 130.21 5.99ZM133.54 5.99C133.65 5.99 133.74 5.9 133.74 5.79C133.74 5.68 133.65 5.58 133.54 5.58C133.42 5.58 133.33 5.68 133.33 5.79C133.33 5.9 133.42 5.99 133.54 5.99ZM127.7 5.99C127.81 5.99 127.91 5.9 127.91 5.79C127.91 5.68 127.81 5.58 127.7 5.58C127.59 5.58 127.5 5.68 127.5 5.79C127.5 5.9 127.59 5.99 127.7 5.99ZM134.37 5.99C134.48 5.99 134.57 5.9 134.57 5.79C134.57 5.68 134.48 5.58 134.37 5.58C134.25 5.58 134.16 5.68 134.16 5.79C134.16 5.9 134.25 5.99 134.37 5.99ZM131.05 5.99C131.15 5.99 131.24 5.9 131.24 5.79C131.24 5.68 131.15 5.58 131.05 5.58C130.92 5.58 130.82 5.68 130.82 5.79C130.82 5.9 130.92 5.99 131.05 5.99ZM128.53 5.99C128.64 5.99 128.74 5.9 128.74 5.79C128.74 5.68 128.64 5.58 128.53 5.58C128.42 5.58 128.33 5.68 128.33 5.79C128.33 5.9 128.42 5.99 128.53 5.99ZM136.85 5.99C136.97 5.99 137.08 5.9 137.08 5.79C137.08 5.68 136.97 5.58 136.85 5.58C136.75 5.58 136.66 5.68 136.66 5.79C136.66 5.9 136.75 5.99 136.85 5.99ZM131.45 6.79C131.56 6.79 131.65 6.7 131.65 6.59C131.65 6.46 131.56 6.36 131.45 6.36C131.34 6.36 131.24 6.46 131.24 6.59C131.24 6.7 131.34 6.79 131.45 6.79ZM133.13 6.79C133.24 6.79 133.33 6.7 133.33 6.59C133.33 6.46 133.24 6.36 133.13 6.36C132.99 6.36 132.9 6.46 132.9 6.59C132.9 6.7 132.99 6.79 133.13 6.79ZM129.78 6.79C129.89 6.79 130.01 6.7 130.01 6.59C130.01 6.46 129.89 6.36 129.78 6.36C129.67 6.36 129.58 6.46 129.58 6.59C129.58 6.7 129.67 6.79 129.78 6.79ZM128.13 6.79C128.23 6.79 128.33 6.7 128.33 6.59C128.33 6.46 128.23 6.36 128.13 6.36C128.02 6.36 127.91 6.46 127.91 6.59C127.91 6.7 128.02 6.79 128.13 6.79ZM128.95 6.79C129.07 6.79 129.17 6.7 129.17 6.59C129.17 6.46 129.07 6.36 128.95 6.36C128.83 6.36 128.74 6.46 128.74 6.59C128.74 6.7 128.83 6.79 128.95 6.79ZM135.61 6.79C135.73 6.79 135.82 6.7 135.82 6.59C135.82 6.46 135.73 6.36 135.61 6.36C135.5 6.36 135.41 6.46 135.41 6.59C135.41 6.7 135.5 6.79 135.61 6.79ZM137.29 6.79C137.41 6.79 137.5 6.7 137.5 6.59C137.5 6.46 137.41 6.36 137.29 6.36C137.18 6.36 137.09 6.46 137.09 6.59C137.09 6.7 137.18 6.79 137.29 6.79ZM132.29 6.79C132.4 6.79 132.49 6.7 132.49 6.59C132.49 6.46 132.4 6.36 132.29 6.36C132.18 6.36 132.08 6.46 132.08 6.59C132.08 6.7 132.18 6.79 132.29 6.79ZM136.45 6.79C136.57 6.79 136.66 6.7 136.66 6.59C136.66 6.46 136.57 6.36 136.45 6.36C136.34 6.36 136.25 6.46 136.25 6.59C136.25 6.7 136.34 6.79 136.45 6.79ZM133.94 6.79C134.07 6.79 134.16 6.7 134.16 6.59C134.16 6.46 134.07 6.36 133.94 6.36C133.83 6.36 133.74 6.46 133.74 6.59C133.74 6.7 133.83 6.79 133.94 6.79ZM130.62 6.79C130.73 6.79 130.82 6.7 130.82 6.59C130.82 6.46 130.73 6.36 130.62 6.36C130.51 6.36 130.41 6.46 130.41 6.59C130.41 6.7 130.51 6.79 130.62 6.79ZM134.78 6.79C134.89 6.79 134.98 6.7 134.98 6.59C134.98 6.46 134.89 6.36 134.78 6.36C134.66 6.36 134.57 6.46 134.57 6.59C134.57 6.7 134.66 6.79 134.78 6.79ZM134.37 7.59C134.48 7.59 134.57 7.51 134.57 7.37C134.57 7.26 134.48 7.17 134.37 7.17C134.25 7.17 134.16 7.26 134.16 7.37C134.16 7.51 134.25 7.59 134.37 7.59ZM130.21 7.59C130.32 7.59 130.41 7.51 130.41 7.37C130.41 7.26 130.32 7.17 130.21 7.17C130.1 7.17 130.01 7.26 130.01 7.37C130.01 7.51 130.1 7.59 130.21 7.59ZM135.21 7.59C135.32 7.59 135.41 7.51 135.41 7.37C135.41 7.26 135.32 7.17 135.21 7.17C135.09 7.17 134.98 7.26 134.98 7.37C134.98 7.51 135.09 7.59 135.21 7.59ZM136.85 7.59C136.97 7.59 137.08 7.51 137.08 7.37C137.08 7.26 136.97 7.17 136.85 7.17C136.75 7.17 136.66 7.26 136.66 7.37C136.66 7.51 136.75 7.59 136.85 7.59ZM133.54 7.59C133.65 7.59 133.74 7.51 133.74 7.37C133.74 7.26 133.65 7.17 133.54 7.17C133.42 7.17 133.33 7.26 133.33 7.37C133.33 7.51 133.42 7.59 133.54 7.59ZM129.37 7.59C129.48 7.59 129.58 7.51 129.58 7.37C129.58 7.26 129.48 7.17 129.37 7.17C129.26 7.17 129.17 7.26 129.17 7.37C129.17 7.51 129.26 7.59 129.37 7.59ZM131.86 7.59C131.97 7.59 132.08 7.51 132.08 7.37C132.08 7.26 131.97 7.17 131.86 7.17C131.75 7.17 131.65 7.26 131.65 7.37C131.65 7.51 131.75 7.59 131.86 7.59ZM136.03 7.59C136.16 7.59 136.25 7.51 136.25 7.37C136.25 7.26 136.16 7.17 136.03 7.17C135.91 7.17 135.82 7.26 135.82 7.37C135.82 7.51 135.91 7.59 136.03 7.59ZM132.7 7.59C132.81 7.59 132.9 7.51 132.9 7.37C132.9 7.26 132.81 7.17 132.7 7.17C132.58 7.17 132.49 7.26 132.49 7.37C132.49 7.51 132.58 7.59 132.7 7.59ZM127.7 7.59C127.81 7.59 127.91 7.51 127.91 7.37C127.91 7.26 127.81 7.17 127.7 7.17C127.59 7.17 127.5 7.26 127.5 7.37C127.5 7.51 127.59 7.59 127.7 7.59ZM128.53 7.59C128.64 7.59 128.74 7.51 128.74 7.37C128.74 7.26 128.64 7.17 128.53 7.17C128.42 7.17 128.33 7.26 128.33 7.37C128.33 7.51 128.42 7.59 128.53 7.59ZM131.05 7.59C131.15 7.59 131.24 7.51 131.24 7.37C131.24 7.26 131.15 7.17 131.05 7.17C130.92 7.17 130.82 7.26 130.82 7.37C130.82 7.51 130.92 7.59 131.05 7.59ZM136.45 8.38C136.57 8.38 136.66 8.29 136.66 8.17C136.66 8.06 136.57 7.97 136.45 7.97C136.34 7.97 136.25 8.06 136.25 8.17C136.25 8.29 136.34 8.38 136.45 8.38ZM131.45 8.38C131.56 8.38 131.65 8.29 131.65 8.17C131.65 8.06 131.56 7.97 131.45 7.97C131.34 7.97 131.24 8.06 131.24 8.17C131.24 8.29 131.34 8.38 131.45 8.38ZM132.29 8.38C132.4 8.38 132.49 8.29 132.49 8.17C132.49 8.06 132.4 7.97 132.29 7.97C132.18 7.97 132.08 8.06 132.08 8.17C132.08 8.29 132.18 8.38 132.29 8.38ZM133.94 8.38C134.07 8.38 134.16 8.29 134.16 8.17C134.16 8.06 134.07 7.97 133.94 7.97C133.83 7.97 133.74 8.06 133.74 8.17C133.74 8.29 133.83 8.38 133.94 8.38ZM133.13 8.38C133.24 8.38 133.33 8.29 133.33 8.17C133.33 8.06 133.24 7.97 133.13 7.97C132.99 7.97 132.9 8.06 132.9 8.17C132.9 8.29 132.99 8.38 133.13 8.38ZM130.62 8.38C130.73 8.38 130.82 8.29 130.82 8.17C130.82 8.06 130.73 7.97 130.62 7.97C130.51 7.97 130.41 8.06 130.41 8.17C130.41 8.29 130.51 8.38 130.62 8.38ZM135.61 8.38C135.73 8.38 135.82 8.29 135.82 8.17C135.82 8.06 135.73 7.97 135.61 7.97C135.5 7.97 135.41 8.06 135.41 8.17C135.41 8.29 135.5 8.38 135.61 8.38ZM134.78 8.38C134.89 8.38 134.98 8.29 134.98 8.17C134.98 8.06 134.89 7.97 134.78 7.97C134.66 7.97 134.57 8.06 134.57 8.17C134.57 8.29 134.66 8.38 134.78 8.38ZM137.29 8.38C137.41 8.38 137.5 8.29 137.5 8.17C137.5 8.06 137.41 7.97 137.29 7.97C137.18 7.97 137.09 8.06 137.09 8.17C137.09 8.29 137.18 8.38 137.29 8.38ZM129.78 8.38C129.89 8.38 130.01 8.29 130.01 8.17C130.01 8.06 129.89 7.97 129.78 7.97C129.67 7.97 129.58 8.06 129.58 8.17C129.58 8.29 129.67 8.38 129.78 8.38ZM128.95 8.38C129.07 8.38 129.17 8.29 129.17 8.17C129.17 8.06 129.07 7.97 128.95 7.97C128.83 7.97 128.74 8.06 128.74 8.17C128.74 8.29 128.83 8.38 128.95 8.38ZM128.13 8.38C128.23 8.38 128.33 8.29 128.33 8.17C128.33 8.06 128.23 7.97 128.13 7.97C128.02 7.97 127.91 8.06 127.91 8.17C127.91 8.29 128.02 8.38 128.13 8.38ZM128.53 9.19C128.64 9.19 128.74 9.09 128.74 8.98C128.74 8.87 128.64 8.78 128.53 8.78C128.42 8.78 128.33 8.87 128.33 8.98C128.33 9.09 128.42 9.19 128.53 9.19ZM134.37 9.19C134.48 9.19 134.57 9.09 134.57 8.98C134.57 8.87 134.48 8.78 134.37 8.78C134.25 8.78 134.16 8.87 134.16 8.98C134.16 9.09 134.25 9.19 134.37 9.19ZM129.37 9.19C129.48 9.19 129.58 9.09 129.58 8.98C129.58 8.87 129.48 8.78 129.37 8.78C129.26 8.78 129.17 8.87 129.17 8.98C129.17 9.09 129.26 9.19 129.37 9.19ZM136.03 9.19C136.16 9.19 136.25 9.09 136.25 8.98C136.25 8.87 136.16 8.78 136.03 8.78C135.91 8.78 135.82 8.87 135.82 8.98C135.82 9.09 135.91 9.19 136.03 9.19ZM132.7 9.19C132.81 9.19 132.9 9.09 132.9 8.98C132.9 8.87 132.81 8.78 132.7 8.78C132.58 8.78 132.49 8.87 132.49 8.98C132.49 9.09 132.58 9.19 132.7 9.19ZM130.21 9.19C130.32 9.19 130.41 9.09 130.41 8.98C130.41 8.87 130.32 8.78 130.21 8.78C130.1 8.78 130.01 8.87 130.01 8.98C130.01 9.09 130.1 9.19 130.21 9.19ZM133.54 9.19C133.65 9.19 133.74 9.09 133.74 8.98C133.74 8.87 133.65 8.78 133.54 8.78C133.42 8.78 133.33 8.87 133.33 8.98C133.33 9.09 133.42 9.19 133.54 9.19ZM136.85 9.19C136.97 9.19 137.08 9.09 137.08 8.98C137.08 8.87 136.97 8.78 136.85 8.78C136.75 8.78 136.66 8.87 136.66 8.98C136.66 9.09 136.75 9.19 136.85 9.19ZM131.05 9.19C131.15 9.19 131.24 9.09 131.24 8.98C131.24 8.87 131.15 8.78 131.05 8.78C130.92 8.78 130.82 8.87 130.82 8.98C130.82 9.09 130.92 9.19 131.05 9.19ZM135.21 9.19C135.32 9.19 135.41 9.09 135.41 8.98C135.41 8.87 135.32 8.78 135.21 8.78C135.09 8.78 134.98 8.87 134.98 8.98C134.98 9.09 135.09 9.19 135.21 9.19ZM131.86 9.19C131.97 9.19 132.08 9.09 132.08 8.98C132.08 8.87 131.97 8.78 131.86 8.78C131.75 8.78 131.65 8.87 131.65 8.98C131.65 9.09 131.75 9.19 131.86 9.19ZM127.7 9.19C127.81 9.19 127.91 9.09 127.91 8.98C127.91 8.87 127.81 8.78 127.7 8.78C127.59 8.78 127.5 8.87 127.5 8.98C127.5 9.09 127.59 9.19 127.7 9.19ZM132.29 10C132.4 10 132.49 9.9 132.49 9.79C132.49 9.68 132.4 9.59 132.29 9.59C132.18 9.59 132.08 9.68 132.08 9.79C132.08 9.9 132.18 10 132.29 10ZM128.95 10C129.07 10 129.17 9.9 129.17 9.79C129.17 9.68 129.07 9.59 128.95 9.59C128.83 9.59 128.74 9.68 128.74 9.79C128.74 9.9 128.83 10 128.95 10ZM134.78 10C134.89 10 134.98 9.9 134.98 9.79C134.98 9.68 134.89 9.59 134.78 9.59C134.66 9.59 134.57 9.68 134.57 9.79C134.57 9.9 134.66 10 134.78 10ZM129.78 10C129.89 10 130.01 9.9 130.01 9.79C130.01 9.68 129.89 9.59 129.78 9.59C129.67 9.59 129.58 9.68 129.58 9.79C129.58 9.9 129.67 10 129.78 10ZM137.29 10C137.41 10 137.5 9.9 137.5 9.79C137.5 9.68 137.41 9.59 137.29 9.59C137.18 9.59 137.09 9.68 137.09 9.79C137.09 9.9 137.18 10 137.29 10ZM133.94 10C134.07 10 134.16 9.9 134.16 9.79C134.16 9.68 134.07 9.59 133.94 9.59C133.83 9.59 133.74 9.68 133.74 9.79C133.74 9.9 133.83 10 133.94 10ZM130.62 10C130.73 10 130.82 9.9 130.82 9.79C130.82 9.68 130.73 9.59 130.62 9.59C130.51 9.59 130.41 9.68 130.41 9.79C130.41 9.9 130.51 10 130.62 10ZM128.13 10C128.23 10 128.33 9.9 128.33 9.79C128.33 9.68 128.23 9.59 128.13 9.59C128.02 9.59 127.91 9.68 127.91 9.79C127.91 9.9 128.02 10 128.13 10ZM135.61 10C135.73 10 135.82 9.9 135.82 9.79C135.82 9.68 135.73 9.59 135.61 9.59C135.5 9.59 135.41 9.68 135.41 9.79C135.41 9.9 135.5 10 135.61 10ZM133.13 10C133.24 10 133.33 9.9 133.33 9.79C133.33 9.68 133.24 9.59 133.13 9.59C132.99 9.59 132.9 9.68 132.9 9.79C132.9 9.9 132.99 10 133.13 10ZM131.45 10C131.56 10 131.65 9.9 131.65 9.79C131.65 9.68 131.56 9.59 131.45 9.59C131.34 9.59 131.24 9.68 131.24 9.79C131.24 9.9 131.34 10 131.45 10ZM136.45 10C136.57 10 136.66 9.9 136.66 9.79C136.66 9.68 136.57 9.59 136.45 9.59C136.34 9.59 136.25 9.68 136.25 9.79C136.25 9.9 136.34 10 136.45 10ZM136.03 10.79C136.16 10.79 136.25 10.7 136.25 10.59C136.25 10.46 136.16 10.37 136.03 10.37C135.91 10.37 135.82 10.46 135.82 10.59C135.82 10.7 135.91 10.79 136.03 10.79ZM136.85 10.79C136.97 10.79 137.08 10.7 137.08 10.59C137.08 10.46 136.97 10.37 136.85 10.37C136.75 10.37 136.66 10.46 136.66 10.59C136.66 10.7 136.75 10.79 136.85 10.79ZM129.37 10.79C129.48 10.79 129.58 10.7 129.58 10.59C129.58 10.46 129.48 10.37 129.37 10.37C129.26 10.37 129.17 10.46 129.17 10.59C129.17 10.7 129.26 10.79 129.37 10.79ZM127.7 10.79C127.81 10.79 127.91 10.7 127.91 10.59C127.91 10.46 127.81 10.37 127.7 10.37C127.59 10.37 127.5 10.46 127.5 10.59C127.5 10.7 127.59 10.79 127.7 10.79ZM135.21 10.79C135.32 10.79 135.41 10.7 135.41 10.59C135.41 10.46 135.32 10.37 135.21 10.37C135.09 10.37 134.98 10.46 134.98 10.59C134.98 10.7 135.09 10.79 135.21 10.79ZM130.21 10.79C130.32 10.79 130.41 10.7 130.41 10.59C130.41 10.46 130.32 10.37 130.21 10.37C130.1 10.37 130.01 10.46 130.01 10.59C130.01 10.7 130.1 10.79 130.21 10.79ZM131.05 10.79C131.15 10.79 131.24 10.7 131.24 10.59C131.24 10.46 131.15 10.37 131.05 10.37C130.92 10.37 130.82 10.46 130.82 10.59C130.82 10.7 130.92 10.79 131.05 10.79ZM134.37 10.79C134.48 10.79 134.57 10.7 134.57 10.59C134.57 10.46 134.48 10.37 134.37 10.37C134.25 10.37 134.16 10.46 134.16 10.59C134.16 10.7 134.25 10.79 134.37 10.79ZM131.86 10.79C131.97 10.79 132.08 10.7 132.08 10.59C132.08 10.46 131.97 10.37 131.86 10.37C131.75 10.37 131.65 10.46 131.65 10.59C131.65 10.7 131.75 10.79 131.86 10.79ZM132.7 10.79C132.81 10.79 132.9 10.7 132.9 10.59C132.9 10.46 132.81 10.37 132.7 10.37C132.58 10.37 132.49 10.46 132.49 10.59C132.49 10.7 132.58 10.79 132.7 10.79ZM128.53 10.79C128.64 10.79 128.74 10.7 128.74 10.59C128.74 10.46 128.64 10.37 128.53 10.37C128.42 10.37 128.33 10.46 128.33 10.59C128.33 10.7 128.42 10.79 128.53 10.79ZM133.54 10.79C133.65 10.79 133.74 10.7 133.74 10.59C133.74 10.46 133.65 10.37 133.54 10.37C133.42 10.37 133.33 10.46 133.33 10.59C133.33 10.7 133.42 10.79 133.54 10.79ZM136.45 11.6C136.57 11.6 136.66 11.49 136.66 11.38C136.66 11.26 136.57 11.17 136.45 11.17C136.34 11.17 136.25 11.26 136.25 11.38C136.25 11.49 136.34 11.6 136.45 11.6ZM130.62 11.6C130.73 11.6 130.82 11.49 130.82 11.38C130.82 11.26 130.73 11.17 130.62 11.17C130.51 11.17 130.41 11.26 130.41 11.38C130.41 11.49 130.51 11.6 130.62 11.6ZM131.45 11.6C131.56 11.6 131.65 11.49 131.65 11.38C131.65 11.26 131.56 11.17 131.45 11.17C131.34 11.17 131.24 11.26 131.24 11.38C131.24 11.49 131.34 11.6 131.45 11.6ZM129.78 11.6C129.89 11.6 130.01 11.49 130.01 11.38C130.01 11.26 129.89 11.17 129.78 11.17C129.67 11.17 129.58 11.26 129.58 11.38C129.58 11.49 129.67 11.6 129.78 11.6ZM132.29 11.6C132.4 11.6 132.49 11.49 132.49 11.38C132.49 11.26 132.4 11.17 132.29 11.17C132.18 11.17 132.08 11.26 132.08 11.38C132.08 11.49 132.18 11.6 132.29 11.6ZM133.13 11.6C133.24 11.6 133.33 11.49 133.33 11.38C133.33 11.26 133.24 11.17 133.13 11.17C132.99 11.17 132.9 11.26 132.9 11.38C132.9 11.49 132.99 11.6 133.13 11.6ZM133.94 11.6C134.07 11.6 134.16 11.49 134.16 11.38C134.16 11.26 134.07 11.17 133.94 11.17C133.83 11.17 133.74 11.26 133.74 11.38C133.74 11.49 133.83 11.6 133.94 11.6ZM137.29 11.6C137.41 11.6 137.5 11.49 137.5 11.38C137.5 11.26 137.41 11.17 137.29 11.17C137.18 11.17 137.09 11.26 137.09 11.38C137.09 11.49 137.18 11.6 137.29 11.6ZM134.78 11.6C134.89 11.6 134.98 11.49 134.98 11.38C134.98 11.26 134.89 11.17 134.78 11.17C134.66 11.17 134.57 11.26 134.57 11.38C134.57 11.49 134.66 11.6 134.78 11.6ZM128.95 11.6C129.07 11.6 129.17 11.49 129.17 11.38C129.17 11.26 129.07 11.17 128.95 11.17C128.83 11.17 128.74 11.26 128.74 11.38C128.74 11.49 128.83 11.6 128.95 11.6ZM135.61 11.6C135.73 11.6 135.82 11.49 135.82 11.38C135.82 11.26 135.73 11.17 135.61 11.17C135.5 11.17 135.41 11.26 135.41 11.38C135.41 11.49 135.5 11.6 135.61 11.6ZM128.13 11.6C128.23 11.6 128.33 11.49 128.33 11.38C128.33 11.26 128.23 11.17 128.13 11.17C128.02 11.17 127.91 11.26 127.91 11.38C127.91 11.49 128.02 11.6 128.13 11.6ZM135.21 12.39C135.32 12.39 135.41 12.3 135.41 12.19C135.41 12.07 135.32 11.98 135.21 11.98C135.09 11.98 134.98 12.07 134.98 12.19C134.98 12.3 135.09 12.39 135.21 12.39ZM131.05 12.39C131.15 12.39 131.24 12.3 131.24 12.19C131.24 12.07 131.15 11.98 131.05 11.98C130.92 11.98 130.82 12.07 130.82 12.19C130.82 12.3 130.92 12.39 131.05 12.39ZM136.85 12.39C136.97 12.39 137.08 12.3 137.08 12.19C137.08 12.07 136.97 11.98 136.85 11.98C136.75 11.98 136.66 12.07 136.66 12.19C136.66 12.3 136.75 12.39 136.85 12.39ZM129.37 12.39C129.48 12.39 129.58 12.3 129.58 12.19C129.58 12.07 129.48 11.98 129.37 11.98C129.26 11.98 129.17 12.07 129.17 12.19C129.17 12.3 129.26 12.39 129.37 12.39ZM131.86 12.39C131.97 12.39 132.08 12.3 132.08 12.19C132.08 12.07 131.97 11.98 131.86 11.98C131.75 11.98 131.65 12.07 131.65 12.19C131.65 12.3 131.75 12.39 131.86 12.39ZM136.03 12.39C136.16 12.39 136.25 12.3 136.25 12.19C136.25 12.07 136.16 11.98 136.03 11.98C135.91 11.98 135.82 12.07 135.82 12.19C135.82 12.3 135.91 12.39 136.03 12.39ZM127.7 12.39C127.81 12.39 127.91 12.3 127.91 12.19C127.91 12.07 127.81 11.98 127.7 11.98C127.59 11.98 127.5 12.07 127.5 12.19C127.5 12.3 127.59 12.39 127.7 12.39ZM132.7 12.39C132.81 12.39 132.9 12.3 132.9 12.19C132.9 12.07 132.81 11.98 132.7 11.98C132.58 11.98 132.49 12.07 132.49 12.19C132.49 12.3 132.58 12.39 132.7 12.39ZM133.54 12.39C133.65 12.39 133.74 12.3 133.74 12.19C133.74 12.07 133.65 11.98 133.54 11.98C133.42 11.98 133.33 12.07 133.33 12.19C133.33 12.3 133.42 12.39 133.54 12.39ZM128.53 12.39C128.64 12.39 128.74 12.3 128.74 12.19C128.74 12.07 128.64 11.98 128.53 11.98C128.42 11.98 128.33 12.07 128.33 12.19C128.33 12.3 128.42 12.39 128.53 12.39ZM134.37 12.39C134.48 12.39 134.57 12.3 134.57 12.19C134.57 12.07 134.48 11.98 134.37 11.98C134.25 11.98 134.16 12.07 134.16 12.19C134.16 12.3 134.25 12.39 134.37 12.39ZM130.21 12.39C130.32 12.39 130.41 12.3 130.41 12.19C130.41 12.07 130.32 11.98 130.21 11.98C130.1 11.98 130.01 12.07 130.01 12.19C130.01 12.3 130.1 12.39 130.21 12.39ZM136.45 13.2C136.57 13.2 136.66 13.11 136.66 12.99C136.66 12.88 136.57 12.79 136.45 12.79C136.34 12.79 136.25 12.88 136.25 12.99C136.25 13.11 136.34 13.2 136.45 13.2ZM135.61 13.2C135.73 13.2 135.82 13.11 135.82 12.99C135.82 12.88 135.73 12.79 135.61 12.79C135.5 12.79 135.41 12.88 135.41 12.99C135.41 13.11 135.5 13.2 135.61 13.2ZM134.78 13.2C134.89 13.2 134.98 13.11 134.98 12.99C134.98 12.88 134.89 12.79 134.78 12.79C134.66 12.79 134.57 12.88 134.57 12.99C134.57 13.11 134.66 13.2 134.78 13.2ZM128.13 13.2C128.23 13.2 128.33 13.11 128.33 12.99C128.33 12.88 128.23 12.79 128.13 12.79C128.02 12.79 127.91 12.88 127.91 12.99C127.91 13.11 128.02 13.2 128.13 13.2ZM133.94 13.2C134.07 13.2 134.16 13.11 134.16 12.99C134.16 12.88 134.07 12.79 133.94 12.79C133.83 12.79 133.74 12.88 133.74 12.99C133.74 13.11 133.83 13.2 133.94 13.2ZM133.13 13.2C133.24 13.2 133.33 13.11 133.33 12.99C133.33 12.88 133.24 12.79 133.13 12.79C132.99 12.79 132.9 12.88 132.9 12.99C132.9 13.11 132.99 13.2 133.13 13.2ZM128.95 13.2C129.07 13.2 129.17 13.11 129.17 12.99C129.17 12.88 129.07 12.79 128.95 12.79C128.83 12.79 128.74 12.88 128.74 12.99C128.74 13.11 128.83 13.2 128.95 13.2ZM132.29 13.2C132.4 13.2 132.49 13.11 132.49 12.99C132.49 12.88 132.4 12.79 132.29 12.79C132.18 12.79 132.08 12.88 132.08 12.99C132.08 13.11 132.18 13.2 132.29 13.2ZM137.29 13.2C137.41 13.2 137.5 13.11 137.5 12.99C137.5 12.88 137.41 12.79 137.29 12.79C137.18 12.79 137.09 12.88 137.09 12.99C137.09 13.11 137.18 13.2 137.29 13.2ZM131.45 13.2C131.56 13.2 131.65 13.11 131.65 12.99C131.65 12.88 131.56 12.79 131.45 12.79C131.34 12.79 131.24 12.88 131.24 12.99C131.24 13.11 131.34 13.2 131.45 13.2ZM130.62 13.2C130.73 13.2 130.82 13.11 130.82 12.99C130.82 12.88 130.73 12.79 130.62 12.79C130.51 12.79 130.41 12.88 130.41 12.99C130.41 13.11 130.51 13.2 130.62 13.2ZM129.78 13.2C129.89 13.2 130.01 13.11 130.01 12.99C130.01 12.88 129.89 12.79 129.78 12.79C129.67 12.79 129.58 12.88 129.58 12.99C129.58 13.11 129.67 13.2 129.78 13.2ZM132.7 14C132.81 14 132.9 13.91 132.9 13.79C132.9 13.68 132.81 13.59 132.7 13.59C132.58 13.59 132.49 13.68 132.49 13.79C132.49 13.91 132.58 14 132.7 14ZM127.7 14C127.81 14 127.91 13.91 127.91 13.79C127.91 13.68 127.81 13.59 127.7 13.59C127.59 13.59 127.5 13.68 127.5 13.79C127.5 13.91 127.59 14 127.7 14ZM128.53 14C128.64 14 128.74 13.91 128.74 13.79C128.74 13.68 128.64 13.59 128.53 13.59C128.42 13.59 128.33 13.68 128.33 13.79C128.33 13.91 128.42 14 128.53 14ZM129.37 14C129.48 14 129.58 13.91 129.58 13.79C129.58 13.68 129.48 13.59 129.37 13.59C129.26 13.59 129.17 13.68 129.17 13.79C129.17 13.91 129.26 14 129.37 14ZM130.21 14C130.32 14 130.41 13.91 130.41 13.79C130.41 13.68 130.32 13.59 130.21 13.59C130.1 13.59 130.01 13.68 130.01 13.79C130.01 13.91 130.1 14 130.21 14ZM131.05 14C131.15 14 131.24 13.91 131.24 13.79C131.24 13.68 131.15 13.59 131.05 13.59C130.92 13.59 130.82 13.68 130.82 13.79C130.82 13.91 130.92 14 131.05 14ZM131.86 14C131.97 14 132.08 13.91 132.08 13.79C132.08 13.68 131.97 13.59 131.86 13.59C131.75 13.59 131.65 13.68 131.65 13.79C131.65 13.91 131.75 14 131.86 14ZM133.54 14C133.65 14 133.74 13.91 133.74 13.79C133.74 13.68 133.65 13.59 133.54 13.59C133.42 13.59 133.33 13.68 133.33 13.79C133.33 13.91 133.42 14 133.54 14ZM134.37 14C134.48 14 134.57 13.91 134.57 13.79C134.57 13.68 134.48 13.59 134.37 13.59C134.25 13.59 134.16 13.68 134.16 13.79C134.16 13.91 134.25 14 134.37 14ZM135.21 14C135.32 14 135.41 13.91 135.41 13.79C135.41 13.68 135.32 13.59 135.21 13.59C135.09 13.59 134.98 13.68 134.98 13.79C134.98 13.91 135.09 14 135.21 14ZM136.03 14C136.16 14 136.25 13.91 136.25 13.79C136.25 13.68 136.16 13.59 136.03 13.59C135.91 13.59 135.82 13.68 135.82 13.79C135.82 13.91 135.91 14 136.03 14ZM136.85 14C136.97 14 137.08 13.91 137.08 13.79C137.08 13.68 136.97 13.59 136.85 13.59C136.75 13.59 136.66 13.68 136.66 13.79C136.66 13.91 136.75 14 136.85 14Z" fill="#393C41"/>
<path d="M137.5 14V4H137.7C137.59 4 137.5 4.09 137.5 4.2C137.5 4.31 137.59 4.41 137.7 4.41C137.81 4.41 137.91 4.31 137.91 4.2C137.91 4.09 137.81 4 137.7 4H138.53C138.42 4 138.33 4.09 138.33 4.2C138.33 4.31 138.42 4.41 138.53 4.41C138.64 4.41 138.74 4.31 138.74 4.2C138.74 4.09 138.64 4 138.53 4H139.37C139.26 4 139.17 4.09 139.17 4.2C139.17 4.31 139.26 4.41 139.37 4.41C139.48 4.41 139.58 4.31 139.58 4.2C139.58 4.09 139.48 4 139.37 4H140.21C140.1 4 140.01 4.09 140.01 4.2C140.01 4.31 140.1 4.41 140.21 4.41C140.32 4.41 140.41 4.31 140.41 4.2C140.41 4.09 140.32 4 140.21 4H141.05C140.92 4 140.82 4.09 140.82 4.2C140.82 4.31 140.92 4.41 141.05 4.41C141.15 4.41 141.24 4.31 141.24 4.2C141.24 4.09 141.15 4 141.05 4H141.86C141.75 4 141.65 4.09 141.65 4.2C141.65 4.31 141.75 4.41 141.86 4.41C141.97 4.41 142.08 4.31 142.08 4.2C142.08 4.09 141.97 4 141.86 4H142.7C142.58 4 142.49 4.09 142.49 4.2C142.49 4.31 142.58 4.41 142.7 4.41C142.81 4.41 142.9 4.31 142.9 4.2C142.9 4.09 142.81 4 142.7 4H143.54C143.42 4 143.33 4.09 143.33 4.2C143.33 4.31 143.42 4.41 143.54 4.41C143.65 4.41 143.74 4.31 143.74 4.2C143.74 4.09 143.65 4 143.54 4H144.37C144.25 4 144.16 4.09 144.16 4.2C144.16 4.31 144.25 4.41 144.37 4.41C144.48 4.41 144.57 4.31 144.57 4.2C144.57 4.09 144.48 4 144.37 4H145.21C145.09 4 144.98 4.09 144.98 4.2C144.98 4.31 145.09 4.41 145.21 4.41C145.32 4.41 145.41 4.31 145.41 4.2C145.41 4.09 145.32 4 145.21 4H146.03C145.91 4 145.82 4.09 145.82 4.2C145.82 4.31 145.91 4.41 146.03 4.41C146.16 4.41 146.25 4.31 146.25 4.2C146.25 4.09 146.16 4 146.03 4H146.85C146.75 4 146.66 4.09 146.66 4.2C146.66 4.31 146.75 4.41 146.85 4.41C146.97 4.41 147.08 4.31 147.08 4.2C147.08 4.09 146.97 4 146.85 4H147.5V14H137.5ZM144.78 5.19C144.89 5.19 144.98 5.1 144.98 4.99C144.98 4.88 144.89 4.78 144.78 4.78C144.66 4.78 144.57 4.88 144.57 4.99C144.57 5.1 144.66 5.19 144.78 5.19ZM143.13 5.19C143.24 5.19 143.33 5.1 143.33 4.99C143.33 4.88 143.24 4.78 143.13 4.78C142.99 4.78 142.9 4.88 142.9 4.99C142.9 5.1 142.99 5.19 143.13 5.19ZM143.94 5.19C144.07 5.19 144.16 5.1 144.16 4.99C144.16 4.88 144.07 4.78 143.94 4.78C143.83 4.78 143.74 4.88 143.74 4.99C143.74 5.1 143.83 5.19 143.94 5.19ZM138.13 5.19C138.23 5.19 138.33 5.1 138.33 4.99C138.33 4.88 138.23 4.78 138.13 4.78C138.02 4.78 137.91 4.88 137.91 4.99C137.91 5.1 138.02 5.19 138.13 5.19ZM138.95 5.19C139.07 5.19 139.17 5.1 139.17 4.99C139.17 4.88 139.07 4.78 138.95 4.78C138.83 4.78 138.74 4.88 138.74 4.99C138.74 5.1 138.83 5.19 138.95 5.19ZM139.78 5.19C139.89 5.19 140.01 5.1 140.01 4.99C140.01 4.88 139.89 4.78 139.78 4.78C139.67 4.78 139.58 4.88 139.58 4.99C139.58 5.1 139.67 5.19 139.78 5.19ZM140.62 5.19C140.73 5.19 140.82 5.1 140.82 4.99C140.82 4.88 140.73 4.78 140.62 4.78C140.51 4.78 140.41 4.88 140.41 4.99C140.41 5.1 140.51 5.19 140.62 5.19ZM141.45 5.19C141.56 5.19 141.65 5.1 141.65 4.99C141.65 4.88 141.56 4.78 141.45 4.78C141.34 4.78 141.24 4.88 141.24 4.99C141.24 5.1 141.34 5.19 141.45 5.19ZM142.29 5.19C142.4 5.19 142.49 5.1 142.49 4.99C142.49 4.88 142.4 4.78 142.29 4.78C142.18 4.78 142.08 4.88 142.08 4.99C142.08 5.1 142.18 5.19 142.29 5.19ZM145.61 5.19C145.73 5.19 145.82 5.1 145.82 4.99C145.82 4.88 145.73 4.78 145.61 4.78C145.5 4.78 145.41 4.88 145.41 4.99C145.41 5.1 145.5 5.19 145.61 5.19ZM146.45 5.19C146.57 5.19 146.66 5.1 146.66 4.99C146.66 4.88 146.57 4.78 146.45 4.78C146.34 4.78 146.25 4.88 146.25 4.99C146.25 5.1 146.34 5.19 146.45 5.19ZM147.29 5.19C147.41 5.19 147.5 5.1 147.5 4.99C147.5 4.88 147.41 4.78 147.29 4.78C147.18 4.78 147.09 4.88 147.09 4.99C147.09 5.1 147.18 5.19 147.29 5.19ZM145.21 5.99C145.32 5.99 145.41 5.9 145.41 5.79C145.41 5.68 145.32 5.58 145.21 5.58C145.09 5.58 144.98 5.68 144.98 5.79C144.98 5.9 145.09 5.99 145.21 5.99ZM139.37 5.99C139.48 5.99 139.58 5.9 139.58 5.79C139.58 5.68 139.48 5.58 139.37 5.58C139.26 5.58 139.17 5.68 139.17 5.79C139.17 5.9 139.26 5.99 139.37 5.99ZM142.7 5.99C142.81 5.99 142.9 5.9 142.9 5.79C142.9 5.68 142.81 5.58 142.7 5.58C142.58 5.58 142.49 5.68 142.49 5.79C142.49 5.9 142.58 5.99 142.7 5.99ZM146.03 5.99C146.16 5.99 146.25 5.9 146.25 5.79C146.25 5.68 146.16 5.58 146.03 5.58C145.91 5.58 145.82 5.68 145.82 5.79C145.82 5.9 145.91 5.99 146.03 5.99ZM141.86 5.99C141.97 5.99 142.08 5.9 142.08 5.79C142.08 5.68 141.97 5.58 141.86 5.58C141.75 5.58 141.65 5.68 141.65 5.79C141.65 5.9 141.75 5.99 141.86 5.99ZM140.21 5.99C140.32 5.99 140.41 5.9 140.41 5.79C140.41 5.68 140.32 5.58 140.21 5.58C140.1 5.58 140.01 5.68 140.01 5.79C140.01 5.9 140.1 5.99 140.21 5.99ZM143.54 5.99C143.65 5.99 143.74 5.9 143.74 5.79C143.74 5.68 143.65 5.58 143.54 5.58C143.42 5.58 143.33 5.68 143.33 5.79C143.33 5.9 143.42 5.99 143.54 5.99ZM137.7 5.99C137.81 5.99 137.91 5.9 137.91 5.79C137.91 5.68 137.81 5.58 137.7 5.58C137.59 5.58 137.5 5.68 137.5 5.79C137.5 5.9 137.59 5.99 137.7 5.99ZM144.37 5.99C144.48 5.99 144.57 5.9 144.57 5.79C144.57 5.68 144.48 5.58 144.37 5.58C144.25 5.58 144.16 5.68 144.16 5.79C144.16 5.9 144.25 5.99 144.37 5.99ZM141.05 5.99C141.15 5.99 141.24 5.9 141.24 5.79C141.24 5.68 141.15 5.58 141.05 5.58C140.92 5.58 140.82 5.68 140.82 5.79C140.82 5.9 140.92 5.99 141.05 5.99ZM138.53 5.99C138.64 5.99 138.74 5.9 138.74 5.79C138.74 5.68 138.64 5.58 138.53 5.58C138.42 5.58 138.33 5.68 138.33 5.79C138.33 5.9 138.42 5.99 138.53 5.99ZM146.85 5.99C146.97 5.99 147.08 5.9 147.08 5.79C147.08 5.68 146.97 5.58 146.85 5.58C146.75 5.58 146.66 5.68 146.66 5.79C146.66 5.9 146.75 5.99 146.85 5.99ZM141.45 6.79C141.56 6.79 141.65 6.7 141.65 6.59C141.65 6.46 141.56 6.36 141.45 6.36C141.34 6.36 141.24 6.46 141.24 6.59C141.24 6.7 141.34 6.79 141.45 6.79ZM143.13 6.79C143.24 6.79 143.33 6.7 143.33 6.59C143.33 6.46 143.24 6.36 143.13 6.36C142.99 6.36 142.9 6.46 142.9 6.59C142.9 6.7 142.99 6.79 143.13 6.79ZM139.78 6.79C139.89 6.79 140.01 6.7 140.01 6.59C140.01 6.46 139.89 6.36 139.78 6.36C139.67 6.36 139.58 6.46 139.58 6.59C139.58 6.7 139.67 6.79 139.78 6.79ZM138.13 6.79C138.23 6.79 138.33 6.7 138.33 6.59C138.33 6.46 138.23 6.36 138.13 6.36C138.02 6.36 137.91 6.46 137.91 6.59C137.91 6.7 138.02 6.79 138.13 6.79ZM138.95 6.79C139.07 6.79 139.17 6.7 139.17 6.59C139.17 6.46 139.07 6.36 138.95 6.36C138.83 6.36 138.74 6.46 138.74 6.59C138.74 6.7 138.83 6.79 138.95 6.79ZM145.61 6.79C145.73 6.79 145.82 6.7 145.82 6.59C145.82 6.46 145.73 6.36 145.61 6.36C145.5 6.36 145.41 6.46 145.41 6.59C145.41 6.7 145.5 6.79 145.61 6.79ZM147.29 6.79C147.41 6.79 147.5 6.7 147.5 6.59C147.5 6.46 147.41 6.36 147.29 6.36C147.18 6.36 147.09 6.46 147.09 6.59C147.09 6.7 147.18 6.79 147.29 6.79ZM142.29 6.79C142.4 6.79 142.49 6.7 142.49 6.59C142.49 6.46 142.4 6.36 142.29 6.36C142.18 6.36 142.08 6.46 142.08 6.59C142.08 6.7 142.18 6.79 142.29 6.79ZM146.45 6.79C146.57 6.79 146.66 6.7 146.66 6.59C146.66 6.46 146.57 6.36 146.45 6.36C146.34 6.36 146.25 6.46 146.25 6.59C146.25 6.7 146.34 6.79 146.45 6.79ZM143.94 6.79C144.07 6.79 144.16 6.7 144.16 6.59C144.16 6.46 144.07 6.36 143.94 6.36C143.83 6.36 143.74 6.46 143.74 6.59C143.74 6.7 143.83 6.79 143.94 6.79ZM140.62 6.79C140.73 6.79 140.82 6.7 140.82 6.59C140.82 6.46 140.73 6.36 140.62 6.36C140.51 6.36 140.41 6.46 140.41 6.59C140.41 6.7 140.51 6.79 140.62 6.79ZM144.78 6.79C144.89 6.79 144.98 6.7 144.98 6.59C144.98 6.46 144.89 6.36 144.78 6.36C144.66 6.36 144.57 6.46 144.57 6.59C144.57 6.7 144.66 6.79 144.78 6.79ZM144.37 7.59C144.48 7.59 144.57 7.51 144.57 7.37C144.57 7.26 144.48 7.17 144.37 7.17C144.25 7.17 144.16 7.26 144.16 7.37C144.16 7.51 144.25 7.59 144.37 7.59ZM140.21 7.59C140.32 7.59 140.41 7.51 140.41 7.37C140.41 7.26 140.32 7.17 140.21 7.17C140.1 7.17 140.01 7.26 140.01 7.37C140.01 7.51 140.1 7.59 140.21 7.59ZM145.21 7.59C145.32 7.59 145.41 7.51 145.41 7.37C145.41 7.26 145.32 7.17 145.21 7.17C145.09 7.17 144.98 7.26 144.98 7.37C144.98 7.51 145.09 7.59 145.21 7.59ZM146.85 7.59C146.97 7.59 147.08 7.51 147.08 7.37C147.08 7.26 146.97 7.17 146.85 7.17C146.75 7.17 146.66 7.26 146.66 7.37C146.66 7.51 146.75 7.59 146.85 7.59ZM143.54 7.59C143.65 7.59 143.74 7.51 143.74 7.37C143.74 7.26 143.65 7.17 143.54 7.17C143.42 7.17 143.33 7.26 143.33 7.37C143.33 7.51 143.42 7.59 143.54 7.59ZM139.37 7.59C139.48 7.59 139.58 7.51 139.58 7.37C139.58 7.26 139.48 7.17 139.37 7.17C139.26 7.17 139.17 7.26 139.17 7.37C139.17 7.51 139.26 7.59 139.37 7.59ZM141.86 7.59C141.97 7.59 142.08 7.51 142.08 7.37C142.08 7.26 141.97 7.17 141.86 7.17C141.75 7.17 141.65 7.26 141.65 7.37C141.65 7.51 141.75 7.59 141.86 7.59ZM146.03 7.59C146.16 7.59 146.25 7.51 146.25 7.37C146.25 7.26 146.16 7.17 146.03 7.17C145.91 7.17 145.82 7.26 145.82 7.37C145.82 7.51 145.91 7.59 146.03 7.59ZM142.7 7.59C142.81 7.59 142.9 7.51 142.9 7.37C142.9 7.26 142.81 7.17 142.7 7.17C142.58 7.17 142.49 7.26 142.49 7.37C142.49 7.51 142.58 7.59 142.7 7.59ZM137.7 7.59C137.81 7.59 137.91 7.51 137.91 7.37C137.91 7.26 137.81 7.17 137.7 7.17C137.59 7.17 137.5 7.26 137.5 7.37C137.5 7.51 137.59 7.59 137.7 7.59ZM138.53 7.59C138.64 7.59 138.74 7.51 138.74 7.37C138.74 7.26 138.64 7.17 138.53 7.17C138.42 7.17 138.33 7.26 138.33 7.37C138.33 7.51 138.42 7.59 138.53 7.59ZM141.05 7.59C141.15 7.59 141.24 7.51 141.24 7.37C141.24 7.26 141.15 7.17 141.05 7.17C140.92 7.17 140.82 7.26 140.82 7.37C140.82 7.51 140.92 7.59 141.05 7.59ZM146.45 8.38C146.57 8.38 146.66 8.29 146.66 8.17C146.66 8.06 146.57 7.97 146.45 7.97C146.34 7.97 146.25 8.06 146.25 8.17C146.25 8.29 146.34 8.38 146.45 8.38ZM141.45 8.38C141.56 8.38 141.65 8.29 141.65 8.17C141.65 8.06 141.56 7.97 141.45 7.97C141.34 7.97 141.24 8.06 141.24 8.17C141.24 8.29 141.34 8.38 141.45 8.38ZM142.29 8.38C142.4 8.38 142.49 8.29 142.49 8.17C142.49 8.06 142.4 7.97 142.29 7.97C142.18 7.97 142.08 8.06 142.08 8.17C142.08 8.29 142.18 8.38 142.29 8.38ZM143.94 8.38C144.07 8.38 144.16 8.29 144.16 8.17C144.16 8.06 144.07 7.97 143.94 7.97C143.83 7.97 143.74 8.06 143.74 8.17C143.74 8.29 143.83 8.38 143.94 8.38ZM143.13 8.38C143.24 8.38 143.33 8.29 143.33 8.17C143.33 8.06 143.24 7.97 143.13 7.97C142.99 7.97 142.9 8.06 142.9 8.17C142.9 8.29 142.99 8.38 143.13 8.38ZM140.62 8.38C140.73 8.38 140.82 8.29 140.82 8.17C140.82 8.06 140.73 7.97 140.62 7.97C140.51 7.97 140.41 8.06 140.41 8.17C140.41 8.29 140.51 8.38 140.62 8.38ZM145.61 8.38C145.73 8.38 145.82 8.29 145.82 8.17C145.82 8.06 145.73 7.97 145.61 7.97C145.5 7.97 145.41 8.06 145.41 8.17C145.41 8.29 145.5 8.38 145.61 8.38ZM144.78 8.38C144.89 8.38 144.98 8.29 144.98 8.17C144.98 8.06 144.89 7.97 144.78 7.97C144.66 7.97 144.57 8.06 144.57 8.17C144.57 8.29 144.66 8.38 144.78 8.38ZM147.29 8.38C147.41 8.38 147.5 8.29 147.5 8.17C147.5 8.06 147.41 7.97 147.29 7.97C147.18 7.97 147.09 8.06 147.09 8.17C147.09 8.29 147.18 8.38 147.29 8.38ZM139.78 8.38C139.89 8.38 140.01 8.29 140.01 8.17C140.01 8.06 139.89 7.97 139.78 7.97C139.67 7.97 139.58 8.06 139.58 8.17C139.58 8.29 139.67 8.38 139.78 8.38ZM138.95 8.38C139.07 8.38 139.17 8.29 139.17 8.17C139.17 8.06 139.07 7.97 138.95 7.97C138.83 7.97 138.74 8.06 138.74 8.17C138.74 8.29 138.83 8.38 138.95 8.38ZM138.13 8.38C138.23 8.38 138.33 8.29 138.33 8.17C138.33 8.06 138.23 7.97 138.13 7.97C138.02 7.97 137.91 8.06 137.91 8.17C137.91 8.29 138.02 8.38 138.13 8.38ZM138.53 9.19C138.64 9.19 138.74 9.09 138.74 8.98C138.74 8.87 138.64 8.78 138.53 8.78C138.42 8.78 138.33 8.87 138.33 8.98C138.33 9.09 138.42 9.19 138.53 9.19ZM144.37 9.19C144.48 9.19 144.57 9.09 144.57 8.98C144.57 8.87 144.48 8.78 144.37 8.78C144.25 8.78 144.16 8.87 144.16 8.98C144.16 9.09 144.25 9.19 144.37 9.19ZM139.37 9.19C139.48 9.19 139.58 9.09 139.58 8.98C139.58 8.87 139.48 8.78 139.37 8.78C139.26 8.78 139.17 8.87 139.17 8.98C139.17 9.09 139.26 9.19 139.37 9.19ZM146.03 9.19C146.16 9.19 146.25 9.09 146.25 8.98C146.25 8.87 146.16 8.78 146.03 8.78C145.91 8.78 145.82 8.87 145.82 8.98C145.82 9.09 145.91 9.19 146.03 9.19ZM142.7 9.19C142.81 9.19 142.9 9.09 142.9 8.98C142.9 8.87 142.81 8.78 142.7 8.78C142.58 8.78 142.49 8.87 142.49 8.98C142.49 9.09 142.58 9.19 142.7 9.19ZM140.21 9.19C140.32 9.19 140.41 9.09 140.41 8.98C140.41 8.87 140.32 8.78 140.21 8.78C140.1 8.78 140.01 8.87 140.01 8.98C140.01 9.09 140.1 9.19 140.21 9.19ZM143.54 9.19C143.65 9.19 143.74 9.09 143.74 8.98C143.74 8.87 143.65 8.78 143.54 8.78C143.42 8.78 143.33 8.87 143.33 8.98C143.33 9.09 143.42 9.19 143.54 9.19ZM146.85 9.19C146.97 9.19 147.08 9.09 147.08 8.98C147.08 8.87 146.97 8.78 146.85 8.78C146.75 8.78 146.66 8.87 146.66 8.98C146.66 9.09 146.75 9.19 146.85 9.19ZM141.05 9.19C141.15 9.19 141.24 9.09 141.24 8.98C141.24 8.87 141.15 8.78 141.05 8.78C140.92 8.78 140.82 8.87 140.82 8.98C140.82 9.09 140.92 9.19 141.05 9.19ZM145.21 9.19C145.32 9.19 145.41 9.09 145.41 8.98C145.41 8.87 145.32 8.78 145.21 8.78C145.09 8.78 144.98 8.87 144.98 8.98C144.98 9.09 145.09 9.19 145.21 9.19ZM141.86 9.19C141.97 9.19 142.08 9.09 142.08 8.98C142.08 8.87 141.97 8.78 141.86 8.78C141.75 8.78 141.65 8.87 141.65 8.98C141.65 9.09 141.75 9.19 141.86 9.19ZM137.7 9.19C137.81 9.19 137.91 9.09 137.91 8.98C137.91 8.87 137.81 8.78 137.7 8.78C137.59 8.78 137.5 8.87 137.5 8.98C137.5 9.09 137.59 9.19 137.7 9.19ZM142.29 10C142.4 10 142.49 9.9 142.49 9.79C142.49 9.68 142.4 9.59 142.29 9.59C142.18 9.59 142.08 9.68 142.08 9.79C142.08 9.9 142.18 10 142.29 10ZM138.95 10C139.07 10 139.17 9.9 139.17 9.79C139.17 9.68 139.07 9.59 138.95 9.59C138.83 9.59 138.74 9.68 138.74 9.79C138.74 9.9 138.83 10 138.95 10ZM144.78 10C144.89 10 144.98 9.9 144.98 9.79C144.98 9.68 144.89 9.59 144.78 9.59C144.66 9.59 144.57 9.68 144.57 9.79C144.57 9.9 144.66 10 144.78 10ZM139.78 10C139.89 10 140.01 9.9 140.01 9.79C140.01 9.68 139.89 9.59 139.78 9.59C139.67 9.59 139.58 9.68 139.58 9.79C139.58 9.9 139.67 10 139.78 10ZM147.29 10C147.41 10 147.5 9.9 147.5 9.79C147.5 9.68 147.41 9.59 147.29 9.59C147.18 9.59 147.09 9.68 147.09 9.79C147.09 9.9 147.18 10 147.29 10ZM143.94 10C144.07 10 144.16 9.9 144.16 9.79C144.16 9.68 144.07 9.59 143.94 9.59C143.83 9.59 143.74 9.68 143.74 9.79C143.74 9.9 143.83 10 143.94 10ZM140.62 10C140.73 10 140.82 9.9 140.82 9.79C140.82 9.68 140.73 9.59 140.62 9.59C140.51 9.59 140.41 9.68 140.41 9.79C140.41 9.9 140.51 10 140.62 10ZM138.13 10C138.23 10 138.33 9.9 138.33 9.79C138.33 9.68 138.23 9.59 138.13 9.59C138.02 9.59 137.91 9.68 137.91 9.79C137.91 9.9 138.02 10 138.13 10ZM145.61 10C145.73 10 145.82 9.9 145.82 9.79C145.82 9.68 145.73 9.59 145.61 9.59C145.5 9.59 145.41 9.68 145.41 9.79C145.41 9.9 145.5 10 145.61 10ZM143.13 10C143.24 10 143.33 9.9 143.33 9.79C143.33 9.68 143.24 9.59 143.13 9.59C142.99 9.59 142.9 9.68 142.9 9.79C142.9 9.9 142.99 10 143.13 10ZM141.45 10C141.56 10 141.65 9.9 141.65 9.79C141.65 9.68 141.56 9.59 141.45 9.59C141.34 9.59 141.24 9.68 141.24 9.79C141.24 9.9 141.34 10 141.45 10ZM146.45 10C146.57 10 146.66 9.9 146.66 9.79C146.66 9.68 146.57 9.59 146.45 9.59C146.34 9.59 146.25 9.68 146.25 9.79C146.25 9.9 146.34 10 146.45 10ZM146.03 10.79C146.16 10.79 146.25 10.7 146.25 10.59C146.25 10.46 146.16 10.37 146.03 10.37C145.91 10.37 145.82 10.46 145.82 10.59C145.82 10.7 145.91 10.79 146.03 10.79ZM146.85 10.79C146.97 10.79 147.08 10.7 147.08 10.59C147.08 10.46 146.97 10.37 146.85 10.37C146.75 10.37 146.66 10.46 146.66 10.59C146.66 10.7 146.75 10.79 146.85 10.79ZM139.37 10.79C139.48 10.79 139.58 10.7 139.58 10.59C139.58 10.46 139.48 10.37 139.37 10.37C139.26 10.37 139.17 10.46 139.17 10.59C139.17 10.7 139.26 10.79 139.37 10.79ZM137.7 10.79C137.81 10.79 137.91 10.7 137.91 10.59C137.91 10.46 137.81 10.37 137.7 10.37C137.59 10.37 137.5 10.46 137.5 10.59C137.5 10.7 137.59 10.79 137.7 10.79ZM145.21 10.79C145.32 10.79 145.41 10.7 145.41 10.59C145.41 10.46 145.32 10.37 145.21 10.37C145.09 10.37 144.98 10.46 144.98 10.59C144.98 10.7 145.09 10.79 145.21 10.79ZM140.21 10.79C140.32 10.79 140.41 10.7 140.41 10.59C140.41 10.46 140.32 10.37 140.21 10.37C140.1 10.37 140.01 10.46 140.01 10.59C140.01 10.7 140.1 10.79 140.21 10.79ZM141.05 10.79C141.15 10.79 141.24 10.7 141.24 10.59C141.24 10.46 141.15 10.37 141.05 10.37C140.92 10.37 140.82 10.46 140.82 10.59C140.82 10.7 140.92 10.79 141.05 10.79ZM144.37 10.79C144.48 10.79 144.57 10.7 144.57 10.59C144.57 10.46 144.48 10.37 144.37 10.37C144.25 10.37 144.16 10.46 144.16 10.59C144.16 10.7 144.25 10.79 144.37 10.79ZM141.86 10.79C141.97 10.79 142.08 10.7 142.08 10.59C142.08 10.46 141.97 10.37 141.86 10.37C141.75 10.37 141.65 10.46 141.65 10.59C141.65 10.7 141.75 10.79 141.86 10.79ZM142.7 10.79C142.81 10.79 142.9 10.7 142.9 10.59C142.9 10.46 142.81 10.37 142.7 10.37C142.58 10.37 142.49 10.46 142.49 10.59C142.49 10.7 142.58 10.79 142.7 10.79ZM138.53 10.79C138.64 10.79 138.74 10.7 138.74 10.59C138.74 10.46 138.64 10.37 138.53 10.37C138.42 10.37 138.33 10.46 138.33 10.59C138.33 10.7 138.42 10.79 138.53 10.79ZM143.54 10.79C143.65 10.79 143.74 10.7 143.74 10.59C143.74 10.46 143.65 10.37 143.54 10.37C143.42 10.37 143.33 10.46 143.33 10.59C143.33 10.7 143.42 10.79 143.54 10.79ZM146.45 11.6C146.57 11.6 146.66 11.49 146.66 11.38C146.66 11.26 146.57 11.17 146.45 11.17C146.34 11.17 146.25 11.26 146.25 11.38C146.25 11.49 146.34 11.6 146.45 11.6ZM140.62 11.6C140.73 11.6 140.82 11.49 140.82 11.38C140.82 11.26 140.73 11.17 140.62 11.17C140.51 11.17 140.41 11.26 140.41 11.38C140.41 11.49 140.51 11.6 140.62 11.6ZM141.45 11.6C141.56 11.6 141.65 11.49 141.65 11.38C141.65 11.26 141.56 11.17 141.45 11.17C141.34 11.17 141.24 11.26 141.24 11.38C141.24 11.49 141.34 11.6 141.45 11.6ZM139.78 11.6C139.89 11.6 140.01 11.49 140.01 11.38C140.01 11.26 139.89 11.17 139.78 11.17C139.67 11.17 139.58 11.26 139.58 11.38C139.58 11.49 139.67 11.6 139.78 11.6ZM142.29 11.6C142.4 11.6 142.49 11.49 142.49 11.38C142.49 11.26 142.4 11.17 142.29 11.17C142.18 11.17 142.08 11.26 142.08 11.38C142.08 11.49 142.18 11.6 142.29 11.6ZM143.13 11.6C143.24 11.6 143.33 11.49 143.33 11.38C143.33 11.26 143.24 11.17 143.13 11.17C142.99 11.17 142.9 11.26 142.9 11.38C142.9 11.49 142.99 11.6 143.13 11.6ZM143.94 11.6C144.07 11.6 144.16 11.49 144.16 11.38C144.16 11.26 144.07 11.17 143.94 11.17C143.83 11.17 143.74 11.26 143.74 11.38C143.74 11.49 143.83 11.6 143.94 11.6ZM147.29 11.6C147.41 11.6 147.5 11.49 147.5 11.38C147.5 11.26 147.41 11.17 147.29 11.17C147.18 11.17 147.09 11.26 147.09 11.38C147.09 11.49 147.18 11.6 147.29 11.6ZM144.78 11.6C144.89 11.6 144.98 11.49 144.98 11.38C144.98 11.26 144.89 11.17 144.78 11.17C144.66 11.17 144.57 11.26 144.57 11.38C144.57 11.49 144.66 11.6 144.78 11.6ZM138.95 11.6C139.07 11.6 139.17 11.49 139.17 11.38C139.17 11.26 139.07 11.17 138.95 11.17C138.83 11.17 138.74 11.26 138.74 11.38C138.74 11.49 138.83 11.6 138.95 11.6ZM145.61 11.6C145.73 11.6 145.82 11.49 145.82 11.38C145.82 11.26 145.73 11.17 145.61 11.17C145.5 11.17 145.41 11.26 145.41 11.38C145.41 11.49 145.5 11.6 145.61 11.6ZM138.13 11.6C138.23 11.6 138.33 11.49 138.33 11.38C138.33 11.26 138.23 11.17 138.13 11.17C138.02 11.17 137.91 11.26 137.91 11.38C137.91 11.49 138.02 11.6 138.13 11.6ZM145.21 12.39C145.32 12.39 145.41 12.3 145.41 12.19C145.41 12.07 145.32 11.98 145.21 11.98C145.09 11.98 144.98 12.07 144.98 12.19C144.98 12.3 145.09 12.39 145.21 12.39ZM141.05 12.39C141.15 12.39 141.24 12.3 141.24 12.19C141.24 12.07 141.15 11.98 141.05 11.98C140.92 11.98 140.82 12.07 140.82 12.19C140.82 12.3 140.92 12.39 141.05 12.39ZM146.85 12.39C146.97 12.39 147.08 12.3 147.08 12.19C147.08 12.07 146.97 11.98 146.85 11.98C146.75 11.98 146.66 12.07 146.66 12.19C146.66 12.3 146.75 12.39 146.85 12.39ZM139.37 12.39C139.48 12.39 139.58 12.3 139.58 12.19C139.58 12.07 139.48 11.98 139.37 11.98C139.26 11.98 139.17 12.07 139.17 12.19C139.17 12.3 139.26 12.39 139.37 12.39ZM141.86 12.39C141.97 12.39 142.08 12.3 142.08 12.19C142.08 12.07 141.97 11.98 141.86 11.98C141.75 11.98 141.65 12.07 141.65 12.19C141.65 12.3 141.75 12.39 141.86 12.39ZM146.03 12.39C146.16 12.39 146.25 12.3 146.25 12.19C146.25 12.07 146.16 11.98 146.03 11.98C145.91 11.98 145.82 12.07 145.82 12.19C145.82 12.3 145.91 12.39 146.03 12.39ZM137.7 12.39C137.81 12.39 137.91 12.3 137.91 12.19C137.91 12.07 137.81 11.98 137.7 11.98C137.59 11.98 137.5 12.07 137.5 12.19C137.5 12.3 137.59 12.39 137.7 12.39ZM142.7 12.39C142.81 12.39 142.9 12.3 142.9 12.19C142.9 12.07 142.81 11.98 142.7 11.98C142.58 11.98 142.49 12.07 142.49 12.19C142.49 12.3 142.58 12.39 142.7 12.39ZM143.54 12.39C143.65 12.39 143.74 12.3 143.74 12.19C143.74 12.07 143.65 11.98 143.54 11.98C143.42 11.98 143.33 12.07 143.33 12.19C143.33 12.3 143.42 12.39 143.54 12.39ZM138.53 12.39C138.64 12.39 138.74 12.3 138.74 12.19C138.74 12.07 138.64 11.98 138.53 11.98C138.42 11.98 138.33 12.07 138.33 12.19C138.33 12.3 138.42 12.39 138.53 12.39ZM144.37 12.39C144.48 12.39 144.57 12.3 144.57 12.19C144.57 12.07 144.48 11.98 144.37 11.98C144.25 11.98 144.16 12.07 144.16 12.19C144.16 12.3 144.25 12.39 144.37 12.39ZM140.21 12.39C140.32 12.39 140.41 12.3 140.41 12.19C140.41 12.07 140.32 11.98 140.21 11.98C140.1 11.98 140.01 12.07 140.01 12.19C140.01 12.3 140.1 12.39 140.21 12.39ZM146.45 13.2C146.57 13.2 146.66 13.11 146.66 12.99C146.66 12.88 146.57 12.79 146.45 12.79C146.34 12.79 146.25 12.88 146.25 12.99C146.25 13.11 146.34 13.2 146.45 13.2ZM145.61 13.2C145.73 13.2 145.82 13.11 145.82 12.99C145.82 12.88 145.73 12.79 145.61 12.79C145.5 12.79 145.41 12.88 145.41 12.99C145.41 13.11 145.5 13.2 145.61 13.2ZM144.78 13.2C144.89 13.2 144.98 13.11 144.98 12.99C144.98 12.88 144.89 12.79 144.78 12.79C144.66 12.79 144.57 12.88 144.57 12.99C144.57 13.11 144.66 13.2 144.78 13.2ZM138.13 13.2C138.23 13.2 138.33 13.11 138.33 12.99C138.33 12.88 138.23 12.79 138.13 12.79C138.02 12.79 137.91 12.88 137.91 12.99C137.91 13.11 138.02 13.2 138.13 13.2ZM143.94 13.2C144.07 13.2 144.16 13.11 144.16 12.99C144.16 12.88 144.07 12.79 143.94 12.79C143.83 12.79 143.74 12.88 143.74 12.99C143.74 13.11 143.83 13.2 143.94 13.2ZM143.13 13.2C143.24 13.2 143.33 13.11 143.33 12.99C143.33 12.88 143.24 12.79 143.13 12.79C142.99 12.79 142.9 12.88 142.9 12.99C142.9 13.11 142.99 13.2 143.13 13.2ZM138.95 13.2C139.07 13.2 139.17 13.11 139.17 12.99C139.17 12.88 139.07 12.79 138.95 12.79C138.83 12.79 138.74 12.88 138.74 12.99C138.74 13.11 138.83 13.2 138.95 13.2ZM142.29 13.2C142.4 13.2 142.49 13.11 142.49 12.99C142.49 12.88 142.4 12.79 142.29 12.79C142.18 12.79 142.08 12.88 142.08 12.99C142.08 13.11 142.18 13.2 142.29 13.2ZM147.29 13.2C147.41 13.2 147.5 13.11 147.5 12.99C147.5 12.88 147.41 12.79 147.29 12.79C147.18 12.79 147.09 12.88 147.09 12.99C147.09 13.11 147.18 13.2 147.29 13.2ZM141.45 13.2C141.56 13.2 141.65 13.11 141.65 12.99C141.65 12.88 141.56 12.79 141.45 12.79C141.34 12.79 141.24 12.88 141.24 12.99C141.24 13.11 141.34 13.2 141.45 13.2ZM140.62 13.2C140.73 13.2 140.82 13.11 140.82 12.99C140.82 12.88 140.73 12.79 140.62 12.79C140.51 12.79 140.41 12.88 140.41 12.99C140.41 13.11 140.51 13.2 140.62 13.2ZM139.78 13.2C139.89 13.2 140.01 13.11 140.01 12.99C140.01 12.88 139.89 12.79 139.78 12.79C139.67 12.79 139.58 12.88 139.58 12.99C139.58 13.11 139.67 13.2 139.78 13.2ZM142.7 14C142.81 14 142.9 13.91 142.9 13.79C142.9 13.68 142.81 13.59 142.7 13.59C142.58 13.59 142.49 13.68 142.49 13.79C142.49 13.91 142.58 14 142.7 14ZM137.7 14C137.81 14 137.91 13.91 137.91 13.79C137.91 13.68 137.81 13.59 137.7 13.59C137.59 13.59 137.5 13.68 137.5 13.79C137.5 13.91 137.59 14 137.7 14ZM138.53 14C138.64 14 138.74 13.91 138.74 13.79C138.74 13.68 138.64 13.59 138.53 13.59C138.42 13.59 138.33 13.68 138.33 13.79C138.33 13.91 138.42 14 138.53 14ZM139.37 14C139.48 14 139.58 13.91 139.58 13.79C139.58 13.68 139.48 13.59 139.37 13.59C139.26 13.59 139.17 13.68 139.17 13.79C139.17 13.91 139.26 14 139.37 14ZM140.21 14C140.32 14 140.41 13.91 140.41 13.79C140.41 13.68 140.32 13.59 140.21 13.59C140.1 13.59 140.01 13.68 140.01 13.79C140.01 13.91 140.1 14 140.21 14ZM141.05 14C141.15 14 141.24 13.91 141.24 13.79C141.24 13.68 141.15 13.59 141.05 13.59C140.92 13.59 140.82 13.68 140.82 13.79C140.82 13.91 140.92 14 141.05 14ZM141.86 14C141.97 14 142.08 13.91 142.08 13.79C142.08 13.68 141.97 13.59 141.86 13.59C141.75 13.59 141.65 13.68 141.65 13.79C141.65 13.91 141.75 14 141.86 14ZM143.54 14C143.65 14 143.74 13.91 143.74 13.79C143.74 13.68 143.65 13.59 143.54 13.59C143.42 13.59 143.33 13.68 143.33 13.79C143.33 13.91 143.42 14 143.54 14ZM144.37 14C144.48 14 144.57 13.91 144.57 13.79C144.57 13.68 144.48 13.59 144.37 13.59C144.25 13.59 144.16 13.68 144.16 13.79C144.16 13.91 144.25 14 144.37 14ZM145.21 14C145.32 14 145.41 13.91 145.41 13.79C145.41 13.68 145.32 13.59 145.21 13.59C145.09 13.59 144.98 13.68 144.98 13.79C144.98 13.91 145.09 14 145.21 14ZM146.03 14C146.16 14 146.25 13.91 146.25 13.79C146.25 13.68 146.16 13.59 146.03 13.59C145.91 13.59 145.82 13.68 145.82 13.79C145.82 13.91 145.91 14 146.03 14ZM146.85 14C146.97 14 147.08 13.91 147.08 13.79C147.08 13.68 146.97 13.59 146.85 13.59C146.75 13.59 146.66 13.68 146.66 13.79C146.66 13.91 146.75 14 146.85 14Z" fill="#393C41"/>
<path d="M147.5 14V4H147.7C147.59 4 147.5 4.09 147.5 4.2C147.5 4.31 147.59 4.41 147.7 4.41C147.81 4.41 147.91 4.31 147.91 4.2C147.91 4.09 147.81 4 147.7 4H148.53C148.42 4 148.33 4.09 148.33 4.2C148.33 4.31 148.42 4.41 148.53 4.41C148.64 4.41 148.74 4.31 148.74 4.2C148.74 4.09 148.64 4 148.53 4H149.37C149.26 4 149.17 4.09 149.17 4.2C149.17 4.31 149.26 4.41 149.37 4.41C149.48 4.41 149.58 4.31 149.58 4.2C149.58 4.09 149.48 4 149.37 4H150.21C150.1 4 150.01 4.09 150.01 4.2C150.01 4.31 150.1 4.41 150.21 4.41C150.32 4.41 150.41 4.31 150.41 4.2C150.41 4.09 150.32 4 150.21 4H151.05C150.92 4 150.82 4.09 150.82 4.2C150.82 4.31 150.92 4.41 151.05 4.41C151.15 4.41 151.24 4.31 151.24 4.2C151.24 4.09 151.15 4 151.05 4H151.86C151.75 4 151.65 4.09 151.65 4.2C151.65 4.31 151.75 4.41 151.86 4.41C151.97 4.41 152.08 4.31 152.08 4.2C152.08 4.09 151.97 4 151.86 4H152.7C152.58 4 152.49 4.09 152.49 4.2C152.49 4.31 152.58 4.41 152.7 4.41C152.81 4.41 152.9 4.31 152.9 4.2C152.9 4.09 152.81 4 152.7 4H153.54C153.42 4 153.33 4.09 153.33 4.2C153.33 4.31 153.42 4.41 153.54 4.41C153.65 4.41 153.74 4.31 153.74 4.2C153.74 4.09 153.65 4 153.54 4H154.37C154.25 4 154.16 4.09 154.16 4.2C154.16 4.31 154.25 4.41 154.37 4.41C154.48 4.41 154.57 4.31 154.57 4.2C154.57 4.09 154.48 4 154.37 4H155.21C155.09 4 154.98 4.09 154.98 4.2C154.98 4.31 155.09 4.41 155.21 4.41C155.32 4.41 155.41 4.31 155.41 4.2C155.41 4.09 155.32 4 155.21 4H156.03C155.91 4 155.82 4.09 155.82 4.2C155.82 4.31 155.91 4.41 156.03 4.41C156.16 4.41 156.25 4.31 156.25 4.2C156.25 4.09 156.16 4 156.03 4H156.85C156.75 4 156.66 4.09 156.66 4.2C156.66 4.31 156.75 4.41 156.85 4.41C156.97 4.41 157.08 4.31 157.08 4.2C157.08 4.09 156.97 4 156.85 4H157.5V14H147.5ZM154.78 5.19C154.89 5.19 154.98 5.1 154.98 4.99C154.98 4.88 154.89 4.78 154.78 4.78C154.66 4.78 154.57 4.88 154.57 4.99C154.57 5.1 154.66 5.19 154.78 5.19ZM153.13 5.19C153.24 5.19 153.33 5.1 153.33 4.99C153.33 4.88 153.24 4.78 153.13 4.78C152.99 4.78 152.9 4.88 152.9 4.99C152.9 5.1 152.99 5.19 153.13 5.19ZM153.94 5.19C154.07 5.19 154.16 5.1 154.16 4.99C154.16 4.88 154.07 4.78 153.94 4.78C153.83 4.78 153.74 4.88 153.74 4.99C153.74 5.1 153.83 5.19 153.94 5.19ZM148.13 5.19C148.23 5.19 148.33 5.1 148.33 4.99C148.33 4.88 148.23 4.78 148.13 4.78C148.02 4.78 147.91 4.88 147.91 4.99C147.91 5.1 148.02 5.19 148.13 5.19ZM148.95 5.19C149.07 5.19 149.17 5.1 149.17 4.99C149.17 4.88 149.07 4.78 148.95 4.78C148.83 4.78 148.74 4.88 148.74 4.99C148.74 5.1 148.83 5.19 148.95 5.19ZM149.78 5.19C149.89 5.19 150.01 5.1 150.01 4.99C150.01 4.88 149.89 4.78 149.78 4.78C149.67 4.78 149.58 4.88 149.58 4.99C149.58 5.1 149.67 5.19 149.78 5.19ZM150.62 5.19C150.73 5.19 150.82 5.1 150.82 4.99C150.82 4.88 150.73 4.78 150.62 4.78C150.51 4.78 150.41 4.88 150.41 4.99C150.41 5.1 150.51 5.19 150.62 5.19ZM151.45 5.19C151.56 5.19 151.65 5.1 151.65 4.99C151.65 4.88 151.56 4.78 151.45 4.78C151.34 4.78 151.24 4.88 151.24 4.99C151.24 5.1 151.34 5.19 151.45 5.19ZM152.29 5.19C152.4 5.19 152.49 5.1 152.49 4.99C152.49 4.88 152.4 4.78 152.29 4.78C152.18 4.78 152.08 4.88 152.08 4.99C152.08 5.1 152.18 5.19 152.29 5.19ZM155.61 5.19C155.73 5.19 155.82 5.1 155.82 4.99C155.82 4.88 155.73 4.78 155.61 4.78C155.5 4.78 155.41 4.88 155.41 4.99C155.41 5.1 155.5 5.19 155.61 5.19ZM156.45 5.19C156.57 5.19 156.66 5.1 156.66 4.99C156.66 4.88 156.57 4.78 156.45 4.78C156.34 4.78 156.25 4.88 156.25 4.99C156.25 5.1 156.34 5.19 156.45 5.19ZM157.29 5.19C157.41 5.19 157.5 5.1 157.5 4.99C157.5 4.88 157.41 4.78 157.29 4.78C157.18 4.78 157.09 4.88 157.09 4.99C157.09 5.1 157.18 5.19 157.29 5.19ZM155.21 5.99C155.32 5.99 155.41 5.9 155.41 5.79C155.41 5.68 155.32 5.58 155.21 5.58C155.09 5.58 154.98 5.68 154.98 5.79C154.98 5.9 155.09 5.99 155.21 5.99ZM149.37 5.99C149.48 5.99 149.58 5.9 149.58 5.79C149.58 5.68 149.48 5.58 149.37 5.58C149.26 5.58 149.17 5.68 149.17 5.79C149.17 5.9 149.26 5.99 149.37 5.99ZM152.7 5.99C152.81 5.99 152.9 5.9 152.9 5.79C152.9 5.68 152.81 5.58 152.7 5.58C152.58 5.58 152.49 5.68 152.49 5.79C152.49 5.9 152.58 5.99 152.7 5.99ZM156.03 5.99C156.16 5.99 156.25 5.9 156.25 5.79C156.25 5.68 156.16 5.58 156.03 5.58C155.91 5.58 155.82 5.68 155.82 5.79C155.82 5.9 155.91 5.99 156.03 5.99ZM151.86 5.99C151.97 5.99 152.08 5.9 152.08 5.79C152.08 5.68 151.97 5.58 151.86 5.58C151.75 5.58 151.65 5.68 151.65 5.79C151.65 5.9 151.75 5.99 151.86 5.99ZM150.21 5.99C150.32 5.99 150.41 5.9 150.41 5.79C150.41 5.68 150.32 5.58 150.21 5.58C150.1 5.58 150.01 5.68 150.01 5.79C150.01 5.9 150.1 5.99 150.21 5.99ZM153.54 5.99C153.65 5.99 153.74 5.9 153.74 5.79C153.74 5.68 153.65 5.58 153.54 5.58C153.42 5.58 153.33 5.68 153.33 5.79C153.33 5.9 153.42 5.99 153.54 5.99ZM147.7 5.99C147.81 5.99 147.91 5.9 147.91 5.79C147.91 5.68 147.81 5.58 147.7 5.58C147.59 5.58 147.5 5.68 147.5 5.79C147.5 5.9 147.59 5.99 147.7 5.99ZM154.37 5.99C154.48 5.99 154.57 5.9 154.57 5.79C154.57 5.68 154.48 5.58 154.37 5.58C154.25 5.58 154.16 5.68 154.16 5.79C154.16 5.9 154.25 5.99 154.37 5.99ZM151.05 5.99C151.15 5.99 151.24 5.9 151.24 5.79C151.24 5.68 151.15 5.58 151.05 5.58C150.92 5.58 150.82 5.68 150.82 5.79C150.82 5.9 150.92 5.99 151.05 5.99ZM148.53 5.99C148.64 5.99 148.74 5.9 148.74 5.79C148.74 5.68 148.64 5.58 148.53 5.58C148.42 5.58 148.33 5.68 148.33 5.79C148.33 5.9 148.42 5.99 148.53 5.99ZM156.85 5.99C156.97 5.99 157.08 5.9 157.08 5.79C157.08 5.68 156.97 5.58 156.85 5.58C156.75 5.58 156.66 5.68 156.66 5.79C156.66 5.9 156.75 5.99 156.85 5.99ZM151.45 6.79C151.56 6.79 151.65 6.7 151.65 6.59C151.65 6.46 151.56 6.36 151.45 6.36C151.34 6.36 151.24 6.46 151.24 6.59C151.24 6.7 151.34 6.79 151.45 6.79ZM153.13 6.79C153.24 6.79 153.33 6.7 153.33 6.59C153.33 6.46 153.24 6.36 153.13 6.36C152.99 6.36 152.9 6.46 152.9 6.59C152.9 6.7 152.99 6.79 153.13 6.79ZM149.78 6.79C149.89 6.79 150.01 6.7 150.01 6.59C150.01 6.46 149.89 6.36 149.78 6.36C149.67 6.36 149.58 6.46 149.58 6.59C149.58 6.7 149.67 6.79 149.78 6.79ZM148.13 6.79C148.23 6.79 148.33 6.7 148.33 6.59C148.33 6.46 148.23 6.36 148.13 6.36C148.02 6.36 147.91 6.46 147.91 6.59C147.91 6.7 148.02 6.79 148.13 6.79ZM148.95 6.79C149.07 6.79 149.17 6.7 149.17 6.59C149.17 6.46 149.07 6.36 148.95 6.36C148.83 6.36 148.74 6.46 148.74 6.59C148.74 6.7 148.83 6.79 148.95 6.79ZM155.61 6.79C155.73 6.79 155.82 6.7 155.82 6.59C155.82 6.46 155.73 6.36 155.61 6.36C155.5 6.36 155.41 6.46 155.41 6.59C155.41 6.7 155.5 6.79 155.61 6.79ZM157.29 6.79C157.41 6.79 157.5 6.7 157.5 6.59C157.5 6.46 157.41 6.36 157.29 6.36C157.18 6.36 157.09 6.46 157.09 6.59C157.09 6.7 157.18 6.79 157.29 6.79ZM152.29 6.79C152.4 6.79 152.49 6.7 152.49 6.59C152.49 6.46 152.4 6.36 152.29 6.36C152.18 6.36 152.08 6.46 152.08 6.59C152.08 6.7 152.18 6.79 152.29 6.79ZM156.45 6.79C156.57 6.79 156.66 6.7 156.66 6.59C156.66 6.46 156.57 6.36 156.45 6.36C156.34 6.36 156.25 6.46 156.25 6.59C156.25 6.7 156.34 6.79 156.45 6.79ZM153.94 6.79C154.07 6.79 154.16 6.7 154.16 6.59C154.16 6.46 154.07 6.36 153.94 6.36C153.83 6.36 153.74 6.46 153.74 6.59C153.74 6.7 153.83 6.79 153.94 6.79ZM150.62 6.79C150.73 6.79 150.82 6.7 150.82 6.59C150.82 6.46 150.73 6.36 150.62 6.36C150.51 6.36 150.41 6.46 150.41 6.59C150.41 6.7 150.51 6.79 150.62 6.79ZM154.78 6.79C154.89 6.79 154.98 6.7 154.98 6.59C154.98 6.46 154.89 6.36 154.78 6.36C154.66 6.36 154.57 6.46 154.57 6.59C154.57 6.7 154.66 6.79 154.78 6.79ZM154.37 7.59C154.48 7.59 154.57 7.51 154.57 7.37C154.57 7.26 154.48 7.17 154.37 7.17C154.25 7.17 154.16 7.26 154.16 7.37C154.16 7.51 154.25 7.59 154.37 7.59ZM150.21 7.59C150.32 7.59 150.41 7.51 150.41 7.37C150.41 7.26 150.32 7.17 150.21 7.17C150.1 7.17 150.01 7.26 150.01 7.37C150.01 7.51 150.1 7.59 150.21 7.59ZM155.21 7.59C155.32 7.59 155.41 7.51 155.41 7.37C155.41 7.26 155.32 7.17 155.21 7.17C155.09 7.17 154.98 7.26 154.98 7.37C154.98 7.51 155.09 7.59 155.21 7.59ZM156.85 7.59C156.97 7.59 157.08 7.51 157.08 7.37C157.08 7.26 156.97 7.17 156.85 7.17C156.75 7.17 156.66 7.26 156.66 7.37C156.66 7.51 156.75 7.59 156.85 7.59ZM153.54 7.59C153.65 7.59 153.74 7.51 153.74 7.37C153.74 7.26 153.65 7.17 153.54 7.17C153.42 7.17 153.33 7.26 153.33 7.37C153.33 7.51 153.42 7.59 153.54 7.59ZM149.37 7.59C149.48 7.59 149.58 7.51 149.58 7.37C149.58 7.26 149.48 7.17 149.37 7.17C149.26 7.17 149.17 7.26 149.17 7.37C149.17 7.51 149.26 7.59 149.37 7.59ZM151.86 7.59C151.97 7.59 152.08 7.51 152.08 7.37C152.08 7.26 151.97 7.17 151.86 7.17C151.75 7.17 151.65 7.26 151.65 7.37C151.65 7.51 151.75 7.59 151.86 7.59ZM156.03 7.59C156.16 7.59 156.25 7.51 156.25 7.37C156.25 7.26 156.16 7.17 156.03 7.17C155.91 7.17 155.82 7.26 155.82 7.37C155.82 7.51 155.91 7.59 156.03 7.59ZM152.7 7.59C152.81 7.59 152.9 7.51 152.9 7.37C152.9 7.26 152.81 7.17 152.7 7.17C152.58 7.17 152.49 7.26 152.49 7.37C152.49 7.51 152.58 7.59 152.7 7.59ZM147.7 7.59C147.81 7.59 147.91 7.51 147.91 7.37C147.91 7.26 147.81 7.17 147.7 7.17C147.59 7.17 147.5 7.26 147.5 7.37C147.5 7.51 147.59 7.59 147.7 7.59ZM148.53 7.59C148.64 7.59 148.74 7.51 148.74 7.37C148.74 7.26 148.64 7.17 148.53 7.17C148.42 7.17 148.33 7.26 148.33 7.37C148.33 7.51 148.42 7.59 148.53 7.59ZM151.05 7.59C151.15 7.59 151.24 7.51 151.24 7.37C151.24 7.26 151.15 7.17 151.05 7.17C150.92 7.17 150.82 7.26 150.82 7.37C150.82 7.51 150.92 7.59 151.05 7.59ZM156.45 8.38C156.57 8.38 156.66 8.29 156.66 8.17C156.66 8.06 156.57 7.97 156.45 7.97C156.34 7.97 156.25 8.06 156.25 8.17C156.25 8.29 156.34 8.38 156.45 8.38ZM151.45 8.38C151.56 8.38 151.65 8.29 151.65 8.17C151.65 8.06 151.56 7.97 151.45 7.97C151.34 7.97 151.24 8.06 151.24 8.17C151.24 8.29 151.34 8.38 151.45 8.38ZM152.29 8.38C152.4 8.38 152.49 8.29 152.49 8.17C152.49 8.06 152.4 7.97 152.29 7.97C152.18 7.97 152.08 8.06 152.08 8.17C152.08 8.29 152.18 8.38 152.29 8.38ZM153.94 8.38C154.07 8.38 154.16 8.29 154.16 8.17C154.16 8.06 154.07 7.97 153.94 7.97C153.83 7.97 153.74 8.06 153.74 8.17C153.74 8.29 153.83 8.38 153.94 8.38ZM153.13 8.38C153.24 8.38 153.33 8.29 153.33 8.17C153.33 8.06 153.24 7.97 153.13 7.97C152.99 7.97 152.9 8.06 152.9 8.17C152.9 8.29 152.99 8.38 153.13 8.38ZM150.62 8.38C150.73 8.38 150.82 8.29 150.82 8.17C150.82 8.06 150.73 7.97 150.62 7.97C150.51 7.97 150.41 8.06 150.41 8.17C150.41 8.29 150.51 8.38 150.62 8.38ZM155.61 8.38C155.73 8.38 155.82 8.29 155.82 8.17C155.82 8.06 155.73 7.97 155.61 7.97C155.5 7.97 155.41 8.06 155.41 8.17C155.41 8.29 155.5 8.38 155.61 8.38ZM154.78 8.38C154.89 8.38 154.98 8.29 154.98 8.17C154.98 8.06 154.89 7.97 154.78 7.97C154.66 7.97 154.57 8.06 154.57 8.17C154.57 8.29 154.66 8.38 154.78 8.38ZM157.29 8.38C157.41 8.38 157.5 8.29 157.5 8.17C157.5 8.06 157.41 7.97 157.29 7.97C157.18 7.97 157.09 8.06 157.09 8.17C157.09 8.29 157.18 8.38 157.29 8.38ZM149.78 8.38C149.89 8.38 150.01 8.29 150.01 8.17C150.01 8.06 149.89 7.97 149.78 7.97C149.67 7.97 149.58 8.06 149.58 8.17C149.58 8.29 149.67 8.38 149.78 8.38ZM148.95 8.38C149.07 8.38 149.17 8.29 149.17 8.17C149.17 8.06 149.07 7.97 148.95 7.97C148.83 7.97 148.74 8.06 148.74 8.17C148.74 8.29 148.83 8.38 148.95 8.38ZM148.13 8.38C148.23 8.38 148.33 8.29 148.33 8.17C148.33 8.06 148.23 7.97 148.13 7.97C148.02 7.97 147.91 8.06 147.91 8.17C147.91 8.29 148.02 8.38 148.13 8.38ZM148.53 9.19C148.64 9.19 148.74 9.09 148.74 8.98C148.74 8.87 148.64 8.78 148.53 8.78C148.42 8.78 148.33 8.87 148.33 8.98C148.33 9.09 148.42 9.19 148.53 9.19ZM154.37 9.19C154.48 9.19 154.57 9.09 154.57 8.98C154.57 8.87 154.48 8.78 154.37 8.78C154.25 8.78 154.16 8.87 154.16 8.98C154.16 9.09 154.25 9.19 154.37 9.19ZM149.37 9.19C149.48 9.19 149.58 9.09 149.58 8.98C149.58 8.87 149.48 8.78 149.37 8.78C149.26 8.78 149.17 8.87 149.17 8.98C149.17 9.09 149.26 9.19 149.37 9.19ZM156.03 9.19C156.16 9.19 156.25 9.09 156.25 8.98C156.25 8.87 156.16 8.78 156.03 8.78C155.91 8.78 155.82 8.87 155.82 8.98C155.82 9.09 155.91 9.19 156.03 9.19ZM152.7 9.19C152.81 9.19 152.9 9.09 152.9 8.98C152.9 8.87 152.81 8.78 152.7 8.78C152.58 8.78 152.49 8.87 152.49 8.98C152.49 9.09 152.58 9.19 152.7 9.19ZM150.21 9.19C150.32 9.19 150.41 9.09 150.41 8.98C150.41 8.87 150.32 8.78 150.21 8.78C150.1 8.78 150.01 8.87 150.01 8.98C150.01 9.09 150.1 9.19 150.21 9.19ZM153.54 9.19C153.65 9.19 153.74 9.09 153.74 8.98C153.74 8.87 153.65 8.78 153.54 8.78C153.42 8.78 153.33 8.87 153.33 8.98C153.33 9.09 153.42 9.19 153.54 9.19ZM156.85 9.19C156.97 9.19 157.08 9.09 157.08 8.98C157.08 8.87 156.97 8.78 156.85 8.78C156.75 8.78 156.66 8.87 156.66 8.98C156.66 9.09 156.75 9.19 156.85 9.19ZM151.05 9.19C151.15 9.19 151.24 9.09 151.24 8.98C151.24 8.87 151.15 8.78 151.05 8.78C150.92 8.78 150.82 8.87 150.82 8.98C150.82 9.09 150.92 9.19 151.05 9.19ZM155.21 9.19C155.32 9.19 155.41 9.09 155.41 8.98C155.41 8.87 155.32 8.78 155.21 8.78C155.09 8.78 154.98 8.87 154.98 8.98C154.98 9.09 155.09 9.19 155.21 9.19ZM151.86 9.19C151.97 9.19 152.08 9.09 152.08 8.98C152.08 8.87 151.97 8.78 151.86 8.78C151.75 8.78 151.65 8.87 151.65 8.98C151.65 9.09 151.75 9.19 151.86 9.19ZM147.7 9.19C147.81 9.19 147.91 9.09 147.91 8.98C147.91 8.87 147.81 8.78 147.7 8.78C147.59 8.78 147.5 8.87 147.5 8.98C147.5 9.09 147.59 9.19 147.7 9.19ZM152.29 10C152.4 10 152.49 9.9 152.49 9.79C152.49 9.68 152.4 9.59 152.29 9.59C152.18 9.59 152.08 9.68 152.08 9.79C152.08 9.9 152.18 10 152.29 10ZM148.95 10C149.07 10 149.17 9.9 149.17 9.79C149.17 9.68 149.07 9.59 148.95 9.59C148.83 9.59 148.74 9.68 148.74 9.79C148.74 9.9 148.83 10 148.95 10ZM154.78 10C154.89 10 154.98 9.9 154.98 9.79C154.98 9.68 154.89 9.59 154.78 9.59C154.66 9.59 154.57 9.68 154.57 9.79C154.57 9.9 154.66 10 154.78 10ZM149.78 10C149.89 10 150.01 9.9 150.01 9.79C150.01 9.68 149.89 9.59 149.78 9.59C149.67 9.59 149.58 9.68 149.58 9.79C149.58 9.9 149.67 10 149.78 10ZM157.29 10C157.41 10 157.5 9.9 157.5 9.79C157.5 9.68 157.41 9.59 157.29 9.59C157.18 9.59 157.09 9.68 157.09 9.79C157.09 9.9 157.18 10 157.29 10ZM153.94 10C154.07 10 154.16 9.9 154.16 9.79C154.16 9.68 154.07 9.59 153.94 9.59C153.83 9.59 153.74 9.68 153.74 9.79C153.74 9.9 153.83 10 153.94 10ZM150.62 10C150.73 10 150.82 9.9 150.82 9.79C150.82 9.68 150.73 9.59 150.62 9.59C150.51 9.59 150.41 9.68 150.41 9.79C150.41 9.9 150.51 10 150.62 10ZM148.13 10C148.23 10 148.33 9.9 148.33 9.79C148.33 9.68 148.23 9.59 148.13 9.59C148.02 9.59 147.91 9.68 147.91 9.79C147.91 9.9 148.02 10 148.13 10ZM155.61 10C155.73 10 155.82 9.9 155.82 9.79C155.82 9.68 155.73 9.59 155.61 9.59C155.5 9.59 155.41 9.68 155.41 9.79C155.41 9.9 155.5 10 155.61 10ZM153.13 10C153.24 10 153.33 9.9 153.33 9.79C153.33 9.68 153.24 9.59 153.13 9.59C152.99 9.59 152.9 9.68 152.9 9.79C152.9 9.9 152.99 10 153.13 10ZM151.45 10C151.56 10 151.65 9.9 151.65 9.79C151.65 9.68 151.56 9.59 151.45 9.59C151.34 9.59 151.24 9.68 151.24 9.79C151.24 9.9 151.34 10 151.45 10ZM156.45 10C156.57 10 156.66 9.9 156.66 9.79C156.66 9.68 156.57 9.59 156.45 9.59C156.34 9.59 156.25 9.68 156.25 9.79C156.25 9.9 156.34 10 156.45 10ZM156.03 10.79C156.16 10.79 156.25 10.7 156.25 10.59C156.25 10.46 156.16 10.37 156.03 10.37C155.91 10.37 155.82 10.46 155.82 10.59C155.82 10.7 155.91 10.79 156.03 10.79ZM156.85 10.79C156.97 10.79 157.08 10.7 157.08 10.59C157.08 10.46 156.97 10.37 156.85 10.37C156.75 10.37 156.66 10.46 156.66 10.59C156.66 10.7 156.75 10.79 156.85 10.79ZM149.37 10.79C149.48 10.79 149.58 10.7 149.58 10.59C149.58 10.46 149.48 10.37 149.37 10.37C149.26 10.37 149.17 10.46 149.17 10.59C149.17 10.7 149.26 10.79 149.37 10.79ZM147.7 10.79C147.81 10.79 147.91 10.7 147.91 10.59C147.91 10.46 147.81 10.37 147.7 10.37C147.59 10.37 147.5 10.46 147.5 10.59C147.5 10.7 147.59 10.79 147.7 10.79ZM155.21 10.79C155.32 10.79 155.41 10.7 155.41 10.59C155.41 10.46 155.32 10.37 155.21 10.37C155.09 10.37 154.98 10.46 154.98 10.59C154.98 10.7 155.09 10.79 155.21 10.79ZM150.21 10.79C150.32 10.79 150.41 10.7 150.41 10.59C150.41 10.46 150.32 10.37 150.21 10.37C150.1 10.37 150.01 10.46 150.01 10.59C150.01 10.7 150.1 10.79 150.21 10.79ZM151.05 10.79C151.15 10.79 151.24 10.7 151.24 10.59C151.24 10.46 151.15 10.37 151.05 10.37C150.92 10.37 150.82 10.46 150.82 10.59C150.82 10.7 150.92 10.79 151.05 10.79ZM154.37 10.79C154.48 10.79 154.57 10.7 154.57 10.59C154.57 10.46 154.48 10.37 154.37 10.37C154.25 10.37 154.16 10.46 154.16 10.59C154.16 10.7 154.25 10.79 154.37 10.79ZM151.86 10.79C151.97 10.79 152.08 10.7 152.08 10.59C152.08 10.46 151.97 10.37 151.86 10.37C151.75 10.37 151.65 10.46 151.65 10.59C151.65 10.7 151.75 10.79 151.86 10.79ZM152.7 10.79C152.81 10.79 152.9 10.7 152.9 10.59C152.9 10.46 152.81 10.37 152.7 10.37C152.58 10.37 152.49 10.46 152.49 10.59C152.49 10.7 152.58 10.79 152.7 10.79ZM148.53 10.79C148.64 10.79 148.74 10.7 148.74 10.59C148.74 10.46 148.64 10.37 148.53 10.37C148.42 10.37 148.33 10.46 148.33 10.59C148.33 10.7 148.42 10.79 148.53 10.79ZM153.54 10.79C153.65 10.79 153.74 10.7 153.74 10.59C153.74 10.46 153.65 10.37 153.54 10.37C153.42 10.37 153.33 10.46 153.33 10.59C153.33 10.7 153.42 10.79 153.54 10.79ZM156.45 11.6C156.57 11.6 156.66 11.49 156.66 11.38C156.66 11.26 156.57 11.17 156.45 11.17C156.34 11.17 156.25 11.26 156.25 11.38C156.25 11.49 156.34 11.6 156.45 11.6ZM150.62 11.6C150.73 11.6 150.82 11.49 150.82 11.38C150.82 11.26 150.73 11.17 150.62 11.17C150.51 11.17 150.41 11.26 150.41 11.38C150.41 11.49 150.51 11.6 150.62 11.6ZM151.45 11.6C151.56 11.6 151.65 11.49 151.65 11.38C151.65 11.26 151.56 11.17 151.45 11.17C151.34 11.17 151.24 11.26 151.24 11.38C151.24 11.49 151.34 11.6 151.45 11.6ZM149.78 11.6C149.89 11.6 150.01 11.49 150.01 11.38C150.01 11.26 149.89 11.17 149.78 11.17C149.67 11.17 149.58 11.26 149.58 11.38C149.58 11.49 149.67 11.6 149.78 11.6ZM152.29 11.6C152.4 11.6 152.49 11.49 152.49 11.38C152.49 11.26 152.4 11.17 152.29 11.17C152.18 11.17 152.08 11.26 152.08 11.38C152.08 11.49 152.18 11.6 152.29 11.6ZM153.13 11.6C153.24 11.6 153.33 11.49 153.33 11.38C153.33 11.26 153.24 11.17 153.13 11.17C152.99 11.17 152.9 11.26 152.9 11.38C152.9 11.49 152.99 11.6 153.13 11.6ZM153.94 11.6C154.07 11.6 154.16 11.49 154.16 11.38C154.16 11.26 154.07 11.17 153.94 11.17C153.83 11.17 153.74 11.26 153.74 11.38C153.74 11.49 153.83 11.6 153.94 11.6ZM157.29 11.6C157.41 11.6 157.5 11.49 157.5 11.38C157.5 11.26 157.41 11.17 157.29 11.17C157.18 11.17 157.09 11.26 157.09 11.38C157.09 11.49 157.18 11.6 157.29 11.6ZM154.78 11.6C154.89 11.6 154.98 11.49 154.98 11.38C154.98 11.26 154.89 11.17 154.78 11.17C154.66 11.17 154.57 11.26 154.57 11.38C154.57 11.49 154.66 11.6 154.78 11.6ZM148.95 11.6C149.07 11.6 149.17 11.49 149.17 11.38C149.17 11.26 149.07 11.17 148.95 11.17C148.83 11.17 148.74 11.26 148.74 11.38C148.74 11.49 148.83 11.6 148.95 11.6ZM155.61 11.6C155.73 11.6 155.82 11.49 155.82 11.38C155.82 11.26 155.73 11.17 155.61 11.17C155.5 11.17 155.41 11.26 155.41 11.38C155.41 11.49 155.5 11.6 155.61 11.6ZM148.13 11.6C148.23 11.6 148.33 11.49 148.33 11.38C148.33 11.26 148.23 11.17 148.13 11.17C148.02 11.17 147.91 11.26 147.91 11.38C147.91 11.49 148.02 11.6 148.13 11.6ZM155.21 12.39C155.32 12.39 155.41 12.3 155.41 12.19C155.41 12.07 155.32 11.98 155.21 11.98C155.09 11.98 154.98 12.07 154.98 12.19C154.98 12.3 155.09 12.39 155.21 12.39ZM151.05 12.39C151.15 12.39 151.24 12.3 151.24 12.19C151.24 12.07 151.15 11.98 151.05 11.98C150.92 11.98 150.82 12.07 150.82 12.19C150.82 12.3 150.92 12.39 151.05 12.39ZM156.85 12.39C156.97 12.39 157.08 12.3 157.08 12.19C157.08 12.07 156.97 11.98 156.85 11.98C156.75 11.98 156.66 12.07 156.66 12.19C156.66 12.3 156.75 12.39 156.85 12.39ZM149.37 12.39C149.48 12.39 149.58 12.3 149.58 12.19C149.58 12.07 149.48 11.98 149.37 11.98C149.26 11.98 149.17 12.07 149.17 12.19C149.17 12.3 149.26 12.39 149.37 12.39ZM151.86 12.39C151.97 12.39 152.08 12.3 152.08 12.19C152.08 12.07 151.97 11.98 151.86 11.98C151.75 11.98 151.65 12.07 151.65 12.19C151.65 12.3 151.75 12.39 151.86 12.39ZM156.03 12.39C156.16 12.39 156.25 12.3 156.25 12.19C156.25 12.07 156.16 11.98 156.03 11.98C155.91 11.98 155.82 12.07 155.82 12.19C155.82 12.3 155.91 12.39 156.03 12.39ZM147.7 12.39C147.81 12.39 147.91 12.3 147.91 12.19C147.91 12.07 147.81 11.98 147.7 11.98C147.59 11.98 147.5 12.07 147.5 12.19C147.5 12.3 147.59 12.39 147.7 12.39ZM152.7 12.39C152.81 12.39 152.9 12.3 152.9 12.19C152.9 12.07 152.81 11.98 152.7 11.98C152.58 11.98 152.49 12.07 152.49 12.19C152.49 12.3 152.58 12.39 152.7 12.39ZM153.54 12.39C153.65 12.39 153.74 12.3 153.74 12.19C153.74 12.07 153.65 11.98 153.54 11.98C153.42 11.98 153.33 12.07 153.33 12.19C153.33 12.3 153.42 12.39 153.54 12.39ZM148.53 12.39C148.64 12.39 148.74 12.3 148.74 12.19C148.74 12.07 148.64 11.98 148.53 11.98C148.42 11.98 148.33 12.07 148.33 12.19C148.33 12.3 148.42 12.39 148.53 12.39ZM154.37 12.39C154.48 12.39 154.57 12.3 154.57 12.19C154.57 12.07 154.48 11.98 154.37 11.98C154.25 11.98 154.16 12.07 154.16 12.19C154.16 12.3 154.25 12.39 154.37 12.39ZM150.21 12.39C150.32 12.39 150.41 12.3 150.41 12.19C150.41 12.07 150.32 11.98 150.21 11.98C150.1 11.98 150.01 12.07 150.01 12.19C150.01 12.3 150.1 12.39 150.21 12.39ZM156.45 13.2C156.57 13.2 156.66 13.11 156.66 12.99C156.66 12.88 156.57 12.79 156.45 12.79C156.34 12.79 156.25 12.88 156.25 12.99C156.25 13.11 156.34 13.2 156.45 13.2ZM155.61 13.2C155.73 13.2 155.82 13.11 155.82 12.99C155.82 12.88 155.73 12.79 155.61 12.79C155.5 12.79 155.41 12.88 155.41 12.99C155.41 13.11 155.5 13.2 155.61 13.2ZM154.78 13.2C154.89 13.2 154.98 13.11 154.98 12.99C154.98 12.88 154.89 12.79 154.78 12.79C154.66 12.79 154.57 12.88 154.57 12.99C154.57 13.11 154.66 13.2 154.78 13.2ZM148.13 13.2C148.23 13.2 148.33 13.11 148.33 12.99C148.33 12.88 148.23 12.79 148.13 12.79C148.02 12.79 147.91 12.88 147.91 12.99C147.91 13.11 148.02 13.2 148.13 13.2ZM153.94 13.2C154.07 13.2 154.16 13.11 154.16 12.99C154.16 12.88 154.07 12.79 153.94 12.79C153.83 12.79 153.74 12.88 153.74 12.99C153.74 13.11 153.83 13.2 153.94 13.2ZM153.13 13.2C153.24 13.2 153.33 13.11 153.33 12.99C153.33 12.88 153.24 12.79 153.13 12.79C152.99 12.79 152.9 12.88 152.9 12.99C152.9 13.11 152.99 13.2 153.13 13.2ZM148.95 13.2C149.07 13.2 149.17 13.11 149.17 12.99C149.17 12.88 149.07 12.79 148.95 12.79C148.83 12.79 148.74 12.88 148.74 12.99C148.74 13.11 148.83 13.2 148.95 13.2ZM152.29 13.2C152.4 13.2 152.49 13.11 152.49 12.99C152.49 12.88 152.4 12.79 152.29 12.79C152.18 12.79 152.08 12.88 152.08 12.99C152.08 13.11 152.18 13.2 152.29 13.2ZM157.29 13.2C157.41 13.2 157.5 13.11 157.5 12.99C157.5 12.88 157.41 12.79 157.29 12.79C157.18 12.79 157.09 12.88 157.09 12.99C157.09 13.11 157.18 13.2 157.29 13.2ZM151.45 13.2C151.56 13.2 151.65 13.11 151.65 12.99C151.65 12.88 151.56 12.79 151.45 12.79C151.34 12.79 151.24 12.88 151.24 12.99C151.24 13.11 151.34 13.2 151.45 13.2ZM150.62 13.2C150.73 13.2 150.82 13.11 150.82 12.99C150.82 12.88 150.73 12.79 150.62 12.79C150.51 12.79 150.41 12.88 150.41 12.99C150.41 13.11 150.51 13.2 150.62 13.2ZM149.78 13.2C149.89 13.2 150.01 13.11 150.01 12.99C150.01 12.88 149.89 12.79 149.78 12.79C149.67 12.79 149.58 12.88 149.58 12.99C149.58 13.11 149.67 13.2 149.78 13.2ZM152.7 14C152.81 14 152.9 13.91 152.9 13.79C152.9 13.68 152.81 13.59 152.7 13.59C152.58 13.59 152.49 13.68 152.49 13.79C152.49 13.91 152.58 14 152.7 14ZM147.7 14C147.81 14 147.91 13.91 147.91 13.79C147.91 13.68 147.81 13.59 147.7 13.59C147.59 13.59 147.5 13.68 147.5 13.79C147.5 13.91 147.59 14 147.7 14ZM148.53 14C148.64 14 148.74 13.91 148.74 13.79C148.74 13.68 148.64 13.59 148.53 13.59C148.42 13.59 148.33 13.68 148.33 13.79C148.33 13.91 148.42 14 148.53 14ZM149.37 14C149.48 14 149.58 13.91 149.58 13.79C149.58 13.68 149.48 13.59 149.37 13.59C149.26 13.59 149.17 13.68 149.17 13.79C149.17 13.91 149.26 14 149.37 14ZM150.21 14C150.32 14 150.41 13.91 150.41 13.79C150.41 13.68 150.32 13.59 150.21 13.59C150.1 13.59 150.01 13.68 150.01 13.79C150.01 13.91 150.1 14 150.21 14ZM151.05 14C151.15 14 151.24 13.91 151.24 13.79C151.24 13.68 151.15 13.59 151.05 13.59C150.92 13.59 150.82 13.68 150.82 13.79C150.82 13.91 150.92 14 151.05 14ZM151.86 14C151.97 14 152.08 13.91 152.08 13.79C152.08 13.68 151.97 13.59 151.86 13.59C151.75 13.59 151.65 13.68 151.65 13.79C151.65 13.91 151.75 14 151.86 14ZM153.54 14C153.65 14 153.74 13.91 153.74 13.79C153.74 13.68 153.65 13.59 153.54 13.59C153.42 13.59 153.33 13.68 153.33 13.79C153.33 13.91 153.42 14 153.54 14ZM154.37 14C154.48 14 154.57 13.91 154.57 13.79C154.57 13.68 154.48 13.59 154.37 13.59C154.25 13.59 154.16 13.68 154.16 13.79C154.16 13.91 154.25 14 154.37 14ZM155.21 14C155.32 14 155.41 13.91 155.41 13.79C155.41 13.68 155.32 13.59 155.21 13.59C155.09 13.59 154.98 13.68 154.98 13.79C154.98 13.91 155.09 14 155.21 14ZM156.03 14C156.16 14 156.25 13.91 156.25 13.79C156.25 13.68 156.16 13.59 156.03 13.59C155.91 13.59 155.82 13.68 155.82 13.79C155.82 13.91 155.91 14 156.03 14ZM156.85 14C156.97 14 157.08 13.91 157.08 13.79C157.08 13.68 156.97 13.59 156.85 13.59C156.75 13.59 156.66 13.68 156.66 13.79C156.66 13.91 156.75 14 156.85 14Z" fill="#393C41"/>
</svg>
