<svg width="363" height="43" viewBox="0 0 363 43" fill="none" xmlns="http://www.w3.org/2000/svg">
<path d="M1.55317 26.2127L5.5 42L359.5 42L361.726 25.6756C362.135 22.6734 359.802 20 356.772 20H334.589C332.696 20 330.965 18.9307 330.118 17.2376L323.124 3.26241C322.277 1.56933 320.546 0.500006 318.653 0.500006L244.775 0.5C242.786 0.5 240.986 1.67883 240.191 3.50208L234.309 16.9979C233.514 18.8212 231.714 20 229.725 20H6.40388C3.15103 20 0.764237 23.0569 1.55317 26.2127Z" fill="#F1F2F6" stroke="#393C41"/>
<path d="M248.108 14.18C247.524 14.18 246.992 14.084 246.512 13.892C246.032 13.7 245.62 13.42 245.276 13.052C244.932 12.684 244.664 12.232 244.472 11.696C244.288 11.152 244.196 10.532 244.196 9.83601C244.196 9.14001 244.3 8.524 244.508 7.988C244.724 7.444 245.012 6.988 245.372 6.62C245.732 6.252 246.152 5.972 246.632 5.78C247.112 5.588 247.624 5.492 248.168 5.492C248.512 5.492 248.82 5.516 249.092 5.564C249.372 5.612 249.612 5.668 249.812 5.732C250.02 5.796 250.188 5.86 250.316 5.924C250.444 5.988 250.532 6.036 250.58 6.068L250.244 7.028C250.172 6.98 250.068 6.928 249.932 6.872C249.796 6.816 249.64 6.76 249.464 6.704C249.296 6.648 249.108 6.604 248.9 6.572C248.7 6.532 248.496 6.512 248.288 6.512C247.848 6.512 247.452 6.588 247.1 6.74C246.748 6.892 246.448 7.112 246.2 7.4C245.952 7.688 245.76 8.04 245.624 8.456C245.496 8.864 245.432 9.32401 245.432 9.83601C245.432 10.332 245.488 10.784 245.6 11.192C245.72 11.6 245.896 11.952 246.128 12.248C246.36 12.536 246.648 12.76 246.992 12.92C247.344 13.08 247.752 13.16 248.216 13.16C248.752 13.16 249.196 13.104 249.548 12.992C249.9 12.88 250.164 12.78 250.34 12.692L250.64 13.652C250.584 13.692 250.484 13.744 250.34 13.808C250.196 13.864 250.016 13.92 249.8 13.976C249.584 14.032 249.332 14.08 249.044 14.12C248.756 14.16 248.444 14.18 248.108 14.18Z" fill="#393C41"/>
<path d="M306.066 10.03C306.066 8.87 306.27 7.97667 306.676 7.35C307.09 6.72334 307.66 6.41 308.386 6.41C309.113 6.41 309.68 6.72334 310.086 7.35C310.5 7.97667 310.706 8.87 310.706 10.03C310.706 11.19 310.5 12.0833 310.086 12.71C309.68 13.3367 309.113 13.65 308.386 13.65C307.66 13.65 307.09 13.3367 306.676 12.71C306.27 12.0833 306.066 11.19 306.066 10.03ZM309.726 10.03C309.726 9.65 309.703 9.29 309.656 8.95C309.616 8.61 309.543 8.31334 309.436 8.06C309.336 7.80667 309.2 7.60667 309.026 7.46C308.853 7.30667 308.64 7.23 308.386 7.23C308.133 7.23 307.92 7.30667 307.746 7.46C307.573 7.60667 307.433 7.80667 307.326 8.06C307.226 8.31334 307.153 8.61 307.106 8.95C307.066 9.29 307.046 9.65 307.046 10.03C307.046 10.41 307.066 10.77 307.106 11.11C307.153 11.45 307.226 11.7467 307.326 12C307.433 12.2533 307.573 12.4567 307.746 12.61C307.92 12.7567 308.133 12.83 308.386 12.83C308.64 12.83 308.853 12.7567 309.026 12.61C309.2 12.4567 309.336 12.2533 309.436 12C309.543 11.7467 309.616 11.45 309.656 11.11C309.703 10.77 309.726 10.41 309.726 10.03Z" fill="#393C41"/>
<path d="M311.711 10.03C311.711 8.87 311.914 7.97667 312.321 7.35C312.734 6.72334 313.304 6.41 314.031 6.41C314.757 6.41 315.324 6.72334 315.731 7.35C316.144 7.97667 316.351 8.87 316.351 10.03C316.351 11.19 316.144 12.0833 315.731 12.71C315.324 13.3367 314.757 13.65 314.031 13.65C313.304 13.65 312.734 13.3367 312.321 12.71C311.914 12.0833 311.711 11.19 311.711 10.03ZM315.371 10.03C315.371 9.65 315.347 9.29 315.301 8.95C315.261 8.61 315.187 8.31334 315.081 8.06C314.981 7.80667 314.844 7.60667 314.671 7.46C314.497 7.30667 314.284 7.23 314.031 7.23C313.777 7.23 313.564 7.30667 313.391 7.46C313.217 7.60667 313.077 7.80667 312.971 8.06C312.871 8.31334 312.797 8.61 312.751 8.95C312.711 9.29 312.691 9.65 312.691 10.03C312.691 10.41 312.711 10.77 312.751 11.11C312.797 11.45 312.871 11.7467 312.971 12C313.077 12.2533 313.217 12.4567 313.391 12.61C313.564 12.7567 313.777 12.83 314.031 12.83C314.284 12.83 314.497 12.7567 314.671 12.61C314.844 12.4567 314.981 12.2533 315.081 12C315.187 11.7467 315.261 11.45 315.301 11.11C315.347 10.77 315.371 10.41 315.371 10.03Z" fill="#393C41"/>
<path d="M317.485 10.72C317.485 10.0467 317.579 9.45334 317.765 8.94C317.952 8.42 318.215 7.98334 318.555 7.63C318.902 7.27667 319.319 7.01 319.805 6.83C320.299 6.64334 320.852 6.54667 321.465 6.54L321.535 7.32C321.142 7.32667 320.782 7.37 320.455 7.45C320.135 7.53 319.849 7.65667 319.595 7.83C319.342 8.00334 319.129 8.23001 318.955 8.51C318.782 8.78334 318.652 9.12334 318.565 9.53C318.739 9.45001 318.932 9.38334 319.145 9.33C319.365 9.27667 319.592 9.25 319.825 9.25C320.219 9.25 320.552 9.31001 320.825 9.43001C321.099 9.55 321.322 9.71 321.495 9.91C321.669 10.1033 321.792 10.33 321.865 10.59C321.945 10.8433 321.985 11.11 321.985 11.39C321.985 11.6433 321.942 11.9033 321.855 12.17C321.769 12.4367 321.635 12.68 321.455 12.9C321.282 13.12 321.059 13.3 320.785 13.44C320.512 13.58 320.189 13.65 319.815 13.65C319.055 13.65 318.475 13.39 318.075 12.87C317.682 12.35 317.485 11.6333 317.485 10.72ZM319.725 10.01C319.492 10.01 319.275 10.0333 319.075 10.08C318.875 10.12 318.675 10.1833 318.475 10.27C318.469 10.3433 318.462 10.42 318.455 10.5C318.455 10.5733 318.455 10.6467 318.455 10.72C318.455 11.0133 318.475 11.29 318.515 11.55C318.555 11.81 318.625 12.04 318.725 12.24C318.832 12.4333 318.972 12.59 319.145 12.71C319.319 12.8233 319.539 12.88 319.805 12.88C320.025 12.88 320.212 12.8333 320.365 12.74C320.519 12.6467 320.645 12.5267 320.745 12.38C320.845 12.2333 320.915 12.0767 320.955 11.91C321.002 11.7367 321.025 11.57 321.025 11.41C321.025 10.9567 320.915 10.61 320.695 10.37C320.482 10.13 320.159 10.01 319.725 10.01Z" fill="#393C41"/>
</svg>
