<svg width="361" height="43" viewBox="0 0 361 43" fill="none" xmlns="http://www.w3.org/2000/svg">
<path d="M1.55317 26.2127L5.5 42L358 42L360.226 25.6756C360.635 22.6734 358.302 20 355.272 20L132.089 20C130.196 20 128.465 18.9307 127.618 17.2376L120.624 3.26241C119.777 1.56933 118.046 0.500006 116.153 0.500006L28.2749 0.5C26.286 0.5 24.4862 1.67883 23.6914 3.50208L17.8086 16.9979C17.0138 18.8212 15.214 20 13.2251 20L6.40388 20C3.15103 20 0.764237 23.057 1.55317 26.2127Z" fill="#F1F2F6" stroke="#393C41"/>
<path d="M34.36 10.336C34.36 11.056 34.248 11.684 34.024 12.22C33.8 12.748 33.484 13.188 33.076 13.54C32.668 13.884 32.18 14.144 31.612 14.32C31.044 14.488 30.42 14.572 29.74 14.572C29.404 14.572 29.032 14.556 28.624 14.524C28.224 14.5 27.86 14.448 27.532 14.368V6.30401C27.86 6.22401 28.224 6.17201 28.624 6.14801C29.032 6.11601 29.404 6.10001 29.74 6.10001C30.42 6.10001 31.044 6.18801 31.612 6.36401C32.18 6.53201 32.668 6.79201 33.076 7.14401C33.484 7.48801 33.8 7.92801 34.024 8.46401C34.248 8.99201 34.36 9.61601 34.36 10.336ZM29.836 13.552C30.94 13.552 31.764 13.272 32.308 12.712C32.852 12.144 33.124 11.352 33.124 10.336C33.124 9.32001 32.852 8.53201 32.308 7.97201C31.764 7.40401 30.94 7.12001 29.836 7.12001C29.508 7.12001 29.252 7.12401 29.068 7.13201C28.892 7.14001 28.768 7.14801 28.696 7.15601V13.516C28.768 13.524 28.892 13.532 29.068 13.54C29.252 13.548 29.508 13.552 29.836 13.552Z" fill="#393C41"/>
<path d="M101.066 10.53C101.066 9.37001 101.27 8.47667 101.676 7.85001C102.09 7.22334 102.66 6.91001 103.386 6.91001C104.113 6.91001 104.68 7.22334 105.086 7.85001C105.5 8.47667 105.706 9.37001 105.706 10.53C105.706 11.69 105.5 12.5833 105.086 13.21C104.68 13.8367 104.113 14.15 103.386 14.15C102.66 14.15 102.09 13.8367 101.676 13.21C101.27 12.5833 101.066 11.69 101.066 10.53ZM104.726 10.53C104.726 10.15 104.703 9.79001 104.656 9.45001C104.616 9.11001 104.543 8.81334 104.436 8.56001C104.336 8.30667 104.2 8.10667 104.026 7.96001C103.853 7.80667 103.64 7.73001 103.386 7.73001C103.133 7.73001 102.92 7.80667 102.746 7.96001C102.573 8.10667 102.433 8.30667 102.326 8.56001C102.226 8.81334 102.153 9.11001 102.106 9.45001C102.066 9.79001 102.046 10.15 102.046 10.53C102.046 10.91 102.066 11.27 102.106 11.61C102.153 11.95 102.226 12.2467 102.326 12.5C102.433 12.7533 102.573 12.9567 102.746 13.11C102.92 13.2567 103.133 13.33 103.386 13.33C103.64 13.33 103.853 13.2567 104.026 13.11C104.2 12.9567 104.336 12.7533 104.436 12.5C104.543 12.2467 104.616 11.95 104.656 11.61C104.703 11.27 104.726 10.91 104.726 10.53Z" fill="#393C41"/>
<path d="M107.141 8.50001C107.521 8.35334 107.891 8.16667 108.251 7.94001C108.611 7.70667 108.941 7.41667 109.241 7.07001H109.901V14H108.971V8.36001C108.891 8.43334 108.791 8.51001 108.671 8.59001C108.558 8.67001 108.431 8.74667 108.291 8.82001C108.158 8.89334 108.014 8.96334 107.861 9.03001C107.714 9.09667 107.571 9.15334 107.431 9.20001L107.141 8.50001Z" fill="#393C41"/>
<path d="M112.255 11.6C112.382 11.3067 112.555 10.9667 112.775 10.58C112.995 10.1867 113.242 9.78334 113.515 9.37001C113.795 8.95667 114.092 8.55001 114.405 8.15001C114.725 7.75001 115.045 7.39001 115.365 7.07001H116.255V11.47H117.075V12.23H116.255V14H115.355V12.23H112.255V11.6ZM115.355 8.17001C115.155 8.38334 114.952 8.62334 114.745 8.89001C114.545 9.15001 114.349 9.42334 114.155 9.71001C113.962 9.99667 113.779 10.29 113.605 10.59C113.439 10.89 113.289 11.1833 113.155 11.47H115.355V8.17001Z" fill="#393C41"/>
</svg>
