<svg width="355" height="43" viewBox="0 0 355 43" fill="none" xmlns="http://www.w3.org/2000/svg">
<path d="M1.55317 26.2127L5.5 42H351.5L353.726 25.6756C354.135 22.6734 351.802 20 348.772 20H328.347C326.454 20 324.723 18.9307 323.876 17.2376L316.882 3.26241C316.035 1.56933 314.304 0.500006 312.411 0.500006L238.775 0.5C236.786 0.5 234.986 1.67883 234.191 3.50208L228.309 16.9979C227.514 18.8212 225.714 20 223.725 20H6.40388C3.15103 20 0.764237 23.057 1.55317 26.2127Z" fill="#F1F2F6" stroke="#393C41"/>
<path d="M240.128 14.18C239.584 14.18 239.112 14.096 238.712 13.928C238.312 13.76 237.984 13.532 237.728 13.244C237.472 12.948 237.28 12.6 237.152 12.2C237.032 11.8 236.972 11.368 236.972 10.904V5.68399H238.136V10.772C238.136 11.604 238.32 12.208 238.688 12.584C239.056 12.96 239.536 13.148 240.128 13.148C240.424 13.148 240.692 13.104 240.932 13.016C241.18 12.92 241.392 12.776 241.568 12.584C241.744 12.392 241.88 12.148 241.976 11.852C242.072 11.548 242.12 11.188 242.12 10.772V5.68399H243.284V10.904C243.284 11.368 243.22 11.8 243.092 12.2C242.972 12.6 242.78 12.948 242.516 13.244C242.26 13.532 241.932 13.76 241.532 13.928C241.14 14.096 240.672 14.18 240.128 14.18Z" fill="#393C41"/>
<path d="M299.567 10.03C299.567 8.86999 299.77 7.97666 300.177 7.34999C300.59 6.72332 301.16 6.40999 301.887 6.40999C302.613 6.40999 303.18 6.72332 303.587 7.34999C304 7.97666 304.207 8.86999 304.207 10.03C304.207 11.19 304 12.0833 303.587 12.71C303.18 13.3367 302.613 13.65 301.887 13.65C301.16 13.65 300.59 13.3367 300.177 12.71C299.77 12.0833 299.567 11.19 299.567 10.03ZM303.227 10.03C303.227 9.64999 303.203 9.28999 303.157 8.94999C303.117 8.60999 303.043 8.31332 302.937 8.05999C302.837 7.80666 302.7 7.60666 302.527 7.45999C302.353 7.30666 302.14 7.22999 301.887 7.22999C301.633 7.22999 301.42 7.30666 301.247 7.45999C301.073 7.60666 300.933 7.80666 300.827 8.05999C300.727 8.31332 300.653 8.60999 300.607 8.94999C300.567 9.28999 300.547 9.64999 300.547 10.03C300.547 10.41 300.567 10.77 300.607 11.11C300.653 11.45 300.727 11.7467 300.827 12C300.933 12.2533 301.073 12.4567 301.247 12.61C301.42 12.7567 301.633 12.83 301.887 12.83C302.14 12.83 302.353 12.7567 302.527 12.61C302.7 12.4567 302.837 12.2533 302.937 12C303.043 11.7467 303.117 11.45 303.157 11.11C303.203 10.77 303.227 10.41 303.227 10.03Z" fill="#393C41"/>
<path d="M306.701 9.23999C307.708 9.27999 308.444 9.49999 308.911 9.89999C309.384 10.3 309.621 10.8433 309.621 11.53C309.621 11.8367 309.568 12.12 309.461 12.38C309.361 12.64 309.204 12.8633 308.991 13.05C308.784 13.2367 308.521 13.3833 308.201 13.49C307.881 13.5967 307.501 13.65 307.061 13.65C306.888 13.65 306.711 13.6367 306.531 13.61C306.351 13.5833 306.184 13.55 306.031 13.51C305.878 13.47 305.741 13.43 305.621 13.39C305.501 13.35 305.414 13.3167 305.361 13.29L305.541 12.48C305.654 12.5333 305.838 12.6033 306.091 12.69C306.351 12.7767 306.668 12.82 307.041 12.82C307.341 12.82 307.591 12.7867 307.791 12.72C307.998 12.6533 308.164 12.5633 308.291 12.45C308.418 12.3367 308.508 12.2067 308.561 12.06C308.621 11.9067 308.651 11.7467 308.651 11.58C308.651 11.3267 308.608 11.1033 308.521 10.91C308.434 10.71 308.281 10.5433 308.061 10.41C307.841 10.2767 307.548 10.1767 307.181 10.11C306.814 10.0367 306.351 9.99999 305.791 9.99999C305.831 9.67332 305.861 9.36666 305.881 9.07999C305.908 8.79332 305.931 8.51332 305.951 8.23999C305.971 7.96666 305.988 7.69666 306.001 7.42999C306.014 7.15666 306.028 6.86999 306.041 6.56999H309.381V7.35999H306.851C306.844 7.45999 306.834 7.59666 306.821 7.76999C306.808 7.93666 306.794 8.11332 306.781 8.29999C306.768 8.47999 306.754 8.65666 306.741 8.82999C306.728 9.00332 306.714 9.13999 306.701 9.23999Z" fill="#393C41"/>
<path d="M311.286 7.99999C311.666 7.85332 312.036 7.66666 312.396 7.43999C312.756 7.20666 313.086 6.91666 313.386 6.56999H314.046V13.5H313.116V7.85999C313.036 7.93332 312.936 8.00999 312.816 8.08999C312.702 8.16999 312.576 8.24666 312.436 8.31999C312.302 8.39332 312.159 8.46332 312.006 8.52999C311.859 8.59666 311.716 8.65332 311.576 8.69999L311.286 7.99999Z" fill="#393C41"/>
</svg>
