<svg width="358" height="43" viewBox="0 0 358 43" fill="none" xmlns="http://www.w3.org/2000/svg">
<path d="M1.55317 26.2127L5.5 42H354.5L356.726 25.6756C357.135 22.6734 354.802 20 351.772 20L211.847 20C209.954 20 208.223 18.9307 207.376 17.2376L200.382 3.26241C199.535 1.56933 197.804 0.500006 195.911 0.500006L122.275 0.5C120.286 0.5 118.486 1.67883 117.691 3.50208L111.809 16.9979C111.014 18.8212 109.214 20 107.225 20L6.40388 20C3.15103 20 0.764237 23.057 1.55317 26.2127Z" fill="#F1F2F6" stroke="#393C41"/>
<path d="M119.696 9.33601C119.696 8.62401 119.8 7.996 120.008 7.452C120.224 6.908 120.512 6.456 120.872 6.096C121.24 5.728 121.664 5.452 122.144 5.268C122.632 5.084 123.148 4.992 123.692 4.992C124.228 4.992 124.732 5.084 125.204 5.268C125.684 5.452 126.104 5.728 126.464 6.096C126.824 6.456 127.108 6.908 127.316 7.452C127.532 7.996 127.64 8.62401 127.64 9.33601C127.64 9.96001 127.56 10.516 127.4 11.004C127.24 11.492 127.016 11.916 126.728 12.276C126.448 12.628 126.116 12.916 125.732 13.14C125.356 13.356 124.952 13.504 124.52 13.584C124.528 13.768 124.608 13.928 124.76 14.064C124.92 14.208 125.12 14.328 125.36 14.424C125.6 14.52 125.868 14.6 126.164 14.664C126.46 14.728 126.756 14.776 127.052 14.808L126.776 15.72C126.36 15.664 125.96 15.588 125.576 15.492C125.2 15.404 124.856 15.284 124.544 15.132C124.24 14.98 123.984 14.784 123.776 14.544C123.568 14.312 123.428 14.02 123.356 13.668C122.852 13.636 122.376 13.52 121.928 13.32C121.48 13.112 121.092 12.828 120.764 12.468C120.436 12.1 120.176 11.656 119.984 11.136C119.792 10.616 119.696 10.016 119.696 9.33601ZM120.92 9.33601C120.92 9.84001 120.984 10.3 121.112 10.716C121.24 11.124 121.42 11.472 121.652 11.76C121.892 12.048 122.18 12.272 122.516 12.432C122.86 12.584 123.244 12.66 123.668 12.66C124.092 12.66 124.472 12.584 124.808 12.432C125.144 12.272 125.428 12.048 125.66 11.76C125.9 11.472 126.084 11.124 126.212 10.716C126.34 10.3 126.404 9.84001 126.404 9.33601C126.404 8.83201 126.34 8.376 126.212 7.968C126.084 7.552 125.9 7.2 125.66 6.912C125.428 6.624 125.144 6.404 124.808 6.252C124.472 6.092 124.092 6.012 123.668 6.012C123.244 6.012 122.86 6.092 122.516 6.252C122.18 6.404 121.892 6.624 121.652 6.912C121.42 7.2 121.24 7.552 121.112 7.968C120.984 8.376 120.92 8.83201 120.92 9.33601Z" fill="#393C41"/>
<path d="M182.566 9.53C182.566 8.37 182.77 7.47667 183.176 6.85C183.59 6.22334 184.16 5.91 184.886 5.91C185.613 5.91 186.18 6.22334 186.586 6.85C187 7.47667 187.206 8.37 187.206 9.53C187.206 10.69 187 11.5833 186.586 12.21C186.18 12.8367 185.613 13.15 184.886 13.15C184.16 13.15 183.59 12.8367 183.176 12.21C182.77 11.5833 182.566 10.69 182.566 9.53ZM186.226 9.53C186.226 9.15 186.203 8.79 186.156 8.45C186.116 8.11 186.043 7.81334 185.936 7.56C185.836 7.30667 185.7 7.10667 185.526 6.96C185.353 6.80667 185.14 6.73 184.886 6.73C184.633 6.73 184.42 6.80667 184.246 6.96C184.073 7.10667 183.933 7.30667 183.826 7.56C183.726 7.81334 183.653 8.11 183.606 8.45C183.566 8.79 183.546 9.15 183.546 9.53C183.546 9.91 183.566 10.27 183.606 10.61C183.653 10.95 183.726 11.2467 183.826 11.5C183.933 11.7533 184.073 11.9567 184.246 12.11C184.42 12.2567 184.633 12.33 184.886 12.33C185.14 12.33 185.353 12.2567 185.526 12.11C185.7 11.9567 185.836 11.7533 185.936 11.5C186.043 11.2467 186.116 10.95 186.156 10.61C186.203 10.27 186.226 9.91 186.226 9.53Z" fill="#393C41"/>
<path d="M188.111 10.6C188.237 10.3067 188.411 9.96667 188.631 9.58C188.851 9.18667 189.097 8.78334 189.371 8.37C189.651 7.95667 189.947 7.55 190.261 7.15C190.581 6.75 190.901 6.39 191.221 6.07H192.111V10.47H192.931V11.23H192.111V13H191.211V11.23H188.111V10.6ZM191.211 7.17C191.011 7.38334 190.807 7.62334 190.601 7.89C190.401 8.15 190.204 8.42334 190.011 8.71C189.817 8.99667 189.634 9.29 189.461 9.59C189.294 9.89001 189.144 10.1833 189.011 10.47H191.211V7.17Z" fill="#393C41"/>
<path d="M194.985 13C195.025 12.4667 195.119 11.9067 195.265 11.32C195.419 10.7267 195.605 10.1533 195.825 9.60001C196.045 9.04001 196.285 8.52334 196.545 8.05C196.812 7.57 197.072 7.18 197.325 6.88H193.955V6.07H198.365V6.84C198.145 7.09334 197.902 7.44334 197.635 7.89C197.369 8.33 197.115 8.82667 196.875 9.38C196.642 9.92667 196.439 10.5133 196.265 11.14C196.099 11.76 195.995 12.38 195.955 13H194.985Z" fill="#393C41"/>
</svg>
